# 3ds Max Wavefront OBJ Exporter v0.97b - (c)2007 guruware
# File Created: 26.03.2019 17:42:58

mtllib stone8.mtl

#
# object Sphere001
#

v  -100.3535 5.2796 9.9145
v  -93.6972 8.0367 -2.5646
v  -89.5614 -1.9478 3.6750
v  -89.5614 -1.9478 16.1540
v  -93.6972 8.0367 22.3935
v  -97.8329 18.0212 16.1540
v  -97.8329 18.0212 3.6750
v  -80.3845 13.5510 -2.5646
v  -76.2487 3.5665 3.6750
v  -76.2487 3.5665 16.1540
v  -80.3845 13.5510 22.3935
v  -84.5202 23.5355 16.1540
v  -84.5202 23.5355 3.6750
v  -73.7281 16.3082 9.9145
# 14 vertices

vn -0.9239 -0.3827 -0.0000
vn -0.4077 -0.1689 -0.8973
vn -0.1103 -0.8869 -0.4487
vn -0.1103 -0.8869 0.4487
vn -0.4077 -0.1689 0.8973
vn -0.7051 0.5491 0.4487
vn -0.7051 0.5491 -0.4487
vn 0.4077 0.1689 -0.8973
vn 0.7051 -0.5491 -0.4487
vn 0.7051 -0.5491 0.4487
vn 0.4077 0.1689 0.8973
vn 0.1103 0.8869 0.4487
vn 0.1103 0.8869 -0.4487
vn 0.9239 0.3827 -0.0000
# 14 vertex normals

vt 0.0000 1.0000 0.0000
vt 0.0000 0.6667 0.0000
vt 0.1667 0.6667 0.0000
vt 0.1667 1.0000 0.0000
vt 0.3333 0.6667 0.0000
vt 0.3333 1.0000 0.0000
vt 0.5000 0.6667 0.0000
vt 0.5000 1.0000 0.0000
vt 0.6667 0.6667 0.0000
vt 0.6667 1.0000 0.0000
vt 0.8333 0.6667 0.0000
vt 0.8333 1.0000 0.0000
vt 1.0000 0.6667 0.0000
vt 0.0000 0.3333 0.0000
vt 0.1667 0.3333 0.0000
vt 0.3333 0.3333 0.0000
vt 0.5000 0.3333 0.0000
vt 0.6667 0.3333 0.0000
vt 0.8333 0.3333 0.0000
vt 1.0000 0.3333 0.0000
vt 0.0000 0.0000 0.0000
vt 0.1667 0.0000 0.0000
vt 0.3333 0.0000 0.0000
vt 0.5000 0.0000 0.0000
vt 0.6667 0.0000 0.0000
vt 0.8333 0.0000 0.0000
# 26 texture coords

o Sphere001
g Sphere001
usemtl Material__25
s 1
f 1/1/1 2/2/2 3/3/3 
f 1/4/1 3/3/3 4/5/4 
f 1/6/1 4/5/4 5/7/5 
f 1/8/1 5/7/5 6/9/6 
f 1/10/1 6/9/6 7/11/7 
f 1/12/1 7/11/7 2/13/2 
f 2/2/2 8/14/8 9/15/9 
f 2/2/2 9/15/9 3/3/3 
f 3/3/3 9/15/9 10/16/10 
f 3/3/3 10/16/10 4/5/4 
f 4/5/4 10/16/10 11/17/11 
f 4/5/4 11/17/11 5/7/5 
f 5/7/5 11/17/11 12/18/12 
f 5/7/5 12/18/12 6/9/6 
f 6/9/6 12/18/12 13/19/13 
f 6/9/6 13/19/13 7/11/7 
f 7/11/7 13/19/13 8/20/8 
f 7/11/7 8/20/8 2/13/2 
f 14/21/14 9/15/9 8/14/8 
f 14/22/14 10/16/10 9/15/9 
f 14/23/14 11/17/11 10/16/10 
f 14/24/14 12/18/12 11/17/11 
f 14/25/14 13/19/13 12/18/12 
f 14/26/14 8/20/8 13/19/13 
# 24 faces

#
# object Sphere002
#

v  6.1027 -0.7859 93.5053
v  6.3662 4.9217 97.5155
v  1.1457 4.0035 94.6086
v  1.1457 1.4506 89.1288
v  6.3662 -0.1840 86.5558
v  11.5867 0.7342 89.4626
v  11.5866 3.2870 94.9424
v  6.8931 11.2312 94.5761
v  1.6726 10.3130 91.6693
v  1.6726 7.7601 86.1894
v  6.8931 6.1255 83.6164
v  12.1136 7.0437 86.5232
v  12.1135 9.5966 92.0031
v  7.1565 11.8331 87.6265
# 14 vertices

vn -0.0755 -0.9039 0.4211
vn -0.0333 -0.0200 0.9992
vn -0.8082 -0.1563 0.5678
vn -0.8082 -0.5352 -0.2456
vn -0.0333 -0.7778 -0.6276
vn 0.7416 -0.6415 -0.1961
vn 0.7416 -0.2626 0.6173
vn 0.0333 0.7778 0.6276
vn -0.7416 0.6415 0.1961
vn -0.7416 0.2626 -0.6173
vn 0.0333 0.0200 -0.9992
vn 0.8082 0.1563 -0.5678
vn 0.8082 0.5352 0.2456
vn 0.0755 0.9039 -0.4211
# 14 vertex normals

vt 0.0000 1.0000 0.0000
vt 0.0000 0.6667 0.0000
vt 0.1667 0.6667 0.0000
vt 0.1667 1.0000 0.0000
vt 0.3333 0.6667 0.0000
vt 0.3333 1.0000 0.0000
vt 0.5000 0.6667 0.0000
vt 0.5000 1.0000 0.0000
vt 0.6667 0.6667 0.0000
vt 0.6667 1.0000 0.0000
vt 0.8333 0.6667 0.0000
vt 0.8333 1.0000 0.0000
vt 1.0000 0.6667 0.0000
vt 0.0000 0.3333 0.0000
vt 0.1667 0.3333 0.0000
vt 0.3333 0.3333 0.0000
vt 0.5000 0.3333 0.0000
vt 0.6667 0.3333 0.0000
vt 0.8333 0.3333 0.0000
vt 1.0000 0.3333 0.0000
vt 0.0000 0.0000 0.0000
vt 0.1667 0.0000 0.0000
vt 0.3333 0.0000 0.0000
vt 0.5000 0.0000 0.0000
vt 0.6667 0.0000 0.0000
vt 0.8333 0.0000 0.0000
# 26 texture coords

o Sphere002
g Sphere002
usemtl Material__25
s 1
f 15/27/15 16/28/16 17/29/17 
f 15/30/15 17/29/17 18/31/18 
f 15/32/15 18/31/18 19/33/19 
f 15/34/15 19/33/19 20/35/20 
f 15/36/15 20/35/20 21/37/21 
f 15/38/15 21/37/21 16/39/16 
f 16/28/16 22/40/22 23/41/23 
f 16/28/16 23/41/23 17/29/17 
f 17/29/17 23/41/23 24/42/24 
f 17/29/17 24/42/24 18/31/18 
f 18/31/18 24/42/24 25/43/25 
f 18/31/18 25/43/25 19/33/19 
f 19/33/19 25/43/25 26/44/26 
f 19/33/19 26/44/26 20/35/20 
f 20/35/20 26/44/26 27/45/27 
f 20/35/20 27/45/27 21/37/21 
f 21/37/21 27/45/27 22/46/22 
f 21/37/21 22/46/22 16/39/16 
f 28/47/28 23/41/23 22/40/22 
f 28/48/28 24/42/24 23/41/23 
f 28/49/28 25/43/25 24/42/24 
f 28/50/28 26/44/26 25/43/25 
f 28/51/28 27/45/27 26/44/26 
f 28/52/28 22/46/22 27/45/27 
# 24 faces

#
# object Sphere003
#

v  77.1461 21.4719 -27.6952
v  78.7898 24.9968 -12.6441
v  86.8728 13.8199 -18.2606
v  78.1107 5.9198 -27.3482
v  64.6125 12.2142 -27.3482
v  65.0322 24.0044 -18.2606
v  70.0186 6.1868 -7.6576
# 7 vertices

vn 0.2721 0.5836 -0.7651
vn 0.3560 0.7635 0.5395
vn 0.9888 -0.1117 0.0997
vn 0.3028 -0.7303 -0.6119
vn -0.7541 -0.2375 -0.6119
vn -0.7212 0.6857 0.0997
vn -0.2721 -0.5836 0.7651
# 7 vertex normals

vt 0.0000 1.0000 0.0000
vt 0.0000 0.6000 0.0000
vt 0.2000 0.6000 0.0000
vt 0.2000 1.0000 0.0000
vt 0.4000 0.6000 0.0000
vt 0.4000 1.0000 0.0000
vt 0.6000 0.6000 0.0000
vt 0.6000 1.0000 0.0000
vt 0.8000 0.6000 0.0000
vt 0.8000 1.0000 0.0000
vt 1.0000 0.6000 0.0000
vt 0.0000 0.2000 0.0000
vt 0.2000 0.2000 0.0000
vt 0.4000 0.2000 0.0000
vt 0.6000 0.2000 0.0000
vt 0.8000 0.2000 0.0000
# 16 texture coords

o Sphere003
g Sphere003
usemtl Material__25
s 1
f 29/53/29 30/54/30 31/55/31 
f 29/56/29 31/55/31 32/57/32 
f 29/58/29 32/57/32 33/59/33 
f 29/60/29 33/59/33 34/61/34 
f 29/62/29 34/61/34 30/63/30 
f 35/64/35 31/55/31 30/54/30 
f 35/65/35 32/57/32 31/55/31 
f 35/66/35 33/59/33 32/57/32 
f 35/67/35 34/61/34 33/59/33 
f 35/68/35 30/63/30 34/61/34 
# 10 faces

#
# object Sphere004
#

v  -59.9524 7.5967 -10.0402
v  -64.5715 7.5967 -19.6319
v  -64.5715 15.0958 -16.0205
v  -64.5715 16.9479 -7.9058
v  -64.5715 11.7583 -1.3983
v  -64.5715 3.4350 -1.3983
v  -64.5715 -1.7546 -7.9058
v  -64.5715 0.0975 -16.0205
v  -74.9506 7.5967 -22.0009
v  -74.9506 16.9479 -17.4975
v  -74.9506 19.2575 -7.3787
v  -74.9506 12.7862 0.7360
v  -74.9506 2.4071 0.7360
v  -74.9506 -4.0641 -7.3787
v  -74.9506 -1.7546 -17.4975
v  -84.4889 7.5967 -10.0402
# 16 vertices

vn 1.0000 0.0000 0.0000
vn 0.5705 0.0000 -0.8213
vn 0.5705 0.6421 -0.5121
vn 0.5705 0.8007 0.1828
vn 0.5705 0.3564 0.7400
vn 0.5705 -0.3564 0.7400
vn 0.5705 -0.8007 0.1828
vn 0.5705 -0.6421 -0.5121
vn -0.2919 0.0000 -0.9565
vn -0.2919 0.7478 -0.5963
vn -0.2919 0.9325 0.2128
vn -0.2919 0.4150 0.8617
vn -0.2919 -0.4150 0.8617
vn -0.2919 -0.9325 0.2128
vn -0.2919 -0.7478 -0.5963
vn -1.0000 -0.0000 -0.0000
# 16 vertex normals

vt 0.0000 1.0000 0.0000
vt 0.0000 0.7143 0.0000
vt 0.1429 0.7143 0.0000
vt 0.1429 1.0000 0.0000
vt 0.2857 0.7143 0.0000
vt 0.2857 1.0000 0.0000
vt 0.4286 0.7143 0.0000
vt 0.4286 1.0000 0.0000
vt 0.5714 0.7143 0.0000
vt 0.5714 1.0000 0.0000
vt 0.7143 0.7143 0.0000
vt 0.7143 1.0000 0.0000
vt 0.8571 0.7143 0.0000
vt 0.8571 1.0000 0.0000
vt 1.0000 0.7143 0.0000
vt 0.0000 0.4286 0.0000
vt 0.1429 0.4286 0.0000
vt 0.2857 0.4286 0.0000
vt 0.4286 0.4286 0.0000
vt 0.5714 0.4286 0.0000
vt 0.7143 0.4286 0.0000
vt 0.8571 0.4286 0.0000
vt 1.0000 0.4286 0.0000
vt 0.0000 0.1429 0.0000
vt 0.1429 0.1429 0.0000
vt 0.2857 0.1429 0.0000
vt 0.4286 0.1429 0.0000
vt 0.5714 0.1429 0.0000
vt 0.7143 0.1429 0.0000
vt 0.8571 0.1429 0.0000
# 30 texture coords

o Sphere004
g Sphere004
usemtl Material__25
s 1
f 36/69/36 37/70/37 38/71/38 
f 36/72/36 38/71/38 39/73/39 
f 36/74/36 39/73/39 40/75/40 
f 36/76/36 40/75/40 41/77/41 
f 36/78/36 41/77/41 42/79/42 
f 36/80/36 42/79/42 43/81/43 
f 36/82/36 43/81/43 37/83/37 
f 37/70/37 44/84/44 45/85/45 
f 37/70/37 45/85/45 38/71/38 
f 38/71/38 45/85/45 46/86/46 
f 38/71/38 46/86/46 39/73/39 
f 39/73/39 46/86/46 47/87/47 
f 39/73/39 47/87/47 40/75/40 
f 40/75/40 47/87/47 48/88/48 
f 40/75/40 48/88/48 41/77/41 
f 41/77/41 48/88/48 49/89/49 
f 41/77/41 49/89/49 42/79/42 
f 42/79/42 49/89/49 50/90/50 
f 42/79/42 50/90/50 43/81/43 
f 43/81/43 50/90/50 44/91/44 
f 43/81/43 44/91/44 37/83/37 
f 51/92/51 45/85/45 44/84/44 
f 51/93/51 46/86/46 45/85/45 
f 51/94/51 47/87/47 46/86/46 
f 51/95/51 48/88/48 47/87/47 
f 51/96/51 49/89/49 48/88/48 
f 51/97/51 50/90/50 49/89/49 
f 51/98/51 44/91/44 50/90/50 
# 28 faces

#
# object Sphere005
#

v  1.6243 12.8148 -14.7831
v  1.6243 4.9723 -4.5295
v  -7.4689 8.8784 -6.5090
v  -9.7147 17.6552 -10.9570
v  -3.4220 24.6938 -14.5239
v  6.6706 24.6938 -14.5239
v  12.9633 17.6552 -10.9570
v  10.7175 8.8784 -6.5090
v  1.6243 8.0992 7.9951
v  -9.7147 12.9700 5.5267
v  -12.5152 23.9146 -0.0199
v  -4.6684 32.6914 -4.4678
v  7.9170 32.6914 -4.4678
v  15.7638 23.9145 -0.0199
v  12.9633 12.9700 5.5267
v  1.6243 26.2642 11.7557
# 16 vertices

vn -0.0000 -0.4520 -0.8920
vn -0.0000 -0.9905 -0.1376
vn -0.6421 -0.7147 -0.2774
vn -0.8007 -0.0949 -0.5915
vn -0.3564 0.4022 -0.8434
vn 0.3564 0.4022 -0.8434
vn 0.8007 -0.0949 -0.5915
vn 0.6421 -0.7147 -0.2774
vn -0.0000 -0.7212 0.6927
vn -0.7478 -0.4000 0.5299
vn -0.9325 0.3218 0.1641
vn -0.4150 0.9006 -0.1292
vn 0.4150 0.9006 -0.1292
vn 0.9325 0.3218 0.1641
vn 0.7478 -0.4000 0.5299
vn 0.0000 0.4520 0.8920
# 16 vertex normals

vt 0.0000 1.0000 0.0000
vt 0.0000 0.7143 0.0000
vt 0.1429 0.7143 0.0000
vt 0.1429 1.0000 0.0000
vt 0.2857 0.7143 0.0000
vt 0.2857 1.0000 0.0000
vt 0.4286 0.7143 0.0000
vt 0.4286 1.0000 0.0000
vt 0.5714 0.7143 0.0000
vt 0.5714 1.0000 0.0000
vt 0.7143 0.7143 0.0000
vt 0.7143 1.0000 0.0000
vt 0.8571 0.7143 0.0000
vt 0.8571 1.0000 0.0000
vt 1.0000 0.7143 0.0000
vt 0.0000 0.4286 0.0000
vt 0.1429 0.4286 0.0000
vt 0.2857 0.4286 0.0000
vt 0.4286 0.4286 0.0000
vt 0.5714 0.4286 0.0000
vt 0.7143 0.4286 0.0000
vt 0.8571 0.4286 0.0000
vt 1.0000 0.4286 0.0000
vt 0.0000 0.1429 0.0000
vt 0.1429 0.1429 0.0000
vt 0.2857 0.1429 0.0000
vt 0.4286 0.1429 0.0000
vt 0.5714 0.1429 0.0000
vt 0.7143 0.1429 0.0000
vt 0.8571 0.1429 0.0000
# 30 texture coords

o Sphere005
g Sphere005
usemtl Material__25
s 1
f 52/99/52 53/100/53 54/101/54 
f 52/102/52 54/101/54 55/103/55 
f 52/104/52 55/103/55 56/105/56 
f 52/106/52 56/105/56 57/107/57 
f 52/108/52 57/107/57 58/109/58 
f 52/110/52 58/109/58 59/111/59 
f 52/112/52 59/111/59 53/113/53 
f 53/100/53 60/114/60 61/115/61 
f 53/100/53 61/115/61 54/101/54 
f 54/101/54 61/115/61 62/116/62 
f 54/101/54 62/116/62 55/103/55 
f 55/103/55 62/116/62 63/117/63 
f 55/103/55 63/117/63 56/105/56 
f 56/105/56 63/117/63 64/118/64 
f 56/105/56 64/118/64 57/107/57 
f 57/107/57 64/118/64 65/119/65 
f 57/107/57 65/119/65 58/109/58 
f 58/109/58 65/119/65 66/120/66 
f 58/109/58 66/120/66 59/111/59 
f 59/111/59 66/120/66 60/121/60 
f 59/111/59 60/121/60 53/113/53 
f 67/122/67 61/115/61 60/114/60 
f 67/123/67 62/116/62 61/115/61 
f 67/124/67 63/117/63 62/116/62 
f 67/125/67 64/118/64 63/117/63 
f 67/126/67 65/119/65 64/118/64 
f 67/127/67 66/120/66 65/119/65 
f 67/128/67 60/121/60 66/120/66 
# 28 faces

#
# object Sphere006
#

v  88.3909 3.6071 -2.4493
v  90.8399 5.0033 -8.3031
v  93.1066 1.0274 -6.0991
v  93.6665 0.0454 -1.1467
v  92.0979 2.7968 2.8248
v  89.5820 7.2098 2.8248
v  88.0134 9.9612 -1.1467
v  88.5733 8.9793 -6.0991
v  96.3428 8.1405 -9.7489
v  99.1693 3.1826 -7.0005
v  99.8674 1.9581 -0.8250
v  97.9114 5.3891 4.1274
v  94.7742 10.8919 4.1274
v  92.8182 14.3229 -0.8250
v  93.5163 13.0984 -7.0005
v  101.3999 11.0236 -2.4493
# 16 vertices

vn -0.8687 -0.4953 0.0000
vn -0.4956 -0.2825 -0.8213
vn -0.1776 -0.8404 -0.5121
vn -0.0990 -0.9782 0.1828
vn -0.3191 -0.5921 0.7400
vn -0.6721 0.0271 0.7400
vn -0.8922 0.4131 0.1828
vn -0.8136 0.2753 -0.5121
vn 0.2536 0.1446 -0.9565
vn 0.6239 -0.5051 -0.5963
vn 0.7154 -0.6655 0.2128
vn 0.4591 -0.2160 0.8617
vn 0.0480 0.5051 0.8617
vn -0.2083 0.9546 0.2128
vn -0.1168 0.7942 -0.5963
vn 0.8687 0.4953 -0.0000
# 16 vertex normals

vt 0.0000 1.0000 0.0000
vt 0.0000 0.7143 0.0000
vt 0.1429 0.7143 0.0000
vt 0.1429 1.0000 0.0000
vt 0.2857 0.7143 0.0000
vt 0.2857 1.0000 0.0000
vt 0.4286 0.7143 0.0000
vt 0.4286 1.0000 0.0000
vt 0.5714 0.7143 0.0000
vt 0.5714 1.0000 0.0000
vt 0.7143 0.7143 0.0000
vt 0.7143 1.0000 0.0000
vt 0.8571 0.7143 0.0000
vt 0.8571 1.0000 0.0000
vt 1.0000 0.7143 0.0000
vt 0.0000 0.4286 0.0000
vt 0.1429 0.4286 0.0000
vt 0.2857 0.4286 0.0000
vt 0.4286 0.4286 0.0000
vt 0.5714 0.4286 0.0000
vt 0.7143 0.4286 0.0000
vt 0.8571 0.4286 0.0000
vt 1.0000 0.4286 0.0000
vt 0.0000 0.1429 0.0000
vt 0.1429 0.1429 0.0000
vt 0.2857 0.1429 0.0000
vt 0.4286 0.1429 0.0000
vt 0.5714 0.1429 0.0000
vt 0.7143 0.1429 0.0000
vt 0.8571 0.1429 0.0000
# 30 texture coords

o Sphere006
g Sphere006
usemtl Material__25
s 1
f 68/129/68 69/130/69 70/131/70 
f 68/132/68 70/131/70 71/133/71 
f 68/134/68 71/133/71 72/135/72 
f 68/136/68 72/135/72 73/137/73 
f 68/138/68 73/137/73 74/139/74 
f 68/140/68 74/139/74 75/141/75 
f 68/142/68 75/141/75 69/143/69 
f 69/130/69 76/144/76 77/145/77 
f 69/130/69 77/145/77 70/131/70 
f 70/131/70 77/145/77 78/146/78 
f 70/131/70 78/146/78 71/133/71 
f 71/133/71 78/146/78 79/147/79 
f 71/133/71 79/147/79 72/135/72 
f 72/135/72 79/147/79 80/148/80 
f 72/135/72 80/148/80 73/137/73 
f 73/137/73 80/148/80 81/149/81 
f 73/137/73 81/149/81 74/139/74 
f 74/139/74 81/149/81 82/150/82 
f 74/139/74 82/150/82 75/141/75 
f 75/141/75 82/150/82 76/151/76 
f 75/141/75 76/151/76 69/143/69 
f 83/152/83 77/145/77 76/144/76 
f 83/153/83 78/146/78 77/145/77 
f 83/154/83 79/147/79 78/146/78 
f 83/155/83 80/148/80 79/147/79 
f 83/156/83 81/149/81 80/148/80 
f 83/157/83 82/150/82 81/149/81 
f 83/158/83 76/151/76 82/150/82 
# 28 faces

#
# object Sphere007
#

v  5.9697 15.0530 -101.6800
v  -4.6504 21.5748 -92.3880
v  7.8488 16.2592 -86.2791
v  10.9981 3.2569 -92.8207
v  0.4452 0.5366 -102.9726
v  -9.2260 11.8576 -102.7051
v  -8.1741 2.4450 -83.5988
# 7 vertices

vn 0.5400 0.4814 -0.6904
vn -0.3805 0.9128 0.1510
vn 0.5981 0.4965 0.6292
vn 0.8448 -0.5216 0.1170
vn 0.0185 -0.7346 -0.6778
vn -0.7387 0.1519 -0.6568
vn -0.5400 -0.4814 0.6904
# 7 vertex normals

vt 0.0000 1.0000 0.0000
vt 0.0000 0.6000 0.0000
vt 0.2000 0.6000 0.0000
vt 0.2000 1.0000 0.0000
vt 0.4000 0.6000 0.0000
vt 0.4000 1.0000 0.0000
vt 0.6000 0.6000 0.0000
vt 0.6000 1.0000 0.0000
vt 0.8000 0.6000 0.0000
vt 0.8000 1.0000 0.0000
vt 1.0000 0.6000 0.0000
vt 0.0000 0.2000 0.0000
vt 0.2000 0.2000 0.0000
vt 0.4000 0.2000 0.0000
vt 0.6000 0.2000 0.0000
vt 0.8000 0.2000 0.0000
# 16 texture coords

o Sphere007
g Sphere007
usemtl Material__25
s 1
f 84/159/84 85/160/85 86/161/86 
f 84/162/84 86/161/86 87/163/87 
f 84/164/84 87/163/87 88/165/88 
f 84/166/84 88/165/88 89/167/89 
f 84/168/84 89/167/89 85/169/85 
f 90/170/90 86/161/86 85/160/85 
f 90/171/90 87/163/87 86/161/86 
f 90/172/90 88/165/88 87/163/87 
f 90/173/90 89/167/89 88/165/88 
f 90/174/90 85/169/85 89/167/89 
# 10 faces

#
# object Sphere008
#

v  37.8811 -2.4394 52.4941
v  49.6779 -0.8748 60.6194
v  38.8486 1.6881 66.2659
v  29.4589 6.7173 59.7644
v  30.8986 9.1835 47.6165
v  41.7280 6.6205 41.9701
v  51.1177 1.5914 48.4715
v  54.4924 12.3126 63.8672
v  43.6630 14.8756 69.5137
v  34.2734 19.9047 63.0122
v  35.7131 22.3709 50.8643
v  46.5424 19.8079 45.2179
v  55.9321 14.7788 51.7193
v  47.5099 23.9355 58.9897
# 14 vertices

vn -0.3341 -0.9152 -0.2254
vn 0.5277 -0.7655 0.3680
vn -0.2510 -0.5812 0.7741
vn -0.9262 -0.2196 0.3066
vn -0.8226 -0.0423 -0.5670
vn -0.0439 -0.2266 -0.9730
vn 0.6313 -0.5882 -0.5055
vn 0.8226 0.0423 0.5670
vn 0.0439 0.2266 0.9730
vn -0.6313 0.5882 0.5055
vn -0.5277 0.7655 -0.3680
vn 0.2510 0.5812 -0.7741
vn 0.9262 0.2196 -0.3066
vn 0.3341 0.9152 0.2254
# 14 vertex normals

vt 0.0000 1.0000 0.0000
vt 0.0000 0.6667 0.0000
vt 0.1667 0.6667 0.0000
vt 0.1667 1.0000 0.0000
vt 0.3333 0.6667 0.0000
vt 0.3333 1.0000 0.0000
vt 0.5000 0.6667 0.0000
vt 0.5000 1.0000 0.0000
vt 0.6667 0.6667 0.0000
vt 0.6667 1.0000 0.0000
vt 0.8333 0.6667 0.0000
vt 0.8333 1.0000 0.0000
vt 1.0000 0.6667 0.0000
vt 0.0000 0.3333 0.0000
vt 0.1667 0.3333 0.0000
vt 0.3333 0.3333 0.0000
vt 0.5000 0.3333 0.0000
vt 0.6667 0.3333 0.0000
vt 0.8333 0.3333 0.0000
vt 1.0000 0.3333 0.0000
vt 0.0000 0.0000 0.0000
vt 0.1667 0.0000 0.0000
vt 0.3333 0.0000 0.0000
vt 0.5000 0.0000 0.0000
vt 0.6667 0.0000 0.0000
vt 0.8333 0.0000 0.0000
# 26 texture coords

o Sphere008
g Sphere008
usemtl Material__25
s 1
f 91/175/91 92/176/92 93/177/93 
f 91/178/91 93/177/93 94/179/94 
f 91/180/91 94/179/94 95/181/95 
f 91/182/91 95/181/95 96/183/96 
f 91/184/91 96/183/96 97/185/97 
f 91/186/91 97/185/97 92/187/92 
f 92/176/92 98/188/98 99/189/99 
f 92/176/92 99/189/99 93/177/93 
f 93/177/93 99/189/99 100/190/100 
f 93/177/93 100/190/100 94/179/94 
f 94/179/94 100/190/100 101/191/101 
f 94/179/94 101/191/101 95/181/95 
f 95/181/95 101/191/101 102/192/102 
f 95/181/95 102/192/102 96/183/96 
f 96/183/96 102/192/102 103/193/103 
f 96/183/96 103/193/103 97/185/97 
f 97/185/97 103/193/103 98/194/98 
f 97/185/97 98/194/98 92/187/92 
f 104/195/104 99/189/99 98/188/98 
f 104/196/104 100/190/100 99/189/99 
f 104/197/104 101/191/101 100/190/100 
f 104/198/104 102/192/102 101/191/101 
f 104/199/104 103/193/103 102/192/102 
f 104/200/104 98/194/98 103/193/103 
# 24 faces

