# 3ds Max Wavefront OBJ Exporter v0.97b - (c)2007 guruware
# File Created: 26.03.2019 17:42:58

mtllib stone6.mtl

#
# object Sphere001
#

v  -95.6264 12.4571 9.9145
v  -89.5925 16.3942 -2.5646
v  -83.6868 7.3434 3.6750
v  -83.6868 7.3434 16.1540
v  -89.5925 16.3942 22.3935
v  -95.4983 25.4450 16.1540
v  -95.4983 25.4450 3.6750
v  -77.5248 24.2686 -2.5646
v  -71.6191 15.2178 3.6750
v  -71.6191 15.2178 16.1540
v  -77.5248 24.2686 22.3935
v  -83.4306 33.3194 16.1540
v  -83.4306 33.3194 3.6750
v  -71.4910 28.2058 9.9145
# 14 vertices

vn -0.8375 -0.5465 -0.0000
vn -0.3696 -0.2412 -0.8973
vn 0.0551 -0.8920 -0.4487
vn 0.0551 -0.8920 0.4487
vn -0.3696 -0.2412 0.8973
vn -0.7943 0.4097 0.4487
vn -0.7943 0.4097 -0.4487
vn 0.3696 0.2412 -0.8973
vn 0.7943 -0.4097 -0.4487
vn 0.7943 -0.4097 0.4487
vn 0.3696 0.2412 0.8973
vn -0.0551 0.8920 0.4487
vn -0.0551 0.8920 -0.4487
vn 0.8375 0.5465 -0.0000
# 14 vertex normals

vt 0.0000 1.0000 0.0000
vt 0.0000 0.6667 0.0000
vt 0.1667 0.6667 0.0000
vt 0.1667 1.0000 0.0000
vt 0.3333 0.6667 0.0000
vt 0.3333 1.0000 0.0000
vt 0.5000 0.6667 0.0000
vt 0.5000 1.0000 0.0000
vt 0.6667 0.6667 0.0000
vt 0.6667 1.0000 0.0000
vt 0.8333 0.6667 0.0000
vt 0.8333 1.0000 0.0000
vt 1.0000 0.6667 0.0000
vt 0.0000 0.3333 0.0000
vt 0.1667 0.3333 0.0000
vt 0.3333 0.3333 0.0000
vt 0.5000 0.3333 0.0000
vt 0.6667 0.3333 0.0000
vt 0.8333 0.3333 0.0000
vt 1.0000 0.3333 0.0000
vt 0.0000 0.0000 0.0000
vt 0.1667 0.0000 0.0000
vt 0.3333 0.0000 0.0000
vt 0.5000 0.0000 0.0000
vt 0.6667 0.0000 0.0000
vt 0.8333 0.0000 0.0000
# 26 texture coords

o Sphere001
g Sphere001
usemtl Material__25
s 1
f 1/1/1 2/2/2 3/3/3 
f 1/4/1 3/3/3 4/5/4 
f 1/6/1 4/5/4 5/7/5 
f 1/8/1 5/7/5 6/9/6 
f 1/10/1 6/9/6 7/11/7 
f 1/12/1 7/11/7 2/13/2 
f 2/2/2 8/14/8 9/15/9 
f 2/2/2 9/15/9 3/3/3 
f 3/3/3 9/15/9 10/16/10 
f 3/3/3 10/16/10 4/5/4 
f 4/5/4 10/16/10 11/17/11 
f 4/5/4 11/17/11 5/7/5 
f 5/7/5 11/17/11 12/18/12 
f 5/7/5 12/18/12 6/9/6 
f 6/9/6 12/18/12 13/19/13 
f 6/9/6 13/19/13 7/11/7 
f 7/11/7 13/19/13 8/20/8 
f 7/11/7 8/20/8 2/13/2 
f 14/21/14 9/15/9 8/14/8 
f 14/22/14 10/16/10 9/15/9 
f 14/23/14 11/17/11 10/16/10 
f 14/24/14 12/18/12 11/17/11 
f 14/25/14 13/19/13 12/18/12 
f 14/26/14 8/20/8 13/19/13 
# 24 faces

#
# object Sphere002
#

v  6.0652 4.1835 86.5878
v  6.3408 9.2146 91.4189
v  1.1259 8.7739 88.3930
v  1.1325 7.0828 82.5891
v  6.3540 5.8325 79.8110
v  11.5690 6.2732 82.8368
v  11.5624 7.9642 88.6408
v  6.9052 15.8947 89.4732
v  1.6903 15.4540 86.4473
v  1.6969 13.7629 80.6434
v  6.9185 12.5126 77.8653
v  12.1334 12.9533 80.8912
v  12.1268 14.6443 86.6951
v  7.1941 17.5437 82.6964
# 14 vertices

vn -0.0809 -0.9570 0.2787
vn -0.0367 -0.1713 0.9845
vn -0.8108 -0.2367 0.5354
vn -0.8098 -0.4878 -0.3261
vn -0.0347 -0.6734 -0.7385
vn 0.7394 -0.6079 -0.2894
vn 0.7384 -0.3569 0.5722
vn 0.0347 0.6734 0.7385
vn -0.7394 0.6079 0.2894
vn -0.7384 0.3569 -0.5722
vn 0.0367 0.1713 -0.9845
vn 0.8108 0.2367 -0.5354
vn 0.8098 0.4878 0.3261
vn 0.0809 0.9570 -0.2787
# 14 vertex normals

vt 0.0000 1.0000 0.0000
vt 0.0000 0.6667 0.0000
vt 0.1667 0.6667 0.0000
vt 0.1667 1.0000 0.0000
vt 0.3333 0.6667 0.0000
vt 0.3333 1.0000 0.0000
vt 0.5000 0.6667 0.0000
vt 0.5000 1.0000 0.0000
vt 0.6667 0.6667 0.0000
vt 0.6667 1.0000 0.0000
vt 0.8333 0.6667 0.0000
vt 0.8333 1.0000 0.0000
vt 1.0000 0.6667 0.0000
vt 0.0000 0.3333 0.0000
vt 0.1667 0.3333 0.0000
vt 0.3333 0.3333 0.0000
vt 0.5000 0.3333 0.0000
vt 0.6667 0.3333 0.0000
vt 0.8333 0.3333 0.0000
vt 1.0000 0.3333 0.0000
vt 0.0000 0.0000 0.0000
vt 0.1667 0.0000 0.0000
vt 0.3333 0.0000 0.0000
vt 0.5000 0.0000 0.0000
vt 0.6667 0.0000 0.0000
vt 0.8333 0.0000 0.0000
# 26 texture coords

o Sphere002
g Sphere002
usemtl Material__25
s 1
f 15/27/15 16/28/16 17/29/17 
f 15/30/15 17/29/17 18/31/18 
f 15/32/15 18/31/18 19/33/19 
f 15/34/15 19/33/19 20/35/20 
f 15/36/15 20/35/20 21/37/21 
f 15/38/15 21/37/21 16/39/16 
f 16/28/16 22/40/22 23/41/23 
f 16/28/16 23/41/23 17/29/17 
f 17/29/17 23/41/23 24/42/24 
f 17/29/17 24/42/24 18/31/18 
f 18/31/18 24/42/24 25/43/25 
f 18/31/18 25/43/25 19/33/19 
f 19/33/19 25/43/25 26/44/26 
f 19/33/19 26/44/26 20/35/20 
f 20/35/20 26/44/26 27/45/27 
f 20/35/20 27/45/27 21/37/21 
f 21/37/21 27/45/27 22/46/22 
f 21/37/21 22/46/22 16/39/16 
f 28/47/28 23/41/23 22/40/22 
f 28/48/28 24/42/24 23/41/23 
f 28/49/28 25/43/25 24/42/24 
f 28/50/28 26/44/26 25/43/25 
f 28/51/28 27/45/27 26/44/26 
f 28/52/28 22/46/22 27/45/27 
# 24 faces

#
# object Sphere003
#

v  68.1959 43.6902 -20.8780
v  67.7725 47.5564 -5.8269
v  80.4810 42.1944 -11.4434
v  77.0886 30.8950 -20.5310
v  62.2834 29.2735 -20.5310
v  56.5257 39.5709 -11.4434
v  70.0320 26.9252 -0.8404
# 7 vertices

vn -0.0701 0.6401 -0.7651
vn -0.0917 0.8374 0.5395
vn 0.9033 0.4175 0.0997
vn 0.6377 -0.4673 -0.6119
vn -0.5215 -0.5942 -0.6119
vn -0.9723 0.2121 0.0997
vn 0.0701 -0.6401 0.7651
# 7 vertex normals

vt 0.0000 1.0000 0.0000
vt 0.0000 0.6000 0.0000
vt 0.2000 0.6000 0.0000
vt 0.2000 1.0000 0.0000
vt 0.4000 0.6000 0.0000
vt 0.4000 1.0000 0.0000
vt 0.6000 0.6000 0.0000
vt 0.6000 1.0000 0.0000
vt 0.8000 0.6000 0.0000
vt 0.8000 1.0000 0.0000
vt 1.0000 0.6000 0.0000
vt 0.0000 0.2000 0.0000
vt 0.2000 0.2000 0.0000
vt 0.4000 0.2000 0.0000
vt 0.6000 0.2000 0.0000
vt 0.8000 0.2000 0.0000
# 16 texture coords

o Sphere003
g Sphere003
usemtl Material__25
s 1
f 29/53/29 30/54/30 31/55/31 
f 29/56/29 31/55/31 32/57/32 
f 29/58/29 32/57/32 33/59/33 
f 29/60/29 33/59/33 34/61/34 
f 29/62/29 34/61/34 30/63/30 
f 35/64/35 31/55/31 30/54/30 
f 35/65/35 32/57/32 31/55/31 
f 35/66/35 33/59/33 32/57/32 
f 35/67/35 34/61/34 33/59/33 
f 35/68/35 30/63/30 34/61/34 
# 10 faces

#
# object Sphere004
#

v  -53.0556 13.8453 -10.0402
v  -57.6210 14.5479 -19.6319
v  -56.4802 21.9598 -16.0205
v  -56.1985 23.7903 -7.9058
v  -56.9879 18.6612 -1.3983
v  -58.2541 10.4347 -1.3983
v  -59.0436 5.3055 -7.9058
v  -58.7618 7.1361 -16.0205
v  -67.8793 16.1268 -22.0009
v  -66.4568 25.3692 -17.4975
v  -66.1054 27.6519 -7.3787
v  -67.0899 21.2560 0.7360
v  -68.6688 10.9977 0.7360
v  -69.6532 4.6017 -7.3787
v  -69.3019 6.8844 -17.4975
v  -77.3066 17.5778 -10.0402
# 16 vertices

vn 0.9884 -0.1521 0.0000
vn 0.5638 -0.0868 -0.8213
vn 0.6615 0.5479 -0.5121
vn 0.6856 0.7046 0.1828
vn 0.6180 0.2654 0.7400
vn 0.5096 -0.4390 0.7400
vn 0.4420 -0.8782 0.1828
vn 0.4661 -0.7214 -0.5121
vn -0.2885 0.0444 -0.9565
vn -0.1747 0.7835 -0.5963
vn -0.1466 0.9660 0.2128
vn -0.2253 0.4546 0.8617
vn -0.3516 -0.3658 0.8617
vn -0.4303 -0.8772 0.2128
vn -0.4022 -0.6947 -0.5963
vn -0.9884 0.1521 -0.0000
# 16 vertex normals

vt 0.0000 1.0000 0.0000
vt 0.0000 0.7143 0.0000
vt 0.1429 0.7143 0.0000
vt 0.1429 1.0000 0.0000
vt 0.2857 0.7143 0.0000
vt 0.2857 1.0000 0.0000
vt 0.4286 0.7143 0.0000
vt 0.4286 1.0000 0.0000
vt 0.5714 0.7143 0.0000
vt 0.5714 1.0000 0.0000
vt 0.7143 0.7143 0.0000
vt 0.7143 1.0000 0.0000
vt 0.8571 0.7143 0.0000
vt 0.8571 1.0000 0.0000
vt 1.0000 0.7143 0.0000
vt 0.0000 0.4286 0.0000
vt 0.1429 0.4286 0.0000
vt 0.2857 0.4286 0.0000
vt 0.4286 0.4286 0.0000
vt 0.5714 0.4286 0.0000
vt 0.7143 0.4286 0.0000
vt 0.8571 0.4286 0.0000
vt 1.0000 0.4286 0.0000
vt 0.0000 0.1429 0.0000
vt 0.1429 0.1429 0.0000
vt 0.2857 0.1429 0.0000
vt 0.4286 0.1429 0.0000
vt 0.5714 0.1429 0.0000
vt 0.7143 0.1429 0.0000
vt 0.8571 0.1429 0.0000
# 30 texture coords

o Sphere004
g Sphere004
usemtl Material__25
s 1
f 36/69/36 37/70/37 38/71/38 
f 36/72/36 38/71/38 39/73/39 
f 36/74/36 39/73/39 40/75/40 
f 36/76/36 40/75/40 41/77/41 
f 36/78/36 41/77/41 42/79/42 
f 36/80/36 42/79/42 43/81/43 
f 36/82/36 43/81/43 37/83/37 
f 37/70/37 44/84/44 45/85/45 
f 37/70/37 45/85/45 38/71/38 
f 38/71/38 45/85/45 46/86/46 
f 38/71/38 46/86/46 39/73/39 
f 39/73/39 46/86/46 47/87/47 
f 39/73/39 47/87/47 40/75/40 
f 40/75/40 47/87/47 48/88/48 
f 40/75/40 48/88/48 41/77/41 
f 41/77/41 48/88/48 49/89/49 
f 41/77/41 49/89/49 42/79/42 
f 42/79/42 49/89/49 50/90/50 
f 42/79/42 50/90/50 43/81/43 
f 43/81/43 50/90/50 44/91/44 
f 43/81/43 44/91/44 37/83/37 
f 51/92/51 45/85/45 44/84/44 
f 51/93/51 46/86/46 45/85/45 
f 51/94/51 47/87/47 46/86/46 
f 51/95/51 48/88/48 47/87/47 
f 51/96/51 49/89/49 48/88/48 
f 51/97/51 50/90/50 49/89/49 
f 51/98/51 44/91/44 50/90/50 
# 28 faces

#
# object Sphere005
#

v  1.6243 42.3507 1.8643
v  1.6243 50.4464 11.9192
v  -7.4689 49.4520 7.6546
v  -9.7147 47.2177 -1.9280
v  -3.4220 45.4259 -9.6126
v  6.6706 45.4259 -9.6126
v  12.9633 47.2177 -1.9280
v  10.7175 49.4520 7.6546
v  1.6243 63.3552 11.8589
v  -9.7147 62.1153 6.5409
v  -12.5152 59.3291 -5.4083
v  -4.6684 57.0947 -14.9909
v  7.9170 57.0947 -14.9909
v  15.7638 59.3291 -5.4083
v  12.9633 62.1153 6.5409
v  1.6243 71.3256 -4.8917
# 16 vertices

vn -0.0000 -0.9739 0.2271
vn -0.0000 -0.3691 0.9294
vn -0.6421 -0.4393 0.6282
vn -0.8007 -0.5971 -0.0484
vn -0.3564 -0.7236 -0.5911
vn 0.3564 -0.7236 -0.5911
vn 0.8007 -0.5971 -0.0484
vn 0.6421 -0.4393 0.6282
vn -0.0000 0.5014 0.8652
vn -0.7478 0.4197 0.5145
vn -0.9325 0.2359 -0.2735
vn -0.4150 0.0886 -0.9055
vn 0.4150 0.0886 -0.9055
vn 0.9325 0.2359 -0.2735
vn 0.7478 0.4197 0.5145
vn 0.0000 0.9739 -0.2271
# 16 vertex normals

vt 0.0000 1.0000 0.0000
vt 0.0000 0.7143 0.0000
vt 0.1429 0.7143 0.0000
vt 0.1429 1.0000 0.0000
vt 0.2857 0.7143 0.0000
vt 0.2857 1.0000 0.0000
vt 0.4286 0.7143 0.0000
vt 0.4286 1.0000 0.0000
vt 0.5714 0.7143 0.0000
vt 0.5714 1.0000 0.0000
vt 0.7143 0.7143 0.0000
vt 0.7143 1.0000 0.0000
vt 0.8571 0.7143 0.0000
vt 0.8571 1.0000 0.0000
vt 1.0000 0.7143 0.0000
vt 0.0000 0.4286 0.0000
vt 0.1429 0.4286 0.0000
vt 0.2857 0.4286 0.0000
vt 0.4286 0.4286 0.0000
vt 0.5714 0.4286 0.0000
vt 0.7143 0.4286 0.0000
vt 0.8571 0.4286 0.0000
vt 1.0000 0.4286 0.0000
vt 0.0000 0.1429 0.0000
vt 0.1429 0.1429 0.0000
vt 0.2857 0.1429 0.0000
vt 0.4286 0.1429 0.0000
vt 0.5714 0.1429 0.0000
vt 0.7143 0.1429 0.0000
vt 0.8571 0.1429 0.0000
# 30 texture coords

o Sphere005
g Sphere005
usemtl Material__25
s 1
f 52/99/52 53/100/53 54/101/54 
f 52/102/52 54/101/54 55/103/55 
f 52/104/52 55/103/55 56/105/56 
f 52/106/52 56/105/56 57/107/57 
f 52/108/52 57/107/57 58/109/58 
f 52/110/52 58/109/58 59/111/59 
f 52/112/52 59/111/59 53/113/53 
f 53/100/53 60/114/60 61/115/61 
f 53/100/53 61/115/61 54/101/54 
f 54/101/54 61/115/61 62/116/62 
f 54/101/54 62/116/62 55/103/55 
f 55/103/55 62/116/62 63/117/63 
f 55/103/55 63/117/63 56/105/56 
f 56/105/56 63/117/63 64/118/64 
f 56/105/56 64/118/64 57/107/57 
f 57/107/57 64/118/64 65/119/65 
f 57/107/57 65/119/65 58/109/58 
f 58/109/58 65/119/65 66/120/66 
f 58/109/58 66/120/66 59/111/59 
f 59/111/59 66/120/66 60/121/60 
f 59/111/59 60/121/60 53/113/53 
f 67/122/67 61/115/61 60/114/60 
f 67/123/67 62/116/62 61/115/61 
f 67/124/67 63/117/63 62/116/62 
f 67/125/67 64/118/64 63/117/63 
f 67/126/67 65/119/65 64/118/64 
f 67/127/67 66/120/66 65/119/65 
f 67/128/67 60/121/60 66/120/66 
# 28 faces

#
# object Sphere006
#

v  85.6590 8.7277 -2.4493
v  86.3589 11.4585 -8.3031
v  90.7923 10.3222 -6.0991
v  91.8872 10.0416 -1.1467
v  88.8192 10.8279 2.8248
v  83.8985 12.0890 2.8248
v  80.8305 12.8753 -1.1467
v  81.9255 12.5947 -6.0991
v  87.9315 17.5945 -9.7489
v  93.4598 16.1776 -7.0005
v  94.8252 15.8277 -0.8250
v  90.9995 16.8082 4.1274
v  84.8635 18.3808 4.1274
v  81.0378 19.3613 -0.8250
v  82.4031 19.0113 -7.0005
v  89.3767 23.2334 -2.4493
# 16 vertices

vn -0.2483 -0.9687 0.0000
vn -0.1416 -0.5526 -0.8213
vn 0.4804 -0.7120 -0.5121
vn 0.6340 -0.7514 0.1828
vn 0.2036 -0.6411 0.7400
vn -0.4868 -0.4641 0.7400
vn -0.9173 -0.3538 0.1828
vn -0.7637 -0.3932 -0.5121
vn 0.0725 0.2827 -0.9565
vn 0.7968 0.0971 -0.5963
vn 0.9757 0.0512 0.2128
vn 0.4745 0.1797 0.8617
vn -0.3295 0.3858 0.8617
vn -0.8308 0.5142 0.2128
vn -0.6519 0.4684 -0.5963
vn 0.2483 0.9687 -0.0000
# 16 vertex normals

vt 0.0000 1.0000 0.0000
vt 0.0000 0.7143 0.0000
vt 0.1429 0.7143 0.0000
vt 0.1429 1.0000 0.0000
vt 0.2857 0.7143 0.0000
vt 0.2857 1.0000 0.0000
vt 0.4286 0.7143 0.0000
vt 0.4286 1.0000 0.0000
vt 0.5714 0.7143 0.0000
vt 0.5714 1.0000 0.0000
vt 0.7143 0.7143 0.0000
vt 0.7143 1.0000 0.0000
vt 0.8571 0.7143 0.0000
vt 0.8571 1.0000 0.0000
vt 1.0000 0.7143 0.0000
vt 0.0000 0.4286 0.0000
vt 0.1429 0.4286 0.0000
vt 0.2857 0.4286 0.0000
vt 0.4286 0.4286 0.0000
vt 0.5714 0.4286 0.0000
vt 0.7143 0.4286 0.0000
vt 0.8571 0.4286 0.0000
vt 1.0000 0.4286 0.0000
vt 0.0000 0.1429 0.0000
vt 0.1429 0.1429 0.0000
vt 0.2857 0.1429 0.0000
vt 0.4286 0.1429 0.0000
vt 0.5714 0.1429 0.0000
vt 0.7143 0.1429 0.0000
vt 0.8571 0.1429 0.0000
# 30 texture coords

o Sphere006
g Sphere006
usemtl Material__25
s 1
f 68/129/68 69/130/69 70/131/70 
f 68/132/68 70/131/70 71/133/71 
f 68/134/68 71/133/71 72/135/72 
f 68/136/68 72/135/72 73/137/73 
f 68/138/68 73/137/73 74/139/74 
f 68/140/68 74/139/74 75/141/75 
f 68/142/68 75/141/75 69/143/69 
f 69/130/69 76/144/76 77/145/77 
f 69/130/69 77/145/77 70/131/70 
f 70/131/70 77/145/77 78/146/78 
f 70/131/70 78/146/78 71/133/71 
f 71/133/71 78/146/78 79/147/79 
f 71/133/71 79/147/79 72/135/72 
f 72/135/72 79/147/79 80/148/80 
f 72/135/72 80/148/80 73/137/73 
f 73/137/73 80/148/80 81/149/81 
f 73/137/73 81/149/81 74/139/74 
f 74/139/74 81/149/81 82/150/82 
f 74/139/74 82/150/82 75/141/75 
f 75/141/75 82/150/82 76/151/76 
f 75/141/75 76/151/76 69/143/69 
f 83/152/83 77/145/77 76/144/76 
f 83/153/83 78/146/78 77/145/77 
f 83/154/83 79/147/79 78/146/78 
f 83/155/83 80/148/80 79/147/79 
f 83/156/83 81/149/81 80/148/80 
f 83/157/83 82/150/82 81/149/81 
f 83/158/83 76/151/76 82/150/82 
# 28 faces

#
# object Sphere007
#

v  6.1385 17.9827 -100.9558
v  -4.4487 24.8106 -91.8481
v  7.9170 19.3926 -85.5603
v  10.9107 6.2448 -91.8804
v  0.3951 3.5370 -102.0742
v  -9.0976 15.0113 -102.0542
v  -8.3429 5.8740 -82.8008
# 7 vertices

vn 0.5529 0.4623 -0.6932
vn -0.3672 0.9208 0.1342
vn 0.6010 0.4965 0.6265
vn 0.8355 -0.5330 0.1316
vn 0.0122 -0.7450 -0.6665
vn -0.7311 0.1535 -0.6649
vn -0.5529 -0.4623 0.6932
# 7 vertex normals

vt 0.0000 1.0000 0.0000
vt 0.0000 0.6000 0.0000
vt 0.2000 0.6000 0.0000
vt 0.2000 1.0000 0.0000
vt 0.4000 0.6000 0.0000
vt 0.4000 1.0000 0.0000
vt 0.6000 0.6000 0.0000
vt 0.6000 1.0000 0.0000
vt 0.8000 0.6000 0.0000
vt 0.8000 1.0000 0.0000
vt 1.0000 0.6000 0.0000
vt 0.0000 0.2000 0.0000
vt 0.2000 0.2000 0.0000
vt 0.4000 0.2000 0.0000
vt 0.6000 0.2000 0.0000
vt 0.8000 0.2000 0.0000
# 16 texture coords

o Sphere007
g Sphere007
usemtl Material__25
s 1
f 84/159/84 85/160/85 86/161/86 
f 84/162/84 86/161/86 87/163/87 
f 84/164/84 87/163/87 88/165/88 
f 84/166/84 88/165/88 89/167/89 
f 84/168/84 89/167/89 85/169/85 
f 90/170/90 86/161/86 85/160/85 
f 90/171/90 87/163/87 86/161/86 
f 90/172/90 88/165/88 87/163/87 
f 90/173/90 89/167/89 88/165/88 
f 90/174/90 85/169/85 89/167/89 
# 10 faces

#
# object Sphere008
#

v  32.4742 -2.4394 44.6714
v  44.2711 -0.8748 52.7968
v  33.4417 1.6881 58.4432
v  24.0521 6.7173 51.9418
v  25.4918 9.1835 39.7939
v  36.3212 6.6205 34.1474
v  45.7108 1.5914 40.6488
v  49.0855 12.3126 56.0446
v  38.2562 14.8756 61.6910
v  28.8665 19.9047 55.1896
v  30.3062 22.3709 43.0417
v  41.1356 19.8079 37.3952
v  50.5252 14.7788 43.8967
v  42.1031 23.9355 51.1670
# 14 vertices

vn -0.3341 -0.9152 -0.2254
vn 0.5277 -0.7655 0.3680
vn -0.2510 -0.5812 0.7741
vn -0.9262 -0.2196 0.3066
vn -0.8226 -0.0423 -0.5670
vn -0.0439 -0.2266 -0.9730
vn 0.6313 -0.5882 -0.5055
vn 0.8226 0.0423 0.5670
vn 0.0439 0.2266 0.9730
vn -0.6313 0.5882 0.5055
vn -0.5277 0.7655 -0.3680
vn 0.2510 0.5812 -0.7741
vn 0.9262 0.2196 -0.3066
vn 0.3341 0.9152 0.2254
# 14 vertex normals

vt 0.0000 1.0000 0.0000
vt 0.0000 0.6667 0.0000
vt 0.1667 0.6667 0.0000
vt 0.1667 1.0000 0.0000
vt 0.3333 0.6667 0.0000
vt 0.3333 1.0000 0.0000
vt 0.5000 0.6667 0.0000
vt 0.5000 1.0000 0.0000
vt 0.6667 0.6667 0.0000
vt 0.6667 1.0000 0.0000
vt 0.8333 0.6667 0.0000
vt 0.8333 1.0000 0.0000
vt 1.0000 0.6667 0.0000
vt 0.0000 0.3333 0.0000
vt 0.1667 0.3333 0.0000
vt 0.3333 0.3333 0.0000
vt 0.5000 0.3333 0.0000
vt 0.6667 0.3333 0.0000
vt 0.8333 0.3333 0.0000
vt 1.0000 0.3333 0.0000
vt 0.0000 0.0000 0.0000
vt 0.1667 0.0000 0.0000
vt 0.3333 0.0000 0.0000
vt 0.5000 0.0000 0.0000
vt 0.6667 0.0000 0.0000
vt 0.8333 0.0000 0.0000
# 26 texture coords

o Sphere008
g Sphere008
usemtl Material__25
s 1
f 91/175/91 92/176/92 93/177/93 
f 91/178/91 93/177/93 94/179/94 
f 91/180/91 94/179/94 95/181/95 
f 91/182/91 95/181/95 96/183/96 
f 91/184/91 96/183/96 97/185/97 
f 91/186/91 97/185/97 92/187/92 
f 92/176/92 98/188/98 99/189/99 
f 92/176/92 99/189/99 93/177/93 
f 93/177/93 99/189/99 100/190/100 
f 93/177/93 100/190/100 94/179/94 
f 94/179/94 100/190/100 101/191/101 
f 94/179/94 101/191/101 95/181/95 
f 95/181/95 101/191/101 102/192/102 
f 95/181/95 102/192/102 96/183/96 
f 96/183/96 102/192/102 103/193/103 
f 96/183/96 103/193/103 97/185/97 
f 97/185/97 103/193/103 98/194/98 
f 97/185/97 98/194/98 92/187/92 
f 104/195/104 99/189/99 98/188/98 
f 104/196/104 100/190/100 99/189/99 
f 104/197/104 101/191/101 100/190/100 
f 104/198/104 102/192/102 101/191/101 
f 104/199/104 103/193/103 102/192/102 
f 104/200/104 98/194/98 103/193/103 
# 24 faces

