# 3ds Max Wavefront OBJ Exporter v0.97b - (c)2007 guruware
# File Created: 26.03.2019 17:42:57

mtllib stone4.mtl

#
# object Sphere001
#

v  -76.1709 42.0460 9.9145
v  -69.2764 39.9545 -2.5646
v  -72.4135 29.6127 3.6750
v  -72.4135 29.6127 16.1540
v  -69.2764 39.9545 22.3935
v  -66.1392 50.2964 16.1540
v  -66.1392 50.2964 3.6750
v  -55.4873 35.7717 -2.5646
v  -58.6244 25.4299 3.6750
v  -58.6244 25.4299 16.1540
v  -55.4873 35.7717 22.3935
v  -52.3501 46.1135 16.1540
v  -52.3501 46.1135 3.6750
v  -48.5927 33.6802 9.9145
# 14 vertices

vn -0.9569 0.2903 -0.0000
vn -0.4223 0.1281 -0.8973
vn -0.6479 -0.6155 -0.4487
vn -0.6479 -0.6155 0.4487
vn -0.4223 0.1281 0.8973
vn -0.1967 0.8718 0.4487
vn -0.1967 0.8718 -0.4487
vn 0.4223 -0.1281 -0.8973
vn 0.1967 -0.8718 -0.4487
vn 0.1967 -0.8718 0.4487
vn 0.4223 -0.1281 0.8973
vn 0.6479 0.6155 0.4487
vn 0.6479 0.6155 -0.4487
vn 0.9569 -0.2903 -0.0000
# 14 vertex normals

vt 0.0000 1.0000 0.0000
vt 0.0000 0.6667 0.0000
vt 0.1667 0.6667 0.0000
vt 0.1667 1.0000 0.0000
vt 0.3333 0.6667 0.0000
vt 0.3333 1.0000 0.0000
vt 0.5000 0.6667 0.0000
vt 0.5000 1.0000 0.0000
vt 0.6667 0.6667 0.0000
vt 0.6667 1.0000 0.0000
vt 0.8333 0.6667 0.0000
vt 0.8333 1.0000 0.0000
vt 1.0000 0.6667 0.0000
vt 0.0000 0.3333 0.0000
vt 0.1667 0.3333 0.0000
vt 0.3333 0.3333 0.0000
vt 0.5000 0.3333 0.0000
vt 0.6667 0.3333 0.0000
vt 0.8333 0.3333 0.0000
vt 1.0000 0.3333 0.0000
vt 0.0000 0.0000 0.0000
vt 0.1667 0.0000 0.0000
vt 0.3333 0.0000 0.0000
vt 0.5000 0.0000 0.0000
vt 0.6667 0.0000 0.0000
vt 0.8333 0.0000 0.0000
# 26 texture coords

o Sphere001
g Sphere001
usemtl Material__25
s 1
f 1/1/1 2/2/2 3/3/3 
f 1/4/1 3/3/3 4/5/4 
f 1/6/1 4/5/4 5/7/5 
f 1/8/1 5/7/5 6/9/6 
f 1/10/1 6/9/6 7/11/7 
f 1/12/1 7/11/7 2/13/2 
f 2/2/2 8/14/8 9/15/9 
f 2/2/2 9/15/9 3/3/3 
f 3/3/3 9/15/9 10/16/10 
f 3/3/3 10/16/10 4/5/4 
f 4/5/4 10/16/10 11/17/11 
f 4/5/4 11/17/11 5/7/5 
f 5/7/5 11/17/11 12/18/12 
f 5/7/5 12/18/12 6/9/6 
f 6/9/6 12/18/12 13/19/13 
f 6/9/6 13/19/13 7/11/7 
f 7/11/7 13/19/13 8/20/8 
f 7/11/7 8/20/8 2/13/2 
f 14/21/14 9/15/9 8/14/8 
f 14/22/14 10/16/10 9/15/9 
f 14/23/14 11/17/11 10/16/10 
f 14/24/14 12/18/12 11/17/11 
f 14/25/14 13/19/13 12/18/12 
f 14/26/14 8/20/8 13/19/13 
# 24 faces

#
# object Sphere002
#

v  6.0238 23.0173 68.3417
v  6.3307 29.8201 66.8070
v  1.1131 27.0701 65.4804
v  1.1091 21.2950 63.6934
v  6.3227 18.2698 63.2329
v  11.5404 21.0197 64.5594
v  11.5444 26.7949 66.3465
v  6.9366 31.8754 60.1635
v  1.7189 29.1255 58.8369
v  1.7149 23.3503 57.0498
v  6.9286 20.3251 56.5894
v  12.1462 23.0751 57.9159
v  12.1502 28.8502 59.7030
v  7.2355 27.1280 55.0547
# 14 vertices

vn -0.0868 -0.2944 0.9517
vn -0.0377 0.7273 0.6853
vn -0.8122 0.3191 0.4884
vn -0.8128 -0.5381 0.2231
vn -0.0389 -0.9872 0.1548
vn 0.7356 -0.5790 0.3517
vn 0.7362 0.2782 0.6169
vn 0.0389 0.9872 -0.1548
vn -0.7356 0.5790 -0.3517
vn -0.7362 -0.2782 -0.6169
vn 0.0377 -0.7273 -0.6853
vn 0.8122 -0.3191 -0.4884
vn 0.8128 0.5381 -0.2231
vn 0.0868 0.2944 -0.9517
# 14 vertex normals

vt 0.0000 1.0000 0.0000
vt 0.0000 0.6667 0.0000
vt 0.1667 0.6667 0.0000
vt 0.1667 1.0000 0.0000
vt 0.3333 0.6667 0.0000
vt 0.3333 1.0000 0.0000
vt 0.5000 0.6667 0.0000
vt 0.5000 1.0000 0.0000
vt 0.6667 0.6667 0.0000
vt 0.6667 1.0000 0.0000
vt 0.8333 0.6667 0.0000
vt 0.8333 1.0000 0.0000
vt 1.0000 0.6667 0.0000
vt 0.0000 0.3333 0.0000
vt 0.1667 0.3333 0.0000
vt 0.3333 0.3333 0.0000
vt 0.5000 0.3333 0.0000
vt 0.6667 0.3333 0.0000
vt 0.8333 0.3333 0.0000
vt 1.0000 0.3333 0.0000
vt 0.0000 0.0000 0.0000
vt 0.1667 0.0000 0.0000
vt 0.3333 0.0000 0.0000
vt 0.5000 0.0000 0.0000
vt 0.6667 0.0000 0.0000
vt 0.8333 0.0000 0.0000
# 26 texture coords

o Sphere002
g Sphere002
usemtl Material__25
s 1
f 15/27/15 16/28/16 17/29/17 
f 15/30/15 17/29/17 18/31/18 
f 15/32/15 18/31/18 19/33/19 
f 15/34/15 19/33/19 20/35/20 
f 15/36/15 20/35/20 21/37/21 
f 15/38/15 21/37/21 16/39/16 
f 16/28/16 22/40/22 23/41/23 
f 16/28/16 23/41/23 17/29/17 
f 17/29/17 23/41/23 24/42/24 
f 17/29/17 24/42/24 18/31/18 
f 18/31/18 24/42/24 25/43/25 
f 18/31/18 25/43/25 19/33/19 
f 19/33/19 25/43/25 26/44/26 
f 19/33/19 26/44/26 20/35/20 
f 20/35/20 26/44/26 27/45/27 
f 20/35/20 27/45/27 21/37/21 
f 21/37/21 27/45/27 22/46/22 
f 21/37/21 22/46/22 16/39/16 
f 28/47/28 23/41/23 22/40/22 
f 28/48/28 24/42/24 23/41/23 
f 28/49/28 25/43/25 24/42/24 
f 28/50/28 26/44/26 25/43/25 
f 28/51/28 27/45/27 26/44/26 
f 28/52/28 22/46/22 27/45/27 
# 24 faces

#
# object Sphere003
#

v  45.2034 44.4577 -14.7980
v  41.6966 46.1397 0.2530
v  52.9610 54.1004 -5.3634
v  60.7651 45.2526 -14.4511
v  54.3239 31.8238 -14.4511
v  42.5389 32.3721 -5.3634
v  60.4098 37.1639 5.2396
# 7 vertices

vn -0.5806 0.2785 -0.7651
vn -0.7596 0.3643 0.5395
vn 0.1224 0.9876 0.0997
vn 0.7336 0.2948 -0.6119
vn 0.2292 -0.7566 -0.6119
vn -0.6935 -0.7136 0.0997
vn 0.5806 -0.2785 0.7651
# 7 vertex normals

vt 0.0000 1.0000 0.0000
vt 0.0000 0.6000 0.0000
vt 0.2000 0.6000 0.0000
vt 0.2000 1.0000 0.0000
vt 0.4000 0.6000 0.0000
vt 0.4000 1.0000 0.0000
vt 0.6000 0.6000 0.0000
vt 0.6000 1.0000 0.0000
vt 0.8000 0.6000 0.0000
vt 0.8000 1.0000 0.0000
vt 1.0000 0.6000 0.0000
vt 0.0000 0.2000 0.0000
vt 0.2000 0.2000 0.0000
vt 0.4000 0.2000 0.0000
vt 0.6000 0.2000 0.0000
vt 0.8000 0.2000 0.0000
# 16 texture coords

o Sphere003
g Sphere003
usemtl Material__25
s 1
f 29/53/29 30/54/30 31/55/31 
f 29/56/29 31/55/31 32/57/32 
f 29/58/29 32/57/32 33/59/33 
f 29/60/29 33/59/33 34/61/34 
f 29/62/29 34/61/34 30/63/30 
f 35/64/35 31/55/31 30/54/30 
f 35/65/35 32/57/32 31/55/31 
f 35/66/35 33/59/33 32/57/32 
f 35/67/35 34/61/34 33/59/33 
f 35/68/35 30/63/30 34/61/34 
# 10 faces

#
# object Sphere004
#

v  -47.2161 15.8555 -10.0402
v  -47.4931 20.4663 -19.6319
v  -40.0075 20.9159 -16.0205
v  -38.1587 21.0270 -7.9058
v  -43.3389 20.7158 -1.3983
v  -51.6473 20.2167 -1.3983
v  -56.8275 19.9056 -7.9058
v  -54.9787 20.0166 -16.0205
v  -48.1154 30.8267 -22.0009
v  -38.7810 31.3874 -17.4975
v  -36.4756 31.5259 -7.3787
v  -42.9352 31.1379 0.7360
v  -53.2956 30.5155 0.7360
v  -59.7552 30.1275 -7.3787
v  -57.4498 30.2660 -17.4975
v  -48.6873 40.3479 -10.0402
# 16 vertices

vn 0.0600 -0.9982 0.0000
vn 0.0342 -0.5694 -0.8213
vn 0.6752 -0.5309 -0.5121
vn 0.8335 -0.5214 0.1828
vn 0.3899 -0.5481 0.7400
vn -0.3215 -0.5908 0.7400
vn -0.7651 -0.6174 0.1828
vn -0.6068 -0.6079 -0.5121
vn -0.0175 0.2913 -0.9565
vn 0.7289 0.3362 -0.5963
vn 0.9133 0.3473 0.2128
vn 0.3967 0.3162 0.8617
vn -0.4317 0.2665 0.8617
vn -0.9483 0.2354 0.2128
vn -0.7639 0.2465 -0.5963
vn -0.0600 0.9982 -0.0000
# 16 vertex normals

vt 0.0000 1.0000 0.0000
vt 0.0000 0.7143 0.0000
vt 0.1429 0.7143 0.0000
vt 0.1429 1.0000 0.0000
vt 0.2857 0.7143 0.0000
vt 0.2857 1.0000 0.0000
vt 0.4286 0.7143 0.0000
vt 0.4286 1.0000 0.0000
vt 0.5714 0.7143 0.0000
vt 0.5714 1.0000 0.0000
vt 0.7143 0.7143 0.0000
vt 0.7143 1.0000 0.0000
vt 0.8571 0.7143 0.0000
vt 0.8571 1.0000 0.0000
vt 1.0000 0.7143 0.0000
vt 0.0000 0.4286 0.0000
vt 0.1429 0.4286 0.0000
vt 0.2857 0.4286 0.0000
vt 0.4286 0.4286 0.0000
vt 0.5714 0.4286 0.0000
vt 0.7143 0.4286 0.0000
vt 0.8571 0.4286 0.0000
vt 1.0000 0.4286 0.0000
vt 0.0000 0.1429 0.0000
vt 0.1429 0.1429 0.0000
vt 0.2857 0.1429 0.0000
vt 0.4286 0.1429 0.0000
vt 0.5714 0.1429 0.0000
vt 0.7143 0.1429 0.0000
vt 0.8571 0.1429 0.0000
# 30 texture coords

o Sphere004
g Sphere004
usemtl Material__25
s 1
f 36/69/36 37/70/37 38/71/38 
f 36/72/36 38/71/38 39/73/39 
f 36/74/36 39/73/39 40/75/40 
f 36/76/36 40/75/40 41/77/41 
f 36/78/36 41/77/41 42/79/42 
f 36/80/36 42/79/42 43/81/43 
f 36/82/36 43/81/43 37/83/37 
f 37/70/37 44/84/44 45/85/45 
f 37/70/37 45/85/45 38/71/38 
f 38/71/38 45/85/45 46/86/46 
f 38/71/38 46/86/46 39/73/39 
f 39/73/39 46/86/46 47/87/47 
f 39/73/39 47/87/47 40/75/40 
f 40/75/40 47/87/47 48/88/48 
f 40/75/40 48/88/48 41/77/41 
f 41/77/41 48/88/48 49/89/49 
f 41/77/41 49/89/49 42/79/42 
f 42/79/42 49/89/49 50/90/50 
f 42/79/42 50/90/50 43/81/43 
f 43/81/43 50/90/50 44/91/44 
f 43/81/43 44/91/44 37/83/37 
f 51/92/51 45/85/45 44/84/44 
f 51/93/51 46/86/46 45/85/45 
f 51/94/51 47/87/47 46/86/46 
f 51/95/51 48/88/48 47/87/47 
f 51/96/51 49/89/49 48/88/48 
f 51/97/51 50/90/50 49/89/49 
f 51/98/51 44/91/44 50/90/50 
# 28 faces

#
# object Sphere005
#

v  1.6243 54.0512 9.7241
v  1.6243 66.5072 13.1137
v  -7.4689 63.1992 10.2444
v  -9.7147 55.7661 3.7971
v  -3.4220 49.8052 -1.3732
v  6.6706 49.8052 -1.3732
v  12.9633 55.7661 3.7971
v  10.7175 63.1992 10.2444
v  1.6243 76.9235 5.4886
v  -9.7147 72.7985 1.9106
v  -12.5152 63.5296 -6.1290
v  -4.6684 56.0965 -12.5762
v  7.9170 56.0965 -12.5762
v  15.7638 63.5296 -6.1290
v  12.9633 72.7985 1.9106
v  1.6243 73.5459 -12.7515
# 16 vertices

vn -0.0000 -0.6552 0.7554
vn -0.0000 0.2467 0.9691
vn -0.6421 0.0131 0.7665
vn -0.8007 -0.5118 0.3112
vn -0.3564 -0.9328 -0.0539
vn 0.3564 -0.9328 -0.0539
vn 0.8007 -0.5118 0.3112
vn 0.6421 0.0131 0.7665
vn -0.0000 0.9138 0.4062
vn -0.7478 0.6417 0.1703
vn -0.9325 0.0305 -0.3599
vn -0.4150 -0.4597 -0.7851
vn 0.4150 -0.4597 -0.7851
vn 0.9325 0.0305 -0.3599
vn 0.7478 0.6417 0.1703
vn 0.0000 0.6552 -0.7554
# 16 vertex normals

vt 0.0000 1.0000 0.0000
vt 0.0000 0.7143 0.0000
vt 0.1429 0.7143 0.0000
vt 0.1429 1.0000 0.0000
vt 0.2857 0.7143 0.0000
vt 0.2857 1.0000 0.0000
vt 0.4286 0.7143 0.0000
vt 0.4286 1.0000 0.0000
vt 0.5714 0.7143 0.0000
vt 0.5714 1.0000 0.0000
vt 0.7143 0.7143 0.0000
vt 0.7143 1.0000 0.0000
vt 0.8571 0.7143 0.0000
vt 0.8571 1.0000 0.0000
vt 1.0000 0.7143 0.0000
vt 0.0000 0.4286 0.0000
vt 0.1429 0.4286 0.0000
vt 0.2857 0.4286 0.0000
vt 0.4286 0.4286 0.0000
vt 0.5714 0.4286 0.0000
vt 0.7143 0.4286 0.0000
vt 0.8571 0.4286 0.0000
vt 1.0000 0.4286 0.0000
vt 0.0000 0.1429 0.0000
vt 0.1429 0.1429 0.0000
vt 0.2857 0.1429 0.0000
vt 0.4286 0.1429 0.0000
vt 0.5714 0.1429 0.0000
vt 0.7143 0.1429 0.0000
vt 0.8571 0.1429 0.0000
# 30 texture coords

o Sphere005
g Sphere005
usemtl Material__25
s 1
f 52/99/52 53/100/53 54/101/54 
f 52/102/52 54/101/54 55/103/55 
f 52/104/52 55/103/55 56/105/56 
f 52/106/52 56/105/56 57/107/57 
f 52/108/52 57/107/57 58/109/58 
f 52/110/52 58/109/58 59/111/59 
f 52/112/52 59/111/59 53/113/53 
f 53/100/53 60/114/60 61/115/61 
f 53/100/53 61/115/61 54/101/54 
f 54/101/54 61/115/61 62/116/62 
f 54/101/54 62/116/62 55/103/55 
f 55/103/55 62/116/62 63/117/63 
f 55/103/55 63/117/63 56/105/56 
f 56/105/56 63/117/63 64/118/64 
f 56/105/56 64/118/64 57/107/57 
f 57/107/57 64/118/64 65/119/65 
f 57/107/57 65/119/65 58/109/58 
f 58/109/58 65/119/65 66/120/66 
f 58/109/58 66/120/66 59/111/59 
f 59/111/59 66/120/66 60/121/60 
f 59/111/59 60/121/60 53/113/53 
f 67/122/67 61/115/61 60/114/60 
f 67/123/67 62/116/62 61/115/61 
f 67/124/67 63/117/63 62/116/62 
f 67/125/67 64/118/64 63/117/63 
f 67/126/67 65/119/65 64/118/64 
f 67/127/67 66/120/66 65/119/65 
f 67/128/67 60/121/60 66/120/66 
# 28 faces

#
# object Sphere006
#

v  71.4381 24.3788 -2.4493
v  69.4667 26.3938 -8.3031
v  72.7380 29.5945 -6.0991
v  73.5459 30.3850 -1.1467
v  71.2821 28.1700 2.8248
v  67.6512 24.6175 2.8248
v  65.3874 22.4025 -1.1467
v  66.1953 23.1931 -6.0991
v  65.0367 30.9214 -9.7489
v  69.1160 34.9126 -7.0005
v  70.1235 35.8983 -0.8250
v  67.3006 33.1363 4.1274
v  62.7729 28.7064 4.1274
v  59.9500 25.9444 -0.8250
v  60.9575 26.9302 -7.0005
v  60.9657 35.0822 -2.4493
# 16 vertices

vn 0.6994 -0.7148 0.0000
vn 0.3990 -0.4078 -0.8213
vn 0.8579 0.0413 -0.5121
vn 0.9713 0.1522 0.1828
vn 0.6537 -0.1585 0.7400
vn 0.1442 -0.6570 0.7400
vn -0.1734 -0.9677 0.1828
vn -0.0600 -0.8568 -0.5121
vn -0.2041 0.2086 -0.9565
vn 0.3304 0.7316 -0.5963
vn 0.4624 0.8608 0.2128
vn 0.0925 0.4988 0.8617
vn -0.5007 -0.0816 0.8617
vn -0.8706 -0.4435 0.2128
vn -0.7386 -0.3143 -0.5963
vn -0.6994 0.7148 -0.0000
# 16 vertex normals

vt 0.0000 1.0000 0.0000
vt 0.0000 0.7143 0.0000
vt 0.1429 0.7143 0.0000
vt 0.1429 1.0000 0.0000
vt 0.2857 0.7143 0.0000
vt 0.2857 1.0000 0.0000
vt 0.4286 0.7143 0.0000
vt 0.4286 1.0000 0.0000
vt 0.5714 0.7143 0.0000
vt 0.5714 1.0000 0.0000
vt 0.7143 0.7143 0.0000
vt 0.7143 1.0000 0.0000
vt 0.8571 0.7143 0.0000
vt 0.8571 1.0000 0.0000
vt 1.0000 0.7143 0.0000
vt 0.0000 0.4286 0.0000
vt 0.1429 0.4286 0.0000
vt 0.2857 0.4286 0.0000
vt 0.4286 0.4286 0.0000
vt 0.5714 0.4286 0.0000
vt 0.7143 0.4286 0.0000
vt 0.8571 0.4286 0.0000
vt 1.0000 0.4286 0.0000
vt 0.0000 0.1429 0.0000
vt 0.1429 0.1429 0.0000
vt 0.2857 0.1429 0.0000
vt 0.4286 0.1429 0.0000
vt 0.5714 0.1429 0.0000
vt 0.7143 0.1429 0.0000
vt 0.8571 0.1429 0.0000
# 30 texture coords

o Sphere006
g Sphere006
usemtl Material__25
s 1
f 68/129/68 69/130/69 70/131/70 
f 68/132/68 70/131/70 71/133/71 
f 68/134/68 71/133/71 72/135/72 
f 68/136/68 72/135/72 73/137/73 
f 68/138/68 73/137/73 74/139/74 
f 68/140/68 74/139/74 75/141/75 
f 68/142/68 75/141/75 69/143/69 
f 69/130/69 76/144/76 77/145/77 
f 69/130/69 77/145/77 70/131/70 
f 70/131/70 77/145/77 78/146/78 
f 70/131/70 78/146/78 71/133/71 
f 71/133/71 78/146/78 79/147/79 
f 71/133/71 79/147/79 72/135/72 
f 72/135/72 79/147/79 80/148/80 
f 72/135/72 80/148/80 73/137/73 
f 73/137/73 80/148/80 81/149/81 
f 73/137/73 81/149/81 74/139/74 
f 74/139/74 81/149/81 82/150/82 
f 74/139/74 82/150/82 75/141/75 
f 75/141/75 82/150/82 76/151/76 
f 75/141/75 76/151/76 69/143/69 
f 83/152/83 77/145/77 76/144/76 
f 83/153/83 78/146/78 77/145/77 
f 83/154/83 79/147/79 78/146/78 
f 83/155/83 80/148/80 79/147/79 
f 83/156/83 81/149/81 80/148/80 
f 83/157/83 82/150/82 81/149/81 
f 83/158/83 76/151/76 82/150/82 
# 28 faces

#
# object Sphere007
#

v  5.9440 37.1820 -72.9208
v  -4.3080 34.1431 -61.6371
v  8.1714 26.0409 -62.2865
v  10.8441 22.8473 -76.5844
v  0.0165 28.9758 -84.7715
v  -9.3480 35.9569 -75.5335
v  -8.1484 15.2155 -70.7263
# 7 vertices

vn 0.5381 0.8387 -0.0838
vn -0.3533 0.4626 0.8136
vn 0.6238 -0.1718 0.7627
vn 0.8331 -0.4219 -0.3569
vn -0.0147 0.0579 -0.9979
vn -0.7479 0.6046 -0.2745
vn -0.5381 -0.8387 0.0838
# 7 vertex normals

vt 0.0000 1.0000 0.0000
vt 0.0000 0.6000 0.0000
vt 0.2000 0.6000 0.0000
vt 0.2000 1.0000 0.0000
vt 0.4000 0.6000 0.0000
vt 0.4000 1.0000 0.0000
vt 0.6000 0.6000 0.0000
vt 0.6000 1.0000 0.0000
vt 0.8000 0.6000 0.0000
vt 0.8000 1.0000 0.0000
vt 1.0000 0.6000 0.0000
vt 0.0000 0.2000 0.0000
vt 0.2000 0.2000 0.0000
vt 0.4000 0.2000 0.0000
vt 0.6000 0.2000 0.0000
vt 0.8000 0.2000 0.0000
# 16 texture coords

o Sphere007
g Sphere007
usemtl Material__25
s 1
f 84/159/84 85/160/85 86/161/86 
f 84/162/84 86/161/86 87/163/87 
f 84/164/84 87/163/87 88/165/88 
f 84/166/84 88/165/88 89/167/89 
f 84/168/84 89/167/89 85/169/85 
f 90/170/90 86/161/86 85/160/85 
f 90/171/90 87/163/87 86/161/86 
f 90/172/90 88/165/88 87/163/87 
f 90/173/90 89/167/89 88/165/88 
f 90/174/90 85/169/85 89/167/89 
# 10 faces

#
# object Sphere008
#

v  25.0287 -2.4394 33.7904
v  36.8255 -0.8748 41.9157
v  25.9962 1.6881 47.5622
v  16.6065 6.7173 41.0607
v  18.0463 9.1835 28.9128
v  28.8756 6.6205 23.2664
v  38.2653 1.5914 29.7678
v  41.6400 12.3126 45.1635
v  30.8106 14.8756 50.8100
v  21.4210 19.9047 44.3085
v  22.8607 22.3709 32.1606
v  33.6901 19.8079 26.5142
v  43.0797 14.7788 33.0156
v  34.6576 23.9355 40.2860
# 14 vertices

vn -0.3341 -0.9152 -0.2254
vn 0.5277 -0.7655 0.3680
vn -0.2510 -0.5812 0.7741
vn -0.9262 -0.2196 0.3066
vn -0.8226 -0.0423 -0.5670
vn -0.0439 -0.2266 -0.9730
vn 0.6313 -0.5882 -0.5055
vn 0.8226 0.0423 0.5670
vn 0.0439 0.2266 0.9730
vn -0.6313 0.5882 0.5055
vn -0.5277 0.7655 -0.3680
vn 0.2510 0.5812 -0.7741
vn 0.9262 0.2196 -0.3066
vn 0.3341 0.9152 0.2254
# 14 vertex normals

vt 0.0000 1.0000 0.0000
vt 0.0000 0.6667 0.0000
vt 0.1667 0.6667 0.0000
vt 0.1667 1.0000 0.0000
vt 0.3333 0.6667 0.0000
vt 0.3333 1.0000 0.0000
vt 0.5000 0.6667 0.0000
vt 0.5000 1.0000 0.0000
vt 0.6667 0.6667 0.0000
vt 0.6667 1.0000 0.0000
vt 0.8333 0.6667 0.0000
vt 0.8333 1.0000 0.0000
vt 1.0000 0.6667 0.0000
vt 0.0000 0.3333 0.0000
vt 0.1667 0.3333 0.0000
vt 0.3333 0.3333 0.0000
vt 0.5000 0.3333 0.0000
vt 0.6667 0.3333 0.0000
vt 0.8333 0.3333 0.0000
vt 1.0000 0.3333 0.0000
vt 0.0000 0.0000 0.0000
vt 0.1667 0.0000 0.0000
vt 0.3333 0.0000 0.0000
vt 0.5000 0.0000 0.0000
vt 0.6667 0.0000 0.0000
vt 0.8333 0.0000 0.0000
# 26 texture coords

o Sphere008
g Sphere008
usemtl Material__25
s 1
f 91/175/91 92/176/92 93/177/93 
f 91/178/91 93/177/93 94/179/94 
f 91/180/91 94/179/94 95/181/95 
f 91/182/91 95/181/95 96/183/96 
f 91/184/91 96/183/96 97/185/97 
f 91/186/91 97/185/97 92/187/92 
f 92/176/92 98/188/98 99/189/99 
f 92/176/92 99/189/99 93/177/93 
f 93/177/93 99/189/99 100/190/100 
f 93/177/93 100/190/100 94/179/94 
f 94/179/94 100/190/100 101/191/101 
f 94/179/94 101/191/101 95/181/95 
f 95/181/95 101/191/101 102/192/102 
f 95/181/95 102/192/102 96/183/96 
f 96/183/96 102/192/102 103/193/103 
f 96/183/96 103/193/103 97/185/97 
f 97/185/97 103/193/103 98/194/98 
f 97/185/97 98/194/98 92/187/92 
f 104/195/104 99/189/99 98/188/98 
f 104/196/104 100/190/100 99/189/99 
f 104/197/104 101/191/101 100/190/100 
f 104/198/104 102/192/102 101/191/101 
f 104/199/104 103/193/103 102/192/102 
f 104/200/104 98/194/98 103/193/103 
# 24 faces

