# 3ds Max Wavefront OBJ Exporter v0.97b - (c)2007 guruware
# File Created: 26.03.2019 17:42:57

mtllib stone3.mtl

#
# object Sphere001
#

v  -58.4904 53.6844 9.9145
v  -53.3958 48.5899 -2.5646
v  -61.0376 40.9481 3.6750
v  -61.0376 40.9481 16.1540
v  -53.3958 48.5899 22.3935
v  -45.7540 56.2317 16.1540
v  -45.7540 56.2317 3.6750
v  -43.2067 38.4008 -2.5646
v  -50.8485 30.7590 3.6750
v  -50.8485 30.7590 16.1540
v  -43.2067 38.4008 22.3935
v  -35.5649 46.0426 16.1540
v  -35.5649 46.0426 3.6750
v  -38.1122 33.3063 9.9145
# 14 vertices

vn -0.7071 0.7071 -0.0000
vn -0.3121 0.3121 -0.8973
vn -0.8616 -0.2374 -0.4487
vn -0.8616 -0.2374 0.4487
vn -0.3121 0.3121 0.8973
vn 0.2374 0.8616 0.4487
vn 0.2374 0.8616 -0.4487
vn 0.3121 -0.3121 -0.8973
vn -0.2374 -0.8616 -0.4487
vn -0.2374 -0.8616 0.4487
vn 0.3121 -0.3121 0.8973
vn 0.8616 0.2374 0.4487
vn 0.8616 0.2374 -0.4487
vn 0.7071 -0.7071 -0.0000
# 14 vertex normals

vt 0.0000 1.0000 0.0000
vt 0.0000 0.6667 0.0000
vt 0.1667 0.6667 0.0000
vt 0.1667 1.0000 0.0000
vt 0.3333 0.6667 0.0000
vt 0.3333 1.0000 0.0000
vt 0.5000 0.6667 0.0000
vt 0.5000 1.0000 0.0000
vt 0.6667 0.6667 0.0000
vt 0.6667 1.0000 0.0000
vt 0.8333 0.6667 0.0000
vt 0.8333 1.0000 0.0000
vt 1.0000 0.6667 0.0000
vt 0.0000 0.3333 0.0000
vt 0.1667 0.3333 0.0000
vt 0.3333 0.3333 0.0000
vt 0.5000 0.3333 0.0000
vt 0.6667 0.3333 0.0000
vt 0.8333 0.3333 0.0000
vt 1.0000 0.3333 0.0000
vt 0.0000 0.0000 0.0000
vt 0.1667 0.0000 0.0000
vt 0.3333 0.0000 0.0000
vt 0.5000 0.0000 0.0000
vt 0.6667 0.0000 0.0000
vt 0.8333 0.0000 0.0000
# 26 texture coords

o Sphere001
g Sphere001
usemtl Material__25
s 1
f 1/1/1 2/2/2 3/3/3 
f 1/4/1 3/3/3 4/5/4 
f 1/6/1 4/5/4 5/7/5 
f 1/8/1 5/7/5 6/9/6 
f 1/10/1 6/9/6 7/11/7 
f 1/12/1 7/11/7 2/13/2 
f 2/2/2 8/14/8 9/15/9 
f 2/2/2 9/15/9 3/3/3 
f 3/3/3 9/15/9 10/16/10 
f 3/3/3 10/16/10 4/5/4 
f 4/5/4 10/16/10 11/17/11 
f 4/5/4 11/17/11 5/7/5 
f 5/7/5 11/17/11 12/18/12 
f 5/7/5 12/18/12 6/9/6 
f 6/9/6 12/18/12 13/19/13 
f 6/9/6 13/19/13 7/11/7 
f 7/11/7 13/19/13 8/20/8 
f 7/11/7 8/20/8 2/13/2 
f 14/21/14 9/15/9 8/14/8 
f 14/22/14 10/16/10 9/15/9 
f 14/23/14 11/17/11 10/16/10 
f 14/24/14 12/18/12 11/17/11 
f 14/25/14 13/19/13 12/18/12 
f 14/26/14 8/20/8 13/19/13 
# 24 faces

#
# object Sphere002
#

v  6.0212 28.8641 55.8876
v  6.3254 34.5834 51.8969
v  1.1100 31.5325 51.7058
v  1.1100 25.5102 52.2327
v  6.3254 22.5388 52.9507
v  11.5409 25.5897 53.1418
v  11.5409 31.6120 52.6149
v  6.9338 33.9773 44.9694
v  1.7184 30.9264 44.7783
v  1.7184 24.9041 45.3052
v  6.9338 21.9327 46.0232
v  12.1493 24.9836 46.2143
v  12.1493 31.0059 45.6874
v  7.2380 27.6520 42.0326
# 14 vertices

vn -0.0872 0.0868 0.9924
vn -0.0385 0.9322 0.3598
vn -0.8126 0.4794 0.3314
vn -0.8126 -0.4145 0.4096
vn -0.0385 -0.8556 0.5162
vn 0.7357 -0.4027 0.5446
vn 0.7357 0.4912 0.4663
vn 0.0385 0.8556 -0.5162
vn -0.7357 0.4027 -0.5446
vn -0.7357 -0.4912 -0.4663
vn 0.0385 -0.9322 -0.3598
vn 0.8126 -0.4794 -0.3314
vn 0.8126 0.4145 -0.4096
vn 0.0872 -0.0868 -0.9924
# 14 vertex normals

vt 0.0000 1.0000 0.0000
vt 0.0000 0.6667 0.0000
vt 0.1667 0.6667 0.0000
vt 0.1667 1.0000 0.0000
vt 0.3333 0.6667 0.0000
vt 0.3333 1.0000 0.0000
vt 0.5000 0.6667 0.0000
vt 0.5000 1.0000 0.0000
vt 0.6667 0.6667 0.0000
vt 0.6667 1.0000 0.0000
vt 0.8333 0.6667 0.0000
vt 0.8333 1.0000 0.0000
vt 1.0000 0.6667 0.0000
vt 0.0000 0.3333 0.0000
vt 0.1667 0.3333 0.0000
vt 0.3333 0.3333 0.0000
vt 0.5000 0.3333 0.0000
vt 0.6667 0.3333 0.0000
vt 0.8333 0.3333 0.0000
vt 1.0000 0.3333 0.0000
vt 0.0000 0.0000 0.0000
vt 0.1667 0.0000 0.0000
vt 0.3333 0.0000 0.0000
vt 0.5000 0.0000 0.0000
vt 0.6667 0.0000 0.0000
vt 0.8333 0.0000 0.0000
# 26 texture coords

o Sphere002
g Sphere002
usemtl Material__25
s 1
f 15/27/15 16/28/16 17/29/17 
f 15/30/15 17/29/17 18/31/18 
f 15/32/15 18/31/18 19/33/19 
f 15/34/15 19/33/19 20/35/20 
f 15/36/15 20/35/20 21/37/21 
f 15/38/15 21/37/21 16/39/16 
f 16/28/16 22/40/22 23/41/23 
f 16/28/16 23/41/23 17/29/17 
f 17/29/17 23/41/23 24/42/24 
f 17/29/17 24/42/24 18/31/18 
f 18/31/18 24/42/24 25/43/25 
f 18/31/18 25/43/25 19/33/19 
f 19/33/19 25/43/25 26/44/26 
f 19/33/19 26/44/26 20/35/20 
f 20/35/20 26/44/26 27/45/27 
f 20/35/20 27/45/27 21/37/21 
f 21/37/21 27/45/27 22/46/22 
f 21/37/21 22/46/22 16/39/16 
f 28/47/28 23/41/23 22/40/22 
f 28/48/28 24/42/24 23/41/23 
f 28/49/28 25/43/25 24/42/24 
f 28/50/28 26/44/26 25/43/25 
f 28/51/28 27/45/27 26/44/26 
f 28/52/28 22/46/22 27/45/27 
# 24 faces

#
# object Sphere003
#

v  35.3070 38.9413 -16.5073
v  31.5502 39.9479 -1.4563
v  41.1537 49.8490 -7.0727
v  50.4553 42.5919 -16.1604
v  46.6005 28.2056 -16.1604
v  34.9166 26.5716 -7.0727
v  51.5976 34.5763 3.5303
# 7 vertices

vn -0.6220 0.1667 -0.7651
vn -0.8137 0.2180 0.5395
vn -0.0617 0.9932 0.0997
vn 0.6666 0.4250 -0.6119
vn 0.3648 -0.7014 -0.6119
vn -0.5501 -0.8293 0.0997
vn 0.6220 -0.1667 0.7651
# 7 vertex normals

vt 0.0000 1.0000 0.0000
vt 0.0000 0.6000 0.0000
vt 0.2000 0.6000 0.0000
vt 0.2000 1.0000 0.0000
vt 0.4000 0.6000 0.0000
vt 0.4000 1.0000 0.0000
vt 0.6000 0.6000 0.0000
vt 0.6000 1.0000 0.0000
vt 0.8000 0.6000 0.0000
vt 0.8000 1.0000 0.0000
vt 1.0000 0.6000 0.0000
vt 0.0000 0.2000 0.0000
vt 0.2000 0.2000 0.0000
vt 0.4000 0.2000 0.0000
vt 0.6000 0.2000 0.0000
vt 0.8000 0.2000 0.0000
# 16 texture coords

o Sphere003
g Sphere003
usemtl Material__25
s 1
f 29/53/29 30/54/30 31/55/31 
f 29/56/29 31/55/31 32/57/32 
f 29/58/29 32/57/32 33/59/33 
f 29/60/29 33/59/33 34/61/34 
f 29/62/29 34/61/34 30/63/30 
f 35/64/35 31/55/31 30/54/30 
f 35/65/35 32/57/32 31/55/31 
f 35/66/35 33/59/33 32/57/32 
f 35/67/35 34/61/34 33/59/33 
f 35/68/35 30/63/30 34/61/34 
# 10 faces

#
# object Sphere004
#

v  -49.5670 20.8865 -10.0402
v  -46.5979 24.4249 -19.6319
v  -40.8532 19.6046 -16.0205
v  -39.4344 18.4141 -7.9058
v  -43.4098 21.7498 -1.3983
v  -49.7859 27.1000 -1.3983
v  -53.7613 30.4358 -7.9058
v  -52.3425 29.2453 -16.0205
v  -39.9263 32.3758 -22.0009
v  -32.7629 26.3649 -17.4975
v  -30.9936 24.8804 -7.3787
v  -35.9509 29.0400 0.7360
v  -43.9017 35.7116 0.7360
v  -48.8590 39.8712 -7.3787
v  -47.0898 38.3866 -17.4975
v  -33.7952 39.6826 -10.0402
# 16 vertices

vn -0.6428 -0.7660 0.0000
vn -0.3667 -0.4370 -0.8213
vn 0.1252 -0.8498 -0.5121
vn 0.2467 -0.9517 0.1828
vn -0.0937 -0.6661 0.7400
vn -0.6397 -0.2079 0.7400
vn -0.9801 0.0777 0.1828
vn -0.8586 -0.0242 -0.5121
vn 0.1876 0.2236 -0.9565
vn 0.7604 -0.2571 -0.5963
vn 0.9019 -0.3758 0.2128
vn 0.5055 -0.0432 0.8617
vn -0.1303 0.4903 0.8617
vn -0.5267 0.8230 0.2128
vn -0.3852 0.7043 -0.5963
vn 0.6428 0.7660 -0.0000
# 16 vertex normals

vt 0.0000 1.0000 0.0000
vt 0.0000 0.7143 0.0000
vt 0.1429 0.7143 0.0000
vt 0.1429 1.0000 0.0000
vt 0.2857 0.7143 0.0000
vt 0.2857 1.0000 0.0000
vt 0.4286 0.7143 0.0000
vt 0.4286 1.0000 0.0000
vt 0.5714 0.7143 0.0000
vt 0.5714 1.0000 0.0000
vt 0.7143 0.7143 0.0000
vt 0.7143 1.0000 0.0000
vt 0.8571 0.7143 0.0000
vt 0.8571 1.0000 0.0000
vt 1.0000 0.7143 0.0000
vt 0.0000 0.4286 0.0000
vt 0.1429 0.4286 0.0000
vt 0.2857 0.4286 0.0000
vt 0.4286 0.4286 0.0000
vt 0.5714 0.4286 0.0000
vt 0.7143 0.4286 0.0000
vt 0.8571 0.4286 0.0000
vt 1.0000 0.4286 0.0000
vt 0.0000 0.1429 0.0000
vt 0.1429 0.1429 0.0000
vt 0.2857 0.1429 0.0000
vt 0.4286 0.1429 0.0000
vt 0.5714 0.1429 0.0000
vt 0.7143 0.1429 0.0000
vt 0.8571 0.1429 0.0000
# 30 texture coords

o Sphere004
g Sphere004
usemtl Material__25
s 1
f 36/69/36 37/70/37 38/71/38 
f 36/72/36 38/71/38 39/73/39 
f 36/74/36 39/73/39 40/75/40 
f 36/76/36 40/75/40 41/77/41 
f 36/78/36 41/77/41 42/79/42 
f 36/80/36 42/79/42 43/81/43 
f 36/82/36 43/81/43 37/83/37 
f 37/70/37 44/84/44 45/85/45 
f 37/70/37 45/85/45 38/71/38 
f 38/71/38 45/85/45 46/86/46 
f 38/71/38 46/86/46 39/73/39 
f 39/73/39 46/86/46 47/87/47 
f 39/73/39 47/87/47 40/75/40 
f 40/75/40 47/87/47 48/88/48 
f 40/75/40 48/88/48 41/77/41 
f 41/77/41 48/88/48 49/89/49 
f 41/77/41 49/89/49 42/79/42 
f 42/79/42 49/89/49 50/90/50 
f 42/79/42 50/90/50 43/81/43 
f 43/81/43 50/90/50 44/91/44 
f 43/81/43 44/91/44 37/83/37 
f 51/92/51 45/85/45 44/84/44 
f 51/93/51 46/86/46 45/85/45 
f 51/94/51 47/87/47 46/86/46 
f 51/95/51 48/88/48 47/87/47 
f 51/96/51 49/89/49 48/88/48 
f 51/97/51 50/90/50 49/89/49 
f 51/98/51 44/91/44 50/90/50 
# 28 faces

#
# object Sphere005
#

v  1.6243 51.7647 11.9686
v  1.6243 64.6727 11.8077
v  -7.4689 60.7039 9.9570
v  -9.7147 51.7862 5.7986
v  -3.4220 44.6347 2.4638
v  6.6706 44.6347 2.4638
v  12.9633 51.7862 5.7986
v  10.7175 60.7039 9.9570
v  1.6243 72.5948 1.6155
v  -9.7147 67.6459 -0.6923
v  -12.5152 56.5257 -5.8777
v  -4.6684 47.6080 -10.0361
v  7.9170 47.6080 -10.0361
v  15.7638 56.5257 -5.8777
v  12.9633 67.6459 -0.6923
v  1.6243 64.3385 -14.9960
# 16 vertices

vn -0.0000 -0.4226 0.9063
vn -0.0000 0.5033 0.8641
vn -0.6421 0.2230 0.7334
vn -0.8007 -0.4067 0.4398
vn -0.3564 -0.9117 0.2043
vn 0.3564 -0.9117 0.2043
vn 0.8007 -0.4067 0.4398
vn 0.6421 0.2230 0.7334
vn -0.0000 0.9902 0.1397
vn -0.7478 0.6638 -0.0125
vn -0.9325 -0.0695 -0.3545
vn -0.4150 -0.6577 -0.6287
vn 0.4150 -0.6577 -0.6287
vn 0.9325 -0.0695 -0.3545
vn 0.7478 0.6638 -0.0125
vn 0.0000 0.4226 -0.9063
# 16 vertex normals

vt 0.0000 1.0000 0.0000
vt 0.0000 0.7143 0.0000
vt 0.1429 0.7143 0.0000
vt 0.1429 1.0000 0.0000
vt 0.2857 0.7143 0.0000
vt 0.2857 1.0000 0.0000
vt 0.4286 0.7143 0.0000
vt 0.4286 1.0000 0.0000
vt 0.5714 0.7143 0.0000
vt 0.5714 1.0000 0.0000
vt 0.7143 0.7143 0.0000
vt 0.7143 1.0000 0.0000
vt 0.8571 0.7143 0.0000
vt 0.8571 1.0000 0.0000
vt 1.0000 0.7143 0.0000
vt 0.0000 0.4286 0.0000
vt 0.1429 0.4286 0.0000
vt 0.2857 0.4286 0.0000
vt 0.4286 0.4286 0.0000
vt 0.5714 0.4286 0.0000
vt 0.7143 0.4286 0.0000
vt 0.8571 0.4286 0.0000
vt 1.0000 0.4286 0.0000
vt 0.0000 0.1429 0.0000
vt 0.1429 0.1429 0.0000
vt 0.2857 0.1429 0.0000
vt 0.4286 0.1429 0.0000
vt 0.5714 0.1429 0.0000
vt 0.7143 0.1429 0.0000
vt 0.8571 0.1429 0.0000
# 30 texture coords

o Sphere005
g Sphere005
usemtl Material__25
s 1
f 52/99/52 53/100/53 54/101/54 
f 52/102/52 54/101/54 55/103/55 
f 52/104/52 55/103/55 56/105/56 
f 52/106/52 56/105/56 57/107/57 
f 52/108/52 57/107/57 58/109/58 
f 52/110/52 58/109/58 59/111/59 
f 52/112/52 59/111/59 53/113/53 
f 53/100/53 60/114/60 61/115/61 
f 53/100/53 61/115/61 54/101/54 
f 54/101/54 61/115/61 62/116/62 
f 54/101/54 62/116/62 55/103/55 
f 55/103/55 62/116/62 63/117/63 
f 55/103/55 63/117/63 56/105/56 
f 56/105/56 63/117/63 64/118/64 
f 56/105/56 64/118/64 57/107/57 
f 57/107/57 64/118/64 65/119/65 
f 57/107/57 65/119/65 58/109/58 
f 58/109/58 65/119/65 66/120/66 
f 58/109/58 66/120/66 59/111/59 
f 59/111/59 66/120/66 60/121/60 
f 59/111/59 60/121/60 53/113/53 
f 67/122/67 61/115/61 60/114/60 
f 67/123/67 62/116/62 61/115/61 
f 67/124/67 63/117/63 62/116/62 
f 67/125/67 64/118/64 63/117/63 
f 67/126/67 65/119/65 64/118/64 
f 67/127/67 66/120/66 65/119/65 
f 67/128/67 60/121/60 66/120/66 
# 28 faces

#
# object Sphere006
#

v  57.2705 30.1725 -2.4493
v  54.4943 30.6620 -8.3031
v  55.2890 35.1692 -6.0991
v  55.4853 36.2824 -1.1467
v  54.9353 33.1633 2.8248
v  54.0532 28.1608 2.8248
v  53.5033 25.0417 -1.1467
v  53.6996 26.1549 -6.0991
v  48.2562 31.7620 -9.7489
v  49.2472 37.3823 -7.0005
v  49.4920 38.7704 -0.8250
v  48.8062 34.8810 4.1274
v  47.7062 28.6429 4.1274
v  47.0204 24.7536 -0.8250
v  47.2652 26.1417 -7.0005
v  42.5234 32.7728 -2.4493
# 16 vertices

vn 0.9848 -0.1736 0.0000
vn 0.5618 -0.0991 -0.8213
vn 0.6733 0.5333 -0.5121
vn 0.7008 0.6895 0.1828
vn 0.6237 0.2519 0.7400
vn 0.4999 -0.4500 0.7400
vn 0.4228 -0.8876 0.1828
vn 0.4503 -0.7314 -0.5121
vn -0.2874 0.0507 -0.9565
vn -0.1576 0.7871 -0.5963
vn -0.1255 0.9690 0.2128
vn -0.2154 0.4594 0.8617
vn -0.3595 -0.3580 0.8617
vn -0.4494 -0.8676 0.2128
vn -0.4173 -0.6857 -0.5963
vn -0.9848 0.1736 -0.0000
# 16 vertex normals

vt 0.0000 1.0000 0.0000
vt 0.0000 0.7143 0.0000
vt 0.1429 0.7143 0.0000
vt 0.1429 1.0000 0.0000
vt 0.2857 0.7143 0.0000
vt 0.2857 1.0000 0.0000
vt 0.4286 0.7143 0.0000
vt 0.4286 1.0000 0.0000
vt 0.5714 0.7143 0.0000
vt 0.5714 1.0000 0.0000
vt 0.7143 0.7143 0.0000
vt 0.7143 1.0000 0.0000
vt 0.8571 0.7143 0.0000
vt 0.8571 1.0000 0.0000
vt 1.0000 0.7143 0.0000
vt 0.0000 0.4286 0.0000
vt 0.1429 0.4286 0.0000
vt 0.2857 0.4286 0.0000
vt 0.4286 0.4286 0.0000
vt 0.5714 0.4286 0.0000
vt 0.7143 0.4286 0.0000
vt 0.8571 0.4286 0.0000
vt 1.0000 0.4286 0.0000
vt 0.0000 0.1429 0.0000
vt 0.1429 0.1429 0.0000
vt 0.2857 0.1429 0.0000
vt 0.4286 0.1429 0.0000
vt 0.5714 0.1429 0.0000
vt 0.7143 0.1429 0.0000
vt 0.8571 0.1429 0.0000
# 30 texture coords

o Sphere006
g Sphere006
usemtl Material__25
s 1
f 68/129/68 69/130/69 70/131/70 
f 68/132/68 70/131/70 71/133/71 
f 68/134/68 71/133/71 72/135/72 
f 68/136/68 72/135/72 73/137/73 
f 68/138/68 73/137/73 74/139/74 
f 68/140/68 74/139/74 75/141/75 
f 68/142/68 75/141/75 69/143/69 
f 69/130/69 76/144/76 77/145/77 
f 69/130/69 77/145/77 70/131/70 
f 70/131/70 77/145/77 78/146/78 
f 70/131/70 78/146/78 71/133/71 
f 71/133/71 78/146/78 79/147/79 
f 71/133/71 79/147/79 72/135/72 
f 72/135/72 79/147/79 80/148/80 
f 72/135/72 80/148/80 73/137/73 
f 73/137/73 80/148/80 81/149/81 
f 73/137/73 81/149/81 74/139/74 
f 74/139/74 81/149/81 82/150/82 
f 74/139/74 82/150/82 75/141/75 
f 75/141/75 82/150/82 76/151/76 
f 75/141/75 76/151/76 69/143/69 
f 83/152/83 77/145/77 76/144/76 
f 83/153/83 78/146/78 77/145/77 
f 83/154/83 79/147/79 78/146/78 
f 83/155/83 80/148/80 79/147/79 
f 83/156/83 81/149/81 80/148/80 
f 83/157/83 82/150/82 81/149/81 
f 83/158/83 76/151/76 82/150/82 
# 28 faces

#
# object Sphere007
#

v  5.9822 41.1229 -49.0658
v  -4.6605 32.4522 -41.7710
v  7.8310 25.8817 -46.5241
v  11.0026 31.2629 -60.0428
v  0.4711 41.1592 -63.6447
v  -9.2092 41.8943 -52.3522
v  -8.1866 22.0404 -60.0679
# 7 vertices

vn 0.5410 0.7286 0.4201
vn -0.3815 -0.0704 0.9221
vn 0.5966 -0.5848 0.5499
vn 0.8449 -0.1635 -0.5087
vn 0.0204 0.6114 -0.7907
vn -0.7376 0.6689 0.0936
vn -0.5410 -0.7286 -0.4201
# 7 vertex normals

vt 0.0000 1.0000 0.0000
vt 0.0000 0.6000 0.0000
vt 0.2000 0.6000 0.0000
vt 0.2000 1.0000 0.0000
vt 0.4000 0.6000 0.0000
vt 0.4000 1.0000 0.0000
vt 0.6000 0.6000 0.0000
vt 0.6000 1.0000 0.0000
vt 0.8000 0.6000 0.0000
vt 0.8000 1.0000 0.0000
vt 1.0000 0.6000 0.0000
vt 0.0000 0.2000 0.0000
vt 0.2000 0.2000 0.0000
vt 0.4000 0.2000 0.0000
vt 0.6000 0.2000 0.0000
vt 0.8000 0.2000 0.0000
# 16 texture coords

o Sphere007
g Sphere007
usemtl Material__25
s 1
f 84/159/84 85/160/85 86/161/86 
f 84/162/84 86/161/86 87/163/87 
f 84/164/84 87/163/87 88/165/88 
f 84/166/84 88/165/88 89/167/89 
f 84/168/84 89/167/89 85/169/85 
f 90/170/90 86/161/86 85/160/85 
f 90/171/90 87/163/87 86/161/86 
f 90/172/90 88/165/88 87/163/87 
f 90/173/90 89/167/89 88/165/88 
f 90/174/90 85/169/85 89/167/89 
# 10 faces

#
# object Sphere008
#

v  21.6397 -2.4394 28.7565
v  33.4366 -0.8748 36.8819
v  22.6072 1.6881 42.5283
v  13.2176 6.7173 36.0269
v  14.6573 9.1835 23.8790
v  25.4867 6.6205 18.2325
v  34.8763 1.5914 24.7340
v  38.2510 12.3126 40.1297
v  27.4216 14.8756 45.7761
v  18.0320 19.9047 39.2747
v  19.4717 22.3709 27.1268
v  30.3011 19.8079 21.4803
v  39.6907 14.7788 27.9818
v  31.2686 23.9355 35.2521
# 14 vertices

vn -0.3341 -0.9152 -0.2254
vn 0.5277 -0.7655 0.3680
vn -0.2510 -0.5812 0.7741
vn -0.9262 -0.2196 0.3066
vn -0.8226 -0.0423 -0.5670
vn -0.0439 -0.2266 -0.9730
vn 0.6313 -0.5882 -0.5055
vn 0.8226 0.0423 0.5670
vn 0.0439 0.2266 0.9730
vn -0.6313 0.5882 0.5055
vn -0.5277 0.7655 -0.3680
vn 0.2510 0.5812 -0.7741
vn 0.9262 0.2196 -0.3066
vn 0.3341 0.9152 0.2254
# 14 vertex normals

vt 0.0000 1.0000 0.0000
vt 0.0000 0.6667 0.0000
vt 0.1667 0.6667 0.0000
vt 0.1667 1.0000 0.0000
vt 0.3333 0.6667 0.0000
vt 0.3333 1.0000 0.0000
vt 0.5000 0.6667 0.0000
vt 0.5000 1.0000 0.0000
vt 0.6667 0.6667 0.0000
vt 0.6667 1.0000 0.0000
vt 0.8333 0.6667 0.0000
vt 0.8333 1.0000 0.0000
vt 1.0000 0.6667 0.0000
vt 0.0000 0.3333 0.0000
vt 0.1667 0.3333 0.0000
vt 0.3333 0.3333 0.0000
vt 0.5000 0.3333 0.0000
vt 0.6667 0.3333 0.0000
vt 0.8333 0.3333 0.0000
vt 1.0000 0.3333 0.0000
vt 0.0000 0.0000 0.0000
vt 0.1667 0.0000 0.0000
vt 0.3333 0.0000 0.0000
vt 0.5000 0.0000 0.0000
vt 0.6667 0.0000 0.0000
vt 0.8333 0.0000 0.0000
# 26 texture coords

o Sphere008
g Sphere008
usemtl Material__25
s 1
f 91/175/91 92/176/92 93/177/93 
f 91/178/91 93/177/93 94/179/94 
f 91/180/91 94/179/94 95/181/95 
f 91/182/91 95/181/95 96/183/96 
f 91/184/91 96/183/96 97/185/97 
f 91/186/91 97/185/97 92/187/92 
f 92/176/92 98/188/98 99/189/99 
f 92/176/92 99/189/99 93/177/93 
f 93/177/93 99/189/99 100/190/100 
f 93/177/93 100/190/100 94/179/94 
f 94/179/94 100/190/100 101/191/101 
f 94/179/94 101/191/101 95/181/95 
f 95/181/95 101/191/101 102/192/102 
f 95/181/95 102/192/102 96/183/96 
f 96/183/96 102/192/102 103/193/103 
f 96/183/96 103/193/103 97/185/97 
f 97/185/97 103/193/103 98/194/98 
f 97/185/97 98/194/98 92/187/92 
f 104/195/104 99/189/99 98/188/98 
f 104/196/104 100/190/100 99/189/99 
f 104/197/104 101/191/101 100/190/100 
f 104/198/104 102/192/102 101/191/101 
f 104/199/104 103/193/103 102/192/102 
f 104/200/104 98/194/98 103/193/103 
# 24 faces

