# 3ds Max Wavefront OBJ Exporter v0.97b - (c)2007 guruware
# File Created: 26.03.2019 17:42:59

mtllib stone10.mtl

#
# object Sphere001
#

v  -101.4504 10.2488 9.9145
v  -94.2456 10.2488 -2.5646
v  -94.2456 -0.5583 3.6750
v  -94.2456 -0.5583 16.1540
v  -94.2456 10.2488 22.3935
v  -94.2456 21.0560 16.1540
v  -94.2456 21.0560 3.6750
v  -79.8360 10.2488 -2.5646
v  -79.8360 -0.5583 3.6750
v  -79.8360 -0.5583 16.1540
v  -79.8360 10.2488 22.3935
v  -79.8360 21.0560 16.1540
v  -79.8360 21.0560 3.6750
v  -72.6313 10.2488 9.9145
# 14 vertices

vn -1.0000 -0.0000 -0.0000
vn -0.4413 0.0000 -0.8973
vn -0.4413 -0.7771 -0.4487
vn -0.4413 -0.7771 0.4487
vn -0.4413 -0.0000 0.8973
vn -0.4413 0.7771 0.4487
vn -0.4413 0.7771 -0.4487
vn 0.4413 0.0000 -0.8973
vn 0.4413 -0.7771 -0.4487
vn 0.4413 -0.7771 0.4487
vn 0.4413 -0.0000 0.8973
vn 0.4413 0.7771 0.4487
vn 0.4413 0.7771 -0.4487
vn 1.0000 0.0000 -0.0000
# 14 vertex normals

vt 0.0000 1.0000 0.0000
vt 0.0000 0.6667 0.0000
vt 0.1667 0.6667 0.0000
vt 0.1667 1.0000 0.0000
vt 0.3333 0.6667 0.0000
vt 0.3333 1.0000 0.0000
vt 0.5000 0.6667 0.0000
vt 0.5000 1.0000 0.0000
vt 0.6667 0.6667 0.0000
vt 0.6667 1.0000 0.0000
vt 0.8333 0.6667 0.0000
vt 0.8333 1.0000 0.0000
vt 1.0000 0.6667 0.0000
vt 0.0000 0.3333 0.0000
vt 0.1667 0.3333 0.0000
vt 0.3333 0.3333 0.0000
vt 0.5000 0.3333 0.0000
vt 0.6667 0.3333 0.0000
vt 0.8333 0.3333 0.0000
vt 1.0000 0.3333 0.0000
vt 0.0000 0.0000 0.0000
vt 0.1667 0.0000 0.0000
vt 0.3333 0.0000 0.0000
vt 0.5000 0.0000 0.0000
vt 0.6667 0.0000 0.0000
vt 0.8333 0.0000 0.0000
# 26 texture coords

o Sphere001
g Sphere001
usemtl Material__25
s 1
f 1/1/1 2/2/2 3/3/3 
f 1/4/1 3/3/3 4/5/4 
f 1/6/1 4/5/4 5/7/5 
f 1/8/1 5/7/5 6/9/6 
f 1/10/1 6/9/6 7/11/7 
f 1/12/1 7/11/7 2/13/2 
f 2/2/2 8/14/8 9/15/9 
f 2/2/2 9/15/9 3/3/3 
f 3/3/3 9/15/9 10/16/10 
f 3/3/3 10/16/10 4/5/4 
f 4/5/4 10/16/10 11/17/11 
f 4/5/4 11/17/11 5/7/5 
f 5/7/5 11/17/11 12/18/12 
f 5/7/5 12/18/12 6/9/6 
f 6/9/6 12/18/12 13/19/13 
f 6/9/6 13/19/13 7/11/7 
f 7/11/7 13/19/13 8/20/8 
f 7/11/7 8/20/8 2/13/2 
f 14/21/14 9/15/9 8/14/8 
f 14/22/14 10/16/10 9/15/9 
f 14/23/14 11/17/11 10/16/10 
f 14/24/14 12/18/12 11/17/11 
f 14/25/14 13/19/13 12/18/12 
f 14/26/14 8/20/8 13/19/13 
# 24 faces

#
# object Sphere002
#

v  6.0212 1.5350 96.2623
v  6.3254 8.4813 96.8815
v  1.1100 6.2670 94.7740
v  1.1100 1.3150 91.3066
v  6.3254 -1.4228 89.9466
v  11.5409 0.7915 92.0541
v  11.5409 5.7436 95.5216
v  6.9338 12.4699 91.1852
v  1.7184 10.2556 89.0777
v  1.7184 5.3036 85.6102
v  6.9338 2.5659 84.2503
v  12.1493 4.7802 86.3578
v  12.1493 9.7322 89.8252
v  7.2380 9.5122 84.8696
# 14 vertices

vn -0.0872 -0.5714 0.8160
vn -0.0385 0.4829 0.8748
vn -0.8126 0.1542 0.5620
vn -0.8126 -0.5809 0.0473
vn -0.0385 -0.9872 -0.1546
vn 0.7357 -0.6586 0.1583
vn 0.7357 0.0765 0.6730
vn 0.0385 0.9872 0.1546
vn -0.7357 0.6586 -0.1583
vn -0.7357 -0.0765 -0.6730
vn 0.0385 -0.4829 -0.8748
vn 0.8126 -0.1542 -0.5620
vn 0.8126 0.5809 -0.0473
vn 0.0872 0.5714 -0.8160
# 14 vertex normals

vt 0.0000 1.0000 0.0000
vt 0.0000 0.6667 0.0000
vt 0.1667 0.6667 0.0000
vt 0.1667 1.0000 0.0000
vt 0.3333 0.6667 0.0000
vt 0.3333 1.0000 0.0000
vt 0.5000 0.6667 0.0000
vt 0.5000 1.0000 0.0000
vt 0.6667 0.6667 0.0000
vt 0.6667 1.0000 0.0000
vt 0.8333 0.6667 0.0000
vt 0.8333 1.0000 0.0000
vt 1.0000 0.6667 0.0000
vt 0.0000 0.3333 0.0000
vt 0.1667 0.3333 0.0000
vt 0.3333 0.3333 0.0000
vt 0.5000 0.3333 0.0000
vt 0.6667 0.3333 0.0000
vt 0.8333 0.3333 0.0000
vt 1.0000 0.3333 0.0000
vt 0.0000 0.0000 0.0000
vt 0.1667 0.0000 0.0000
vt 0.3333 0.0000 0.0000
vt 0.5000 0.0000 0.0000
vt 0.6667 0.0000 0.0000
vt 0.8333 0.0000 0.0000
# 26 texture coords

o Sphere002
g Sphere002
usemtl Material__25
s 1
f 15/27/15 16/28/16 17/29/17 
f 15/30/15 17/29/17 18/31/18 
f 15/32/15 18/31/18 19/33/19 
f 15/34/15 19/33/19 20/35/20 
f 15/36/15 20/35/20 21/37/21 
f 15/38/15 21/37/21 16/39/16 
f 16/28/16 22/40/22 23/41/23 
f 16/28/16 23/41/23 17/29/17 
f 17/29/17 23/41/23 24/42/24 
f 17/29/17 24/42/24 18/31/18 
f 18/31/18 24/42/24 25/43/25 
f 18/31/18 25/43/25 19/33/19 
f 19/33/19 25/43/25 26/44/26 
f 19/33/19 26/44/26 20/35/20 
f 20/35/20 26/44/26 27/45/27 
f 20/35/20 27/45/27 21/37/21 
f 21/37/21 27/45/27 22/46/22 
f 21/37/21 22/46/22 16/39/16 
f 28/47/28 23/41/23 22/40/22 
f 28/48/28 24/42/24 23/41/23 
f 28/49/28 25/43/25 24/42/24 
f 28/50/28 26/44/26 25/43/25 
f 28/51/28 27/45/27 26/44/26 
f 28/52/28 22/46/22 27/45/27 
# 24 faces

#
# object Sphere003
#

v  77.1461 15.5856 -27.6952
v  78.7898 19.1105 -12.6441
v  86.8728 7.9336 -18.2606
v  78.1107 0.0335 -27.3482
v  64.6125 6.3278 -27.3482
v  65.0322 18.1181 -18.2606
v  70.0186 0.3005 -7.6576
# 7 vertices

vn 0.2721 0.5836 -0.7651
vn 0.3560 0.7635 0.5395
vn 0.9888 -0.1117 0.0997
vn 0.3028 -0.7303 -0.6119
vn -0.7541 -0.2375 -0.6119
vn -0.7212 0.6857 0.0997
vn -0.2721 -0.5836 0.7651
# 7 vertex normals

vt 0.0000 1.0000 0.0000
vt 0.0000 0.6000 0.0000
vt 0.2000 0.6000 0.0000
vt 0.2000 1.0000 0.0000
vt 0.4000 0.6000 0.0000
vt 0.4000 1.0000 0.0000
vt 0.6000 0.6000 0.0000
vt 0.6000 1.0000 0.0000
vt 0.8000 0.6000 0.0000
vt 0.8000 1.0000 0.0000
vt 1.0000 0.6000 0.0000
vt 0.0000 0.2000 0.0000
vt 0.2000 0.2000 0.0000
vt 0.4000 0.2000 0.0000
vt 0.6000 0.2000 0.0000
vt 0.8000 0.2000 0.0000
# 16 texture coords

o Sphere003
g Sphere003
usemtl Material__25
s 1
f 29/53/29 30/54/30 31/55/31 
f 29/56/29 31/55/31 32/57/32 
f 29/58/29 32/57/32 33/59/33 
f 29/60/29 33/59/33 34/61/34 
f 29/62/29 34/61/34 30/63/30 
f 35/64/35 31/55/31 30/54/30 
f 35/65/35 32/57/32 31/55/31 
f 35/66/35 33/59/33 32/57/32 
f 35/67/35 34/61/34 33/59/33 
f 35/68/35 30/63/30 34/61/34 
# 10 faces

#
# object Sphere004
#

v  -60.1388 5.2236 -10.0402
v  -64.6877 6.0257 -19.6319
v  -63.3855 13.4109 -16.0205
v  -63.0639 15.2349 -7.9058
v  -63.9651 10.1242 -1.3983
v  -65.4104 1.9272 -1.3983
v  -66.3116 -3.1835 -7.9058
v  -65.9899 -1.3595 -16.0205
v  -74.9091 7.8280 -22.0009
v  -73.2853 17.0372 -17.4975
v  -72.8843 19.3117 -7.3787
v  -74.0080 12.9387 0.7360
v  -75.8103 2.7173 0.7360
v  -76.9340 -3.6556 -7.3787
v  -76.5330 -1.3812 -17.4975
v  -84.3026 9.4843 -10.0402
# 16 vertices

vn 0.9848 -0.1736 0.0000
vn 0.5618 -0.0991 -0.8213
vn 0.6733 0.5333 -0.5121
vn 0.7008 0.6895 0.1828
vn 0.6237 0.2519 0.7400
vn 0.4999 -0.4500 0.7400
vn 0.4228 -0.8876 0.1828
vn 0.4503 -0.7314 -0.5121
vn -0.2874 0.0507 -0.9565
vn -0.1576 0.7871 -0.5963
vn -0.1255 0.9690 0.2128
vn -0.2154 0.4594 0.8617
vn -0.3595 -0.3580 0.8617
vn -0.4494 -0.8676 0.2128
vn -0.4173 -0.6857 -0.5963
vn -0.9848 0.1736 -0.0000
# 16 vertex normals

vt 0.0000 1.0000 0.0000
vt 0.0000 0.7143 0.0000
vt 0.1429 0.7143 0.0000
vt 0.1429 1.0000 0.0000
vt 0.2857 0.7143 0.0000
vt 0.2857 1.0000 0.0000
vt 0.4286 0.7143 0.0000
vt 0.4286 1.0000 0.0000
vt 0.5714 0.7143 0.0000
vt 0.5714 1.0000 0.0000
vt 0.7143 0.7143 0.0000
vt 0.7143 1.0000 0.0000
vt 0.8571 0.7143 0.0000
vt 0.8571 1.0000 0.0000
vt 1.0000 0.7143 0.0000
vt 0.0000 0.4286 0.0000
vt 0.1429 0.4286 0.0000
vt 0.2857 0.4286 0.0000
vt 0.4286 0.4286 0.0000
vt 0.5714 0.4286 0.0000
vt 0.7143 0.4286 0.0000
vt 0.8571 0.4286 0.0000
vt 1.0000 0.4286 0.0000
vt 0.0000 0.1429 0.0000
vt 0.1429 0.1429 0.0000
vt 0.2857 0.1429 0.0000
vt 0.4286 0.1429 0.0000
vt 0.5714 0.1429 0.0000
vt 0.7143 0.1429 0.0000
vt 0.8571 0.1429 0.0000
# 30 texture coords

o Sphere004
g Sphere004
usemtl Material__25
s 1
f 36/69/36 37/70/37 38/71/38 
f 36/72/36 38/71/38 39/73/39 
f 36/74/36 39/73/39 40/75/40 
f 36/76/36 40/75/40 41/77/41 
f 36/78/36 41/77/41 42/79/42 
f 36/80/36 42/79/42 43/81/43 
f 36/82/36 43/81/43 37/83/37 
f 37/70/37 44/84/44 45/85/45 
f 37/70/37 45/85/45 38/71/38 
f 38/71/38 45/85/45 46/86/46 
f 38/71/38 46/86/46 39/73/39 
f 39/73/39 46/86/46 47/87/47 
f 39/73/39 47/87/47 40/75/40 
f 40/75/40 47/87/47 48/88/48 
f 40/75/40 48/88/48 41/77/41 
f 41/77/41 48/88/48 49/89/49 
f 41/77/41 49/89/49 42/79/42 
f 42/79/42 49/89/49 50/90/50 
f 42/79/42 50/90/50 43/81/43 
f 43/81/43 50/90/50 44/91/44 
f 43/81/43 44/91/44 37/83/37 
f 51/92/51 45/85/45 44/84/44 
f 51/93/51 46/86/46 45/85/45 
f 51/94/51 47/87/47 46/86/46 
f 51/95/51 48/88/48 47/87/47 
f 51/96/51 49/89/49 48/88/48 
f 51/97/51 50/90/50 49/89/49 
f 51/98/51 44/91/44 50/90/50 
# 28 faces

#
# object Sphere005
#

v  1.6243 7.4194 -16.3332
v  1.6243 -4.6551 -11.7672
v  -7.4689 -0.2927 -11.3855
v  -9.7147 9.5094 -10.5279
v  -3.4220 17.3702 -9.8402
v  6.6706 17.3702 -9.8402
v  12.9633 9.5094 -10.5279
v  10.7175 -0.2927 -11.3855
v  1.6243 -8.6136 0.5199
v  -9.7147 -3.1738 0.9958
v  -12.5152 9.0493 2.0652
v  -4.6684 18.8515 2.9228
v  7.9170 18.8515 2.9228
v  15.7638 9.0493 2.0652
v  12.9633 -3.1738 0.9958
v  1.6243 4.8263 13.3058
# 16 vertices

vn -0.0000 0.0872 -0.9962
vn -0.0000 -0.7685 -0.6399
vn -0.6421 -0.4604 -0.6129
vn -0.8007 0.2318 -0.5524
vn -0.3564 0.7869 -0.5038
vn 0.3564 0.7869 -0.5038
vn 0.8007 0.2318 -0.5524
vn 0.6421 -0.4604 -0.6129
vn -0.0000 -0.9783 0.2074
vn -0.7478 -0.6195 0.2388
vn -0.9325 0.1866 0.3093
vn -0.4150 0.8330 0.3659
vn 0.4150 0.8330 0.3659
vn 0.9325 0.1866 0.3093
vn 0.7478 -0.6195 0.2388
vn 0.0000 -0.0872 0.9962
# 16 vertex normals

vt 0.0000 1.0000 0.0000
vt 0.0000 0.7143 0.0000
vt 0.1429 0.7143 0.0000
vt 0.1429 1.0000 0.0000
vt 0.2857 0.7143 0.0000
vt 0.2857 1.0000 0.0000
vt 0.4286 0.7143 0.0000
vt 0.4286 1.0000 0.0000
vt 0.5714 0.7143 0.0000
vt 0.5714 1.0000 0.0000
vt 0.7143 0.7143 0.0000
vt 0.7143 1.0000 0.0000
vt 0.8571 0.7143 0.0000
vt 0.8571 1.0000 0.0000
vt 1.0000 0.7143 0.0000
vt 0.0000 0.4286 0.0000
vt 0.1429 0.4286 0.0000
vt 0.2857 0.4286 0.0000
vt 0.4286 0.4286 0.0000
vt 0.5714 0.4286 0.0000
vt 0.7143 0.4286 0.0000
vt 0.8571 0.4286 0.0000
vt 1.0000 0.4286 0.0000
vt 0.0000 0.1429 0.0000
vt 0.1429 0.1429 0.0000
vt 0.2857 0.1429 0.0000
vt 0.4286 0.1429 0.0000
vt 0.5714 0.1429 0.0000
vt 0.7143 0.1429 0.0000
vt 0.8571 0.1429 0.0000
# 30 texture coords

o Sphere005
g Sphere005
usemtl Material__25
s 1
f 52/99/52 53/100/53 54/101/54 
f 52/102/52 54/101/54 55/103/55 
f 52/104/52 55/103/55 56/105/56 
f 52/106/52 56/105/56 57/107/57 
f 52/108/52 57/107/57 58/109/58 
f 52/110/52 58/109/58 59/111/59 
f 52/112/52 59/111/59 53/113/53 
f 53/100/53 60/114/60 61/115/61 
f 53/100/53 61/115/61 54/101/54 
f 54/101/54 61/115/61 62/116/62 
f 54/101/54 62/116/62 55/103/55 
f 55/103/55 62/116/62 63/117/63 
f 55/103/55 63/117/63 56/105/56 
f 56/105/56 63/117/63 64/118/64 
f 56/105/56 64/118/64 57/107/57 
f 57/107/57 64/118/64 65/119/65 
f 57/107/57 65/119/65 58/109/58 
f 58/109/58 65/119/65 66/120/66 
f 58/109/58 66/120/66 59/111/59 
f 59/111/59 66/120/66 60/121/60 
f 59/111/59 60/121/60 53/113/53 
f 67/122/67 61/115/61 60/114/60 
f 67/123/67 62/116/62 61/115/61 
f 67/124/67 63/117/63 62/116/62 
f 67/125/67 64/118/64 63/117/63 
f 67/126/67 65/119/65 64/118/64 
f 67/127/67 66/120/66 65/119/65 
f 67/128/67 60/121/60 66/120/66 
# 28 faces

#
# object Sphere006
#

v  90.1487 5.1947 -2.4493
v  92.8717 5.9243 -8.3031
v  94.0562 1.5036 -6.0991
v  94.3488 0.4117 -1.1467
v  93.5291 3.4710 2.8248
v  92.2143 8.3776 2.8248
v  91.3946 11.4368 -1.1467
v  91.6872 10.3450 -6.0991
v  98.9902 7.5637 -9.7489
v  100.4673 2.0512 -7.0005
v  100.8321 0.6897 -0.8250
v  99.8099 4.5045 4.1274
v  98.1704 10.6230 4.1274
v  97.1483 14.4378 -0.8250
v  97.5131 13.0763 -7.0005
v  104.6130 9.0704 -2.4493
# 16 vertices

vn -0.9659 -0.2588 0.0000
vn -0.5510 -0.1476 -0.8213
vn -0.3848 -0.7679 -0.5121
vn -0.3438 -0.9211 0.1828
vn -0.4588 -0.4919 0.7400
vn -0.6433 0.1966 0.7400
vn -0.7583 0.6258 0.1828
vn -0.7172 0.4726 -0.5121
vn 0.2819 0.0755 -0.9565
vn 0.4755 -0.6468 -0.5963
vn 0.5233 -0.8252 0.2128
vn 0.3893 -0.3253 0.8617
vn 0.1745 0.4764 0.8617
vn 0.0406 0.9762 0.2128
vn 0.0884 0.7979 -0.5963
vn 0.9659 0.2588 -0.0000
# 16 vertex normals

vt 0.0000 1.0000 0.0000
vt 0.0000 0.7143 0.0000
vt 0.1429 0.7143 0.0000
vt 0.1429 1.0000 0.0000
vt 0.2857 0.7143 0.0000
vt 0.2857 1.0000 0.0000
vt 0.4286 0.7143 0.0000
vt 0.4286 1.0000 0.0000
vt 0.5714 0.7143 0.0000
vt 0.5714 1.0000 0.0000
vt 0.7143 0.7143 0.0000
vt 0.7143 1.0000 0.0000
vt 0.8571 0.7143 0.0000
vt 0.8571 1.0000 0.0000
vt 1.0000 0.7143 0.0000
vt 0.0000 0.4286 0.0000
vt 0.1429 0.4286 0.0000
vt 0.2857 0.4286 0.0000
vt 0.4286 0.4286 0.0000
vt 0.5714 0.4286 0.0000
vt 0.7143 0.4286 0.0000
vt 0.8571 0.4286 0.0000
vt 1.0000 0.4286 0.0000
vt 0.0000 0.1429 0.0000
vt 0.1429 0.1429 0.0000
vt 0.2857 0.1429 0.0000
vt 0.4286 0.1429 0.0000
vt 0.5714 0.1429 0.0000
vt 0.7143 0.1429 0.0000
vt 0.8571 0.1429 0.0000
# 30 texture coords

o Sphere006
g Sphere006
usemtl Material__25
s 1
f 68/129/68 69/130/69 70/131/70 
f 68/132/68 70/131/70 71/133/71 
f 68/134/68 71/133/71 72/135/72 
f 68/136/68 72/135/72 73/137/73 
f 68/138/68 73/137/73 74/139/74 
f 68/140/68 74/139/74 75/141/75 
f 68/142/68 75/141/75 69/143/69 
f 69/130/69 76/144/76 77/145/77 
f 69/130/69 77/145/77 70/131/70 
f 70/131/70 77/145/77 78/146/78 
f 70/131/70 78/146/78 71/133/71 
f 71/133/71 78/146/78 79/147/79 
f 71/133/71 79/147/79 72/135/72 
f 72/135/72 79/147/79 80/148/80 
f 72/135/72 80/148/80 73/137/73 
f 73/137/73 80/148/80 81/149/81 
f 73/137/73 81/149/81 74/139/74 
f 74/139/74 81/149/81 82/150/82 
f 74/139/74 82/150/82 75/141/75 
f 75/141/75 82/150/82 76/151/76 
f 75/141/75 76/151/76 69/143/69 
f 83/152/83 77/145/77 76/144/76 
f 83/153/83 78/146/78 77/145/77 
f 83/154/83 79/147/79 78/146/78 
f 83/155/83 80/148/80 79/147/79 
f 83/156/83 81/149/81 80/148/80 
f 83/157/83 82/150/82 81/149/81 
f 83/158/83 76/151/76 82/150/82 
# 28 faces

#
# object Sphere007
#

v  5.9822 15.8233 -101.0804
v  -4.6605 21.5016 -91.2748
v  7.8310 15.6798 -85.6294
v  11.0025 3.3009 -93.2763
v  0.4711 1.4721 -103.6478
v  -9.2092 12.7208 -102.4108
v  -8.1866 1.6747 -84.1984
# 7 vertices

vn 0.5410 0.5402 -0.6446
vn -0.3815 0.8959 0.2294
vn 0.5966 0.4400 0.6714
vn 0.8449 -0.5293 0.0726
vn 0.0204 -0.6725 -0.7394
vn -0.7376 0.2083 -0.6425
vn -0.5410 -0.5402 0.6446
# 7 vertex normals

vt 0.0000 1.0000 0.0000
vt 0.0000 0.6000 0.0000
vt 0.2000 0.6000 0.0000
vt 0.2000 1.0000 0.0000
vt 0.4000 0.6000 0.0000
vt 0.4000 1.0000 0.0000
vt 0.6000 0.6000 0.0000
vt 0.6000 1.0000 0.0000
vt 0.8000 0.6000 0.0000
vt 0.8000 1.0000 0.0000
vt 1.0000 0.6000 0.0000
vt 0.0000 0.2000 0.0000
vt 0.2000 0.2000 0.0000
vt 0.4000 0.2000 0.0000
vt 0.6000 0.2000 0.0000
vt 0.8000 0.2000 0.0000
# 16 texture coords

o Sphere007
g Sphere007
usemtl Material__25
s 1
f 84/159/84 85/160/85 86/161/86 
f 84/162/84 86/161/86 87/163/87 
f 84/164/84 87/163/87 88/165/88 
f 84/166/84 88/165/88 89/167/89 
f 84/168/84 89/167/89 85/169/85 
f 90/170/90 86/161/86 85/160/85 
f 90/171/90 87/163/87 86/161/86 
f 90/172/90 88/165/88 87/163/87 
f 90/173/90 89/167/89 88/165/88 
f 90/174/90 85/169/85 89/167/89 
# 10 faces

#
# object Sphere008
#

v  38.7217 -2.4394 53.7049
v  50.5185 -0.8748 61.8303
v  39.6892 1.6881 67.4767
v  30.2995 6.7173 60.9753
v  31.7393 9.1835 48.8274
v  42.5686 6.6205 43.1809
v  51.9583 1.5914 49.6824
v  55.3330 12.3126 65.0781
v  44.5036 14.8756 70.7246
v  35.1140 19.9047 64.2231
v  36.5537 22.3709 52.0752
v  47.3831 19.8079 46.4288
v  56.7727 14.7788 52.9302
v  48.3505 23.9355 60.2006
# 14 vertices

vn -0.3341 -0.9152 -0.2254
vn 0.5277 -0.7655 0.3680
vn -0.2510 -0.5812 0.7741
vn -0.9262 -0.2196 0.3066
vn -0.8226 -0.0423 -0.5670
vn -0.0439 -0.2266 -0.9730
vn 0.6313 -0.5882 -0.5055
vn 0.8226 0.0423 0.5670
vn 0.0439 0.2266 0.9730
vn -0.6313 0.5882 0.5055
vn -0.5277 0.7655 -0.3680
vn 0.2510 0.5812 -0.7741
vn 0.9262 0.2196 -0.3066
vn 0.3341 0.9152 0.2254
# 14 vertex normals

vt 0.0000 1.0000 0.0000
vt 0.0000 0.6667 0.0000
vt 0.1667 0.6667 0.0000
vt 0.1667 1.0000 0.0000
vt 0.3333 0.6667 0.0000
vt 0.3333 1.0000 0.0000
vt 0.5000 0.6667 0.0000
vt 0.5000 1.0000 0.0000
vt 0.6667 0.6667 0.0000
vt 0.6667 1.0000 0.0000
vt 0.8333 0.6667 0.0000
vt 0.8333 1.0000 0.0000
vt 1.0000 0.6667 0.0000
vt 0.0000 0.3333 0.0000
vt 0.1667 0.3333 0.0000
vt 0.3333 0.3333 0.0000
vt 0.5000 0.3333 0.0000
vt 0.6667 0.3333 0.0000
vt 0.8333 0.3333 0.0000
vt 1.0000 0.3333 0.0000
vt 0.0000 0.0000 0.0000
vt 0.1667 0.0000 0.0000
vt 0.3333 0.0000 0.0000
vt 0.5000 0.0000 0.0000
vt 0.6667 0.0000 0.0000
vt 0.8333 0.0000 0.0000
# 26 texture coords

o Sphere008
g Sphere008
usemtl Material__25
s 1
f 91/175/91 92/176/92 93/177/93 
f 91/178/91 93/177/93 94/179/94 
f 91/180/91 94/179/94 95/181/95 
f 91/182/91 95/181/95 96/183/96 
f 91/184/91 96/183/96 97/185/97 
f 91/186/91 97/185/97 92/187/92 
f 92/176/92 98/188/98 99/189/99 
f 92/176/92 99/189/99 93/177/93 
f 93/177/93 99/189/99 100/190/100 
f 93/177/93 100/190/100 94/179/94 
f 94/179/94 100/190/100 101/191/101 
f 94/179/94 101/191/101 95/181/95 
f 95/181/95 101/191/101 102/192/102 
f 95/181/95 102/192/102 96/183/96 
f 96/183/96 102/192/102 103/193/103 
f 96/183/96 103/193/103 97/185/97 
f 97/185/97 103/193/103 98/194/98 
f 97/185/97 98/194/98 92/187/92 
f 104/195/104 99/189/99 98/188/98 
f 104/196/104 100/190/100 99/189/99 
f 104/197/104 101/191/101 100/190/100 
f 104/198/104 102/192/102 101/191/101 
f 104/199/104 103/193/103 102/192/102 
f 104/200/104 98/194/98 103/193/103 
# 24 faces

