# 3ds Max Wavefront OBJ Exporter v0.97b - (c)2007 guruware
# File Created: 26.03.2019 17:42:56

mtllib stone0.mtl

#
# object Sphere001
#

v  -7.9291 30.2323 9.9145
v  -11.0096 23.7193 -2.5646
v  -20.7791 28.3399 3.6750
v  -20.7791 28.3399 16.1540
v  -11.0096 23.7193 22.3935
v  -1.2400 19.0986 16.1540
v  -1.2400 19.0986 3.6750
v  -17.1705 10.6932 -2.5646
v  -26.9400 15.3139 3.6750
v  -26.9400 15.3139 16.1540
v  -17.1705 10.6932 22.3935
v  -7.4009 6.0725 16.1540
v  -7.4009 6.0725 3.6750
v  -20.2509 4.1802 9.9145
# 14 vertices

vn 0.4276 0.9040 -0.0000
vn 0.1887 0.3990 -0.8973
vn -0.5138 0.7312 -0.4487
vn -0.5138 0.7312 0.4487
vn 0.1887 0.3990 0.8973
vn 0.8912 0.0667 0.4487
vn 0.8912 0.0667 -0.4487
vn -0.1887 -0.3990 -0.8973
vn -0.8912 -0.0667 -0.4487
vn -0.8912 -0.0667 0.4487
vn -0.1887 -0.3990 0.8973
vn 0.5138 -0.7312 0.4487
vn 0.5138 -0.7312 -0.4487
vn -0.4276 -0.9040 -0.0000
# 14 vertex normals

vt 0.0000 1.0000 0.0000
vt 0.0000 0.6667 0.0000
vt 0.1667 0.6667 0.0000
vt 0.1667 1.0000 0.0000
vt 0.3333 0.6667 0.0000
vt 0.3333 1.0000 0.0000
vt 0.5000 0.6667 0.0000
vt 0.5000 1.0000 0.0000
vt 0.6667 0.6667 0.0000
vt 0.6667 1.0000 0.0000
vt 0.8333 0.6667 0.0000
vt 0.8333 1.0000 0.0000
vt 1.0000 0.6667 0.0000
vt 0.0000 0.3333 0.0000
vt 0.1667 0.3333 0.0000
vt 0.3333 0.3333 0.0000
vt 0.5000 0.3333 0.0000
vt 0.6667 0.3333 0.0000
vt 0.8333 0.3333 0.0000
vt 1.0000 0.3333 0.0000
vt 0.0000 0.0000 0.0000
vt 0.1667 0.0000 0.0000
vt 0.3333 0.0000 0.0000
vt 0.5000 0.0000 0.0000
vt 0.6667 0.0000 0.0000
vt 0.8333 0.0000 0.0000
# 26 texture coords

o Sphere001
g Sphere001
usemtl Material__25
s 1
f 1/1/1 2/2/2 3/3/3 
f 1/4/1 3/3/3 4/5/4 
f 1/6/1 4/5/4 5/7/5 
f 1/8/1 5/7/5 6/9/6 
f 1/10/1 6/9/6 7/11/7 
f 1/12/1 7/11/7 2/13/2 
f 2/2/2 8/14/8 9/15/9 
f 2/2/2 9/15/9 3/3/3 
f 3/3/3 9/15/9 10/16/10 
f 3/3/3 10/16/10 4/5/4 
f 4/5/4 10/16/10 11/17/11 
f 4/5/4 11/17/11 5/7/5 
f 5/7/5 11/17/11 12/18/12 
f 5/7/5 12/18/12 6/9/6 
f 6/9/6 12/18/12 13/19/13 
f 6/9/6 13/19/13 7/11/7 
f 7/11/7 13/19/13 8/20/8 
f 7/11/7 8/20/8 2/13/2 
f 14/21/14 9/15/9 8/14/8 
f 14/22/14 10/16/10 9/15/9 
f 14/23/14 11/17/11 10/16/10 
f 14/24/14 12/18/12 11/17/11 
f 14/25/14 13/19/13 12/18/12 
f 14/26/14 8/20/8 13/19/13 
# 24 faces

#
# object Sphere002
#

v  6.0260 20.0966 16.5713
v  6.3359 17.9746 9.9283
v  1.1161 16.8952 12.7804
v  1.1080 15.6183 18.6893
v  6.3198 15.4209 21.7462
v  11.5396 16.5004 18.8942
v  11.5477 17.7772 12.9852
v  6.9395 11.1770 8.4603
v  1.7197 10.0975 11.3123
v  1.7116 8.8207 17.2212
v  6.9234 8.6233 20.2781
v  12.1432 9.7027 17.4261
v  12.1513 10.9796 11.5172
v  7.2333 6.5013 13.6352
# 14 vertices

vn -0.0865 0.9738 0.2103
vn -0.0370 0.6193 -0.7843
vn -0.8118 0.4591 -0.3609
vn -0.8130 0.2695 0.5162
vn -0.0394 0.2402 0.9699
vn 0.7354 0.4005 0.5466
vn 0.7366 0.5900 -0.3305
vn 0.0394 -0.2402 -0.9699
vn -0.7354 -0.4005 -0.5466
vn -0.7366 -0.5900 0.3305
vn 0.0370 -0.6193 0.7843
vn 0.8118 -0.4591 0.3609
vn 0.8130 -0.2695 -0.5162
vn 0.0865 -0.9738 -0.2103
# 14 vertex normals

vt 0.0000 1.0000 0.0000
vt 0.0000 0.6667 0.0000
vt 0.1667 0.6667 0.0000
vt 0.1667 1.0000 0.0000
vt 0.3333 0.6667 0.0000
vt 0.3333 1.0000 0.0000
vt 0.5000 0.6667 0.0000
vt 0.5000 1.0000 0.0000
vt 0.6667 0.6667 0.0000
vt 0.6667 1.0000 0.0000
vt 0.8333 0.6667 0.0000
vt 0.8333 1.0000 0.0000
vt 1.0000 0.6667 0.0000
vt 0.0000 0.3333 0.0000
vt 0.1667 0.3333 0.0000
vt 0.3333 0.3333 0.0000
vt 0.5000 0.3333 0.0000
vt 0.6667 0.3333 0.0000
vt 0.8333 0.3333 0.0000
vt 1.0000 0.3333 0.0000
vt 0.0000 0.0000 0.0000
vt 0.1667 0.0000 0.0000
vt 0.3333 0.0000 0.0000
vt 0.5000 0.0000 0.0000
vt 0.6667 0.0000 0.0000
vt 0.8333 0.0000 0.0000
# 26 texture coords

o Sphere002
g Sphere002
usemtl Material__25
s 1
f 15/27/15 16/28/16 17/29/17 
f 15/30/15 17/29/17 18/31/18 
f 15/32/15 18/31/18 19/33/19 
f 15/34/15 19/33/19 20/35/20 
f 15/36/15 20/35/20 21/37/21 
f 15/38/15 21/37/21 16/39/16 
f 16/28/16 22/40/22 23/41/23 
f 16/28/16 23/41/23 17/29/17 
f 17/29/17 23/41/23 24/42/24 
f 17/29/17 24/42/24 18/31/18 
f 18/31/18 24/42/24 25/43/25 
f 18/31/18 25/43/25 19/33/19 
f 19/33/19 25/43/25 26/44/26 
f 19/33/19 26/44/26 20/35/20 
f 20/35/20 26/44/26 27/45/27 
f 20/35/20 27/45/27 21/37/21 
f 21/37/21 27/45/27 22/46/22 
f 21/37/21 22/46/22 16/39/16 
f 28/47/28 23/41/23 22/40/22 
f 28/48/28 24/42/24 23/41/23 
f 28/49/28 25/43/25 24/42/24 
f 28/50/28 26/44/26 25/43/25 
f 28/51/28 27/45/27 26/44/26 
f 28/52/28 22/46/22 27/45/27 
# 24 faces

#
# object Sphere003
#

v  9.5827 5.2777 -19.3732
v  8.0357 1.7093 -4.3222
v  -0.3491 12.6616 -9.9387
v  8.1943 20.7977 -19.0263
v  21.8592 14.8737 -19.0263
v  21.7612 3.0764 -9.9387
v  16.2908 20.7514 0.6643
# 7 vertices

vn -0.2561 -0.5908 -0.7651
vn -0.3351 -0.7729 0.5395
vn -0.9915 0.0847 0.0997
vn -0.3226 0.7218 -0.6119
vn 0.7473 0.2580 -0.6119
vn 0.7396 -0.6658 0.0997
vn 0.2561 0.5908 0.7651
# 7 vertex normals

vt 0.0000 1.0000 0.0000
vt 0.0000 0.6000 0.0000
vt 0.2000 0.6000 0.0000
vt 0.2000 1.0000 0.0000
vt 0.4000 0.6000 0.0000
vt 0.4000 1.0000 0.0000
vt 0.6000 0.6000 0.0000
vt 0.6000 1.0000 0.0000
vt 0.8000 0.6000 0.0000
vt 0.8000 1.0000 0.0000
vt 1.0000 0.6000 0.0000
vt 0.0000 0.2000 0.0000
vt 0.2000 0.2000 0.0000
vt 0.4000 0.2000 0.0000
vt 0.6000 0.2000 0.0000
vt 0.8000 0.2000 0.0000
# 16 texture coords

o Sphere003
g Sphere003
usemtl Material__25
s 1
f 29/53/29 30/54/30 31/55/31 
f 29/56/29 31/55/31 32/57/32 
f 29/58/29 32/57/32 33/59/33 
f 29/60/29 33/59/33 34/61/34 
f 29/62/29 34/61/34 30/63/30 
f 35/64/35 31/55/31 30/54/30 
f 35/65/35 32/57/32 31/55/31 
f 35/66/35 33/59/33 32/57/32 
f 35/67/35 34/61/34 33/59/33 
f 35/68/35 30/63/30 34/61/34 
# 10 faces

#
# object Sphere004
#

v  -22.0197 24.9774 -10.0402
v  -19.9767 20.8346 -19.6319
v  -26.7024 17.5178 -16.0205
v  -28.3635 16.6986 -7.9058
v  -23.7092 18.9939 -1.3983
v  -16.2442 22.6753 -1.3983
v  -11.5898 24.9705 -7.9058
v  -13.2509 24.1514 -16.0205
v  -15.3861 11.5259 -22.0009
v  -23.7730 7.3899 -17.4975
v  -25.8444 6.3684 -7.3787
v  -20.0405 9.2306 0.7360
v  -10.7318 13.8211 0.7360
v  -4.9279 16.6833 -7.3787
v  -6.9992 15.6618 -17.4975
v  -11.1674 2.9712 -10.0402
# 16 vertices

vn -0.4423 0.8969 0.0000
vn -0.2523 0.5116 -0.8213
vn -0.8282 0.2276 -0.5121
vn -0.9705 0.1575 0.1828
vn -0.5719 0.3540 0.7400
vn 0.0673 0.6692 0.7400
vn 0.4658 0.8658 0.1828
vn 0.3236 0.7956 -0.5121
vn 0.1291 -0.2618 -0.9565
vn -0.5416 -0.5925 -0.5963
vn -0.7072 -0.6742 0.2128
vn -0.2431 -0.4453 0.8617
vn 0.5013 -0.0782 0.8617
vn 0.9654 0.1507 0.2128
vn 0.7998 0.0690 -0.5963
vn 0.4423 -0.8969 -0.0000
# 16 vertex normals

vt 0.0000 1.0000 0.0000
vt 0.0000 0.7143 0.0000
vt 0.1429 0.7143 0.0000
vt 0.1429 1.0000 0.0000
vt 0.2857 0.7143 0.0000
vt 0.2857 1.0000 0.0000
vt 0.4286 0.7143 0.0000
vt 0.4286 1.0000 0.0000
vt 0.5714 0.7143 0.0000
vt 0.5714 1.0000 0.0000
vt 0.7143 0.7143 0.0000
vt 0.7143 1.0000 0.0000
vt 0.8571 0.7143 0.0000
vt 0.8571 1.0000 0.0000
vt 1.0000 0.7143 0.0000
vt 0.0000 0.4286 0.0000
vt 0.1429 0.4286 0.0000
vt 0.2857 0.4286 0.0000
vt 0.4286 0.4286 0.0000
vt 0.5714 0.4286 0.0000
vt 0.7143 0.4286 0.0000
vt 0.8571 0.4286 0.0000
vt 1.0000 0.4286 0.0000
vt 0.0000 0.1429 0.0000
vt 0.1429 0.1429 0.0000
vt 0.2857 0.1429 0.0000
vt 0.4286 0.1429 0.0000
vt 0.5714 0.1429 0.0000
vt 0.7143 0.1429 0.0000
vt 0.8571 0.1429 0.0000
# 30 texture coords

o Sphere004
g Sphere004
usemtl Material__25
s 1
f 36/69/36 37/70/37 38/71/38 
f 36/72/36 38/71/38 39/73/39 
f 36/74/36 39/73/39 40/75/40 
f 36/76/36 40/75/40 41/77/41 
f 36/78/36 41/77/41 42/79/42 
f 36/80/36 42/79/42 43/81/43 
f 36/82/36 43/81/43 37/83/37 
f 37/70/37 44/84/44 45/85/45 
f 37/70/37 45/85/45 38/71/38 
f 38/71/38 45/85/45 46/86/46 
f 38/71/38 46/86/46 39/73/39 
f 39/73/39 46/86/46 47/87/47 
f 39/73/39 47/87/47 40/75/40 
f 40/75/40 47/87/47 48/88/48 
f 40/75/40 48/88/48 41/77/41 
f 41/77/41 48/88/48 49/89/49 
f 41/77/41 49/89/49 42/79/42 
f 42/79/42 49/89/49 50/90/50 
f 42/79/42 50/90/50 43/81/43 
f 43/81/43 50/90/50 44/91/44 
f 43/81/43 44/91/44 37/83/37 
f 51/92/51 45/85/45 44/84/44 
f 51/93/51 46/86/46 45/85/45 
f 51/94/51 47/87/47 46/86/46 
f 51/95/51 48/88/48 47/87/47 
f 51/96/51 49/89/49 48/88/48 
f 51/97/51 50/90/50 49/89/49 
f 51/98/51 44/91/44 50/90/50 
# 28 faces

#
# object Sphere005
#

v  1.6243 36.7546 3.0369
v  1.6243 34.9799 -9.7495
v  -7.4689 33.6404 -5.5804
v  -9.7147 30.6304 3.7876
v  -3.4220 28.2166 11.3000
v  6.6706 28.2166 11.3000
v  12.9633 30.6304 3.7876
v  10.7175 33.6404 -5.5804
v  1.6243 23.8766 -16.3342
v  -9.7147 22.2062 -11.1354
v  -12.5152 18.4528 0.5462
v  -4.6684 15.4429 9.9141
v  7.9170 15.4429 9.9141
v  15.7638 18.4528 0.5462
v  12.9633 22.2062 -11.1354
v  1.6243 8.4287 -6.0643
# 16 vertices

vn -0.0000 0.9521 0.3059
vn -0.0000 0.7944 -0.6074
vn -0.6421 0.6998 -0.3130
vn -0.8007 0.4872 0.3485
vn -0.3564 0.3168 0.8790
vn 0.3564 0.3168 0.8790
vn 0.8007 0.4872 0.3485
vn 0.6421 0.6998 -0.3130
vn -0.0000 0.0147 -0.9999
vn -0.7478 -0.0955 -0.6570
vn -0.9325 -0.3430 0.1133
vn -0.4150 -0.5415 0.7311
vn 0.4150 -0.5415 0.7311
vn 0.9325 -0.3430 0.1133
vn 0.7478 -0.0955 -0.6570
vn 0.0000 -0.9521 -0.3059
# 16 vertex normals

vt 0.0000 1.0000 0.0000
vt 0.0000 0.7143 0.0000
vt 0.1429 0.7143 0.0000
vt 0.1429 1.0000 0.0000
vt 0.2857 0.7143 0.0000
vt 0.2857 1.0000 0.0000
vt 0.4286 0.7143 0.0000
vt 0.4286 1.0000 0.0000
vt 0.5714 0.7143 0.0000
vt 0.5714 1.0000 0.0000
vt 0.7143 0.7143 0.0000
vt 0.7143 1.0000 0.0000
vt 0.8571 0.7143 0.0000
vt 0.8571 1.0000 0.0000
vt 1.0000 0.7143 0.0000
vt 0.0000 0.4286 0.0000
vt 0.1429 0.4286 0.0000
vt 0.2857 0.4286 0.0000
vt 0.4286 0.4286 0.0000
vt 0.5714 0.4286 0.0000
vt 0.7143 0.4286 0.0000
vt 0.8571 0.4286 0.0000
vt 1.0000 0.4286 0.0000
vt 0.0000 0.1429 0.0000
vt 0.1429 0.1429 0.0000
vt 0.2857 0.1429 0.0000
vt 0.4286 0.1429 0.0000
vt 0.5714 0.1429 0.0000
vt 0.7143 0.1429 0.0000
vt 0.8571 0.1429 0.0000
# 30 texture coords

o Sphere005
g Sphere005
usemtl Material__25
s 1
f 52/99/52 53/100/53 54/101/54 
f 52/102/52 54/101/54 55/103/55 
f 52/104/52 55/103/55 56/105/56 
f 52/106/52 56/105/56 57/107/57 
f 52/108/52 57/107/57 58/109/58 
f 52/110/52 58/109/58 59/111/59 
f 52/112/52 59/111/59 53/113/53 
f 53/100/53 60/114/60 61/115/61 
f 53/100/53 61/115/61 54/101/54 
f 54/101/54 61/115/61 62/116/62 
f 54/101/54 62/116/62 55/103/55 
f 55/103/55 62/116/62 63/117/63 
f 55/103/55 63/117/63 56/105/56 
f 56/105/56 63/117/63 64/118/64 
f 56/105/56 64/118/64 57/107/57 
f 57/107/57 64/118/64 65/119/65 
f 57/107/57 65/119/65 58/109/58 
f 58/109/58 65/119/65 66/120/66 
f 58/109/58 66/120/66 59/111/59 
f 59/111/59 66/120/66 60/121/60 
f 59/111/59 60/121/60 53/113/53 
f 67/122/67 61/115/61 60/114/60 
f 67/123/67 62/116/62 61/115/61 
f 67/124/67 63/117/63 62/116/62 
f 67/125/67 64/118/64 63/117/63 
f 67/126/67 65/119/65 64/118/64 
f 67/127/67 66/120/66 65/119/65 
f 67/128/67 60/121/60 66/120/66 
# 28 faces

#
# object Sphere006
#

v  26.2739 16.7715 -2.4493
v  25.4851 14.0650 -8.3031
v  21.0912 15.3457 -6.0991
v  20.0061 15.6620 -1.1467
v  23.0467 14.7758 2.8248
v  27.9235 13.3543 2.8248
v  30.9641 12.4681 -1.1467
v  29.8789 12.7844 -6.0991
v  23.7126 7.9838 -9.7489
v  18.2335 9.5808 -7.0005
v  16.8803 9.9752 -0.8250
v  20.6719 8.8701 4.1274
v  26.7532 7.0975 4.1274
v  30.5448 5.9924 -0.8250
v  29.1916 6.3868 -7.0005
v  22.0836 2.3952 -2.4493
# 16 vertices

vn 0.2798 0.9600 0.0000
vn 0.1596 0.5477 -0.8213
vn -0.4569 0.7274 -0.5121
vn -0.6091 0.7717 0.1828
vn -0.1825 0.6474 0.7400
vn 0.5018 0.4480 0.7400
vn 0.9284 0.3236 0.1828
vn 0.7761 0.3680 -0.5121
vn -0.0817 -0.2802 -0.9565
vn -0.7996 -0.0710 -0.5963
vn -0.9769 -0.0193 0.2128
vn -0.4801 -0.1641 0.8617
vn 0.3167 -0.3963 0.8617
vn 0.8136 -0.5411 0.2128
vn 0.6362 -0.4895 -0.5963
vn -0.2798 -0.9600 -0.0000
# 16 vertex normals

vt 0.0000 1.0000 0.0000
vt 0.0000 0.7143 0.0000
vt 0.1429 0.7143 0.0000
vt 0.1429 1.0000 0.0000
vt 0.2857 0.7143 0.0000
vt 0.2857 1.0000 0.0000
vt 0.4286 0.7143 0.0000
vt 0.4286 1.0000 0.0000
vt 0.5714 0.7143 0.0000
vt 0.5714 1.0000 0.0000
vt 0.7143 0.7143 0.0000
vt 0.7143 1.0000 0.0000
vt 0.8571 0.7143 0.0000
vt 0.8571 1.0000 0.0000
vt 1.0000 0.7143 0.0000
vt 0.0000 0.4286 0.0000
vt 0.1429 0.4286 0.0000
vt 0.2857 0.4286 0.0000
vt 0.4286 0.4286 0.0000
vt 0.5714 0.4286 0.0000
vt 0.7143 0.4286 0.0000
vt 0.8571 0.4286 0.0000
vt 1.0000 0.4286 0.0000
vt 0.0000 0.1429 0.0000
vt 0.1429 0.1429 0.0000
vt 0.2857 0.1429 0.0000
vt 0.4286 0.1429 0.0000
vt 0.5714 0.1429 0.0000
vt 0.7143 0.1429 0.0000
vt 0.8571 0.1429 0.0000
# 30 texture coords

o Sphere006
g Sphere006
usemtl Material__25
s 1
f 68/129/68 69/130/69 70/131/70 
f 68/132/68 70/131/70 71/133/71 
f 68/134/68 71/133/71 72/135/72 
f 68/136/68 72/135/72 73/137/73 
f 68/138/68 73/137/73 74/139/74 
f 68/140/68 74/139/74 75/141/75 
f 68/142/68 75/141/75 69/143/69 
f 69/130/69 76/144/76 77/145/77 
f 69/130/69 77/145/77 70/131/70 
f 70/131/70 77/145/77 78/146/78 
f 70/131/70 78/146/78 71/133/71 
f 71/133/71 78/146/78 79/147/79 
f 71/133/71 79/147/79 72/135/72 
f 72/135/72 79/147/79 80/148/80 
f 72/135/72 80/148/80 73/137/73 
f 73/137/73 80/148/80 81/149/81 
f 73/137/73 81/149/81 74/139/74 
f 74/139/74 81/149/81 82/150/82 
f 74/139/74 82/150/82 75/141/75 
f 75/141/75 82/150/82 76/151/76 
f 75/141/75 76/151/76 69/143/69 
f 83/152/83 77/145/77 76/144/76 
f 83/153/83 78/146/78 77/145/77 
f 83/154/83 79/147/79 78/146/78 
f 83/155/83 80/148/80 79/147/79 
f 83/156/83 81/149/81 80/148/80 
f 83/157/83 82/150/82 81/149/81 
f 83/158/83 76/151/76 82/150/82 
# 28 faces

#
# object Sphere007
#

v  5.6678 4.4671 -12.7253
v  -5.1285 -1.3749 -22.2631
v  7.6018 3.6403 -28.1444
v  11.1946 16.3180 -21.2063
v  0.6849 19.1380 -11.0370
v  -9.4034 8.2032 -11.6901
v  -7.8722 18.1225 -30.5054
# 7 vertices

vn 0.5170 -0.5214 0.6789
vn -0.4136 -0.8930 -0.1798
vn 0.5832 -0.5002 -0.6403
vn 0.8645 0.4925 -0.0970
vn 0.0417 0.7133 0.6992
vn -0.7482 -0.1430 0.6480
vn -0.5170 0.5214 -0.6789
# 7 vertex normals

vt 0.0000 1.0000 0.0000
vt 0.0000 0.6000 0.0000
vt 0.2000 0.6000 0.0000
vt 0.2000 1.0000 0.0000
vt 0.4000 0.6000 0.0000
vt 0.4000 1.0000 0.0000
vt 0.6000 0.6000 0.0000
vt 0.6000 1.0000 0.0000
vt 0.8000 0.6000 0.0000
vt 0.8000 1.0000 0.0000
vt 1.0000 0.6000 0.0000
vt 0.0000 0.2000 0.0000
vt 0.2000 0.2000 0.0000
vt 0.4000 0.2000 0.0000
vt 0.6000 0.2000 0.0000
vt 0.8000 0.2000 0.0000
# 16 texture coords

o Sphere007
g Sphere007
usemtl Material__25
s 1
f 84/159/84 85/160/85 86/161/86 
f 84/162/84 86/161/86 87/163/87 
f 84/164/84 87/163/87 88/165/88 
f 84/166/84 88/165/88 89/167/89 
f 84/168/84 89/167/89 85/169/85 
f 90/170/90 86/161/86 85/160/85 
f 90/171/90 87/163/87 86/161/86 
f 90/172/90 88/165/88 87/163/87 
f 90/173/90 89/167/89 88/165/88 
f 90/174/90 85/169/85 89/167/89 
# 10 faces

#
# object Sphere008
#

v  21.9172 3.2410 21.0389
v  27.2313 16.5637 19.6603
v  17.6114 15.3696 27.5190
v  8.6410 7.0166 25.1770
v  9.2905 -0.1424 14.9763
v  18.9104 1.0516 7.1176
v  27.8807 9.4047 9.4596
v  19.9187 26.5030 12.2191
v  10.2988 25.3090 20.0778
v  1.3284 16.9559 17.7358
v  1.9779 9.7969 7.5351
v  11.5978 10.9910 -0.3235
v  20.5682 19.3440 2.0185
v  7.2920 23.1196 6.1565
# 14 vertices

vn 0.5075 -0.6898 0.5164
vn 0.8690 0.2962 0.3963
vn 0.1773 0.2104 0.9614
vn -0.4678 -0.3903 0.7930
vn -0.4211 -0.9051 0.0595
vn 0.2707 -0.8192 -0.5056
vn 0.9157 -0.2186 -0.3372
vn 0.4211 0.9051 -0.0595
vn -0.2707 0.8192 0.5056
vn -0.9157 0.2186 0.3372
vn -0.8690 -0.2962 -0.3963
vn -0.1773 -0.2104 -0.9614
vn 0.4678 0.3903 -0.7930
vn -0.5075 0.6898 -0.5164
# 14 vertex normals

vt 0.0000 1.0000 0.0000
vt 0.0000 0.6667 0.0000
vt 0.1667 0.6667 0.0000
vt 0.1667 1.0000 0.0000
vt 0.3333 0.6667 0.0000
vt 0.3333 1.0000 0.0000
vt 0.5000 0.6667 0.0000
vt 0.5000 1.0000 0.0000
vt 0.6667 0.6667 0.0000
vt 0.6667 1.0000 0.0000
vt 0.8333 0.6667 0.0000
vt 0.8333 1.0000 0.0000
vt 1.0000 0.6667 0.0000
vt 0.0000 0.3333 0.0000
vt 0.1667 0.3333 0.0000
vt 0.3333 0.3333 0.0000
vt 0.5000 0.3333 0.0000
vt 0.6667 0.3333 0.0000
vt 0.8333 0.3333 0.0000
vt 1.0000 0.3333 0.0000
vt 0.0000 0.0000 0.0000
vt 0.1667 0.0000 0.0000
vt 0.3333 0.0000 0.0000
vt 0.5000 0.0000 0.0000
vt 0.6667 0.0000 0.0000
vt 0.8333 0.0000 0.0000
# 26 texture coords

o Sphere008
g Sphere008
usemtl Material__25
s 1
f 91/175/91 92/176/92 93/177/93 
f 91/178/91 93/177/93 94/179/94 
f 91/180/91 94/179/94 95/181/95 
f 91/182/91 95/181/95 96/183/96 
f 91/184/91 96/183/96 97/185/97 
f 91/186/91 97/185/97 92/187/92 
f 92/176/92 98/188/98 99/189/99 
f 92/176/92 99/189/99 93/177/93 
f 93/177/93 99/189/99 100/190/100 
f 93/177/93 100/190/100 94/179/94 
f 94/179/94 100/190/100 101/191/101 
f 94/179/94 101/191/101 95/181/95 
f 95/181/95 101/191/101 102/192/102 
f 95/181/95 102/192/102 96/183/96 
f 96/183/96 102/192/102 103/193/103 
f 96/183/96 103/193/103 97/185/97 
f 97/185/97 103/193/103 98/194/98 
f 97/185/97 98/194/98 92/187/92 
f 104/195/104 99/189/99 98/188/98 
f 104/196/104 100/190/100 99/189/99 
f 104/197/104 101/191/101 100/190/100 
f 104/198/104 102/192/102 101/191/101 
f 104/199/104 103/193/103 102/192/102 
f 104/200/104 98/194/98 103/193/103 
# 24 faces

