# 3ds Max Wavefront OBJ Exporter v0.97b - (c)2007 guruware
# File Created: 27.03.2019 15:32:06

mtllib save_point.mtl

#
# object Box001
#

v  -31.4314 0.0000 34.0437
v  -31.4314 0.0000 -31.1863
v  36.8307 0.0000 -31.1863
v  36.8307 0.0000 34.0437
v  -22.1219 142.8926 24.7342
v  27.5212 142.8926 24.7342
v  27.5212 142.8926 -21.8769
v  -22.1219 142.8926 -21.8769
v  33.3409 3.4898 34.0437
v  -27.9416 3.4898 34.0437
v  36.8307 134.4080 34.0437
v  33.3409 130.9182 34.0437
v  -31.4314 134.4080 34.0437
v  -27.9416 130.9182 34.0437
v  36.8307 3.4898 -27.6966
v  36.8307 3.4898 30.5539
v  36.8307 134.4080 -31.1863
v  36.8307 130.9182 -27.6966
v  36.8307 130.9182 30.5539
v  -27.9416 3.4898 -31.1863
v  33.3409 3.4898 -31.1863
v  -31.4314 134.4080 -31.1863
v  -27.9416 130.9182 -31.1863
v  33.3409 130.9182 -31.1863
v  -31.4314 3.4898 30.5539
v  -31.4314 3.4898 -27.6966
v  -31.4314 130.9182 30.5539
v  -31.4314 130.9182 -27.6966
v  32.4705 134.4080 29.6836
v  -27.0712 134.4080 29.6836
v  32.4705 134.4080 -26.8262
v  -27.0712 134.4080 -26.8262
v  -27.0712 139.7108 29.6836
v  32.4705 139.7108 29.6836
v  32.4705 139.7108 -26.8262
v  -27.0712 139.7108 -26.8262
# 36 vertices

vn 0.0000 -1.0000 -0.0000
vn 0.0000 1.0000 -0.0000
vn 0.0000 0.0000 1.0000
vn 1.0000 0.0000 -0.0000
vn 0.0000 0.0000 -1.0000
vn -1.0000 0.0000 -0.0000
vn -0.7071 0.0000 0.7071
vn -0.7071 0.0000 -0.7071
vn 0.7071 0.0000 -0.7071
vn 0.7071 0.0000 0.7071
vn 0.0000 0.8412 0.5408
vn 0.5408 0.8412 -0.0000
vn 0.0000 0.8412 -0.5408
vn -0.5408 0.8412 -0.0000
# 14 vertex normals

vt 1.0000 0.0000 0.0000
vt 1.0000 1.0000 0.0000
vt 0.0000 1.0000 0.0000
vt 0.0000 0.0000 0.0000
# 4 texture coords

o Box001
g Box001
usemtl 03___Default
s 2
f 1/1/1 2/2/1 3/3/1 
f 3/3/1 4/4/1 1/1/1 
s 4
f 5/4/2 6/1/2 7/2/2 
f 7/2/2 8/3/2 5/4/2 
s off
f 1/4/3 4/1/3 9/1/3 
f 9/1/3 10/4/3 1/4/3 
f 4/1/3 11/2/3 12/2/3 
f 12/2/3 9/1/3 4/1/3 
f 11/2/3 13/3/3 14/3/3 
f 14/3/3 12/2/3 11/2/3 
f 13/3/3 1/4/3 10/4/3 
f 10/4/3 14/3/3 13/3/3 
f 4/4/4 3/1/4 15/1/4 
f 15/1/4 16/4/4 4/4/4 
f 3/1/4 17/2/4 18/2/4 
f 18/2/4 15/1/4 3/1/4 
f 17/2/4 11/3/4 19/3/4 
f 19/3/4 18/2/4 17/2/4 
f 11/3/4 4/4/4 16/4/4 
f 16/4/4 19/3/4 11/3/4 
f 3/4/5 2/1/5 20/1/5 
f 20/1/5 21/4/5 3/4/5 
f 2/1/5 22/2/5 23/2/5 
f 23/2/5 20/1/5 2/1/5 
f 22/2/5 17/3/5 24/3/5 
f 24/3/5 23/2/5 22/2/5 
f 17/3/5 3/4/5 21/4/5 
f 21/4/5 24/3/5 17/3/5 
f 2/4/6 1/1/6 25/1/6 
f 25/1/6 26/4/6 2/4/6 
f 1/1/6 13/2/6 27/2/6 
f 27/2/6 25/1/6 1/1/6 
f 13/2/6 22/3/6 28/3/6 
f 28/3/6 27/2/6 13/2/6 
f 22/3/6 2/4/6 26/4/6 
f 26/4/6 28/3/6 22/3/6 
s 1
f 25/1/2 16/4/2 15/1/2 
f 15/1/2 26/4/2 25/1/2 
s 2
f 15/1/2 21/4/2 20/1/2 
f 20/1/2 26/4/2 15/1/2 
f 25/1/2 10/4/2 9/1/2 
f 9/1/2 16/4/2 25/1/2 
s 1
f 24/2/1 12/3/1 14/2/1 
f 14/2/1 23/3/1 24/2/1 
s 2
f 14/2/1 27/3/1 28/2/1 
f 28/2/1 23/3/1 14/2/1 
f 24/2/1 18/3/1 19/2/1 
f 19/2/1 12/3/1 24/2/1 
s 4
f 24/2/7 21/4/7 15/1/7 
f 15/1/7 18/3/7 24/2/7 
f 19/2/8 16/4/8 9/1/8 
f 9/1/8 12/3/8 19/2/8 
f 14/2/9 10/4/9 25/1/9 
f 25/1/9 27/3/9 14/2/9 
f 28/2/10 26/4/10 20/1/10 
f 20/1/10 23/3/10 28/2/10 
s off
f 13/4/2 11/1/2 29/1/2 
f 29/1/2 30/4/2 13/4/2 
f 11/1/2 17/2/2 31/2/2 
f 31/2/2 29/1/2 11/1/2 
f 17/2/2 22/3/2 32/3/2 
f 32/3/2 31/2/2 17/2/2 
f 22/3/2 13/4/2 30/4/2 
f 30/4/2 32/3/2 22/3/2 
f 33/4/11 34/1/11 6/1/11 
f 6/1/11 5/4/11 33/4/11 
f 34/1/12 35/2/12 7/2/12 
f 7/2/12 6/1/12 34/1/12 
f 35/2/13 36/3/13 8/3/13 
f 8/3/13 7/2/13 35/2/13 
f 36/3/14 33/4/14 5/4/14 
f 5/4/14 8/3/14 36/3/14 
# 72 faces

#
# object Box002
#

v  -29.7347 0.0000 31.2719
v  -29.7347 0.0000 -28.5016
v  35.5137 0.0000 -28.5016
v  35.5137 0.0000 31.2719
v  -29.7347 133.0683 31.2719
v  35.5137 133.0683 31.2719
v  35.5137 133.0683 -28.5016
v  -29.7347 133.0683 -28.5016
# 8 vertices

vn 0.0000 -1.0000 -0.0000
vn 0.0000 1.0000 -0.0000
vn 0.0000 0.0000 1.0000
vn 1.0000 0.0000 -0.0000
vn 0.0000 0.0000 -1.0000
vn -1.0000 0.0000 -0.0000
# 6 vertex normals

vt 1.0000 0.0000 0.0000
vt 1.0000 1.0000 0.0000
vt 0.0000 1.0000 0.0000
vt 0.0000 0.0000 0.0000
# 4 texture coords

o Box002
g Box002
usemtl 01___Default
s 2
f 37/5/15 38/6/15 39/7/15 
f 39/7/15 40/8/15 37/5/15 
s 4
f 41/8/16 42/5/16 43/6/16 
f 43/6/16 44/7/16 41/8/16 
s 8
f 37/8/17 40/5/17 42/6/17 
f 42/6/17 41/7/17 37/8/17 
s 16
f 40/8/18 39/5/18 43/6/18 
f 43/6/18 42/7/18 40/8/18 
s 32
f 39/8/19 38/5/19 44/6/19 
f 44/6/19 43/7/19 39/8/19 
s 64
f 38/8/20 37/5/20 41/6/20 
f 41/6/20 44/7/20 38/8/20 
# 12 faces

#
# object Object001
#

v  -27.0712 134.4080 29.6836
v  32.4705 134.4080 29.6836
v  32.4705 139.7108 29.6836
v  -27.0712 139.7108 29.6836
v  32.4705 134.4080 -26.8262
v  32.4705 139.7108 -26.8262
v  -27.0712 134.4080 -26.8262
v  -27.0712 139.7108 -26.8262
# 8 vertices

vn 0.0000 0.0000 1.0000
vn 1.0000 0.0000 -0.0000
vn 0.0000 0.0000 -1.0000
vn -1.0000 0.0000 -0.0000
# 4 vertex normals

vt 0.0000 0.0000 0.0000
vt 1.0000 0.0000 0.0000
vt 1.0000 1.0000 0.0000
vt 0.0000 1.0000 0.0000
# 4 texture coords

o Object001
g Object001
usemtl 07___Default
s off
f 45/9/21 46/10/21 47/10/21 
f 47/10/21 48/9/21 45/9/21 
f 46/10/22 49/11/22 50/11/22 
f 50/11/22 47/10/22 46/10/22 
f 49/11/23 51/12/23 52/12/23 
f 52/12/23 50/11/23 49/11/23 
f 51/12/24 45/9/24 48/9/24 
f 48/9/24 52/12/24 51/12/24 
# 8 faces

#
# object Box003
#

v  -28.5281 3.7698 -27.8917
v  -28.5281 3.7698 -30.8728
v  33.3826 3.7698 -30.8728
v  33.3826 3.7698 -27.8917
v  -28.5281 131.1609 -27.8917
v  33.3826 131.1609 -27.8917
v  33.3826 131.1609 -30.8728
v  -28.5281 131.1609 -30.8728
v  33.3826 82.4773 -30.8728
v  33.3826 82.4773 -27.8917
v  33.3826 52.4534 -27.8917
v  33.3826 52.4534 -30.8728
v  -28.5281 82.4773 -27.8917
v  -28.5281 82.4773 -30.8728
v  -28.5281 52.4534 -30.8728
v  -28.5281 52.4534 -27.8917
v  30.3605 6.6674 -27.8917
v  -25.5060 6.6674 -27.8917
v  30.3605 81.7944 -27.8917
v  30.3605 53.1363 -27.8917
v  -25.5060 128.2633 -27.8917
v  30.3605 128.2633 -27.8917
v  -25.5060 53.1363 -27.8917
v  -25.5060 81.7944 -27.8917
v  -25.5060 6.6674 -30.8728
v  30.3605 6.6674 -30.8728
v  -25.5060 81.7944 -30.8728
v  -25.5060 53.1363 -30.8728
v  30.3605 128.2633 -30.8728
v  -25.5060 128.2633 -30.8728
v  30.3605 53.1363 -30.8728
v  30.3605 81.7944 -30.8728
# 32 vertices

vn 0.0000 -1.0000 -0.0000
vn 0.0000 1.0000 -0.0000
vn 1.0000 0.0000 -0.0000
vn -1.0000 0.0000 -0.0000
vn 0.0000 0.0000 1.0000
vn 0.0000 0.0000 -1.0000
vn -0.0000 -1.0000 -0.0000
vn 0.0000 -1.0000 0.0000
# 8 vertex normals

vt 1.0000 0.0000 0.0000
vt 1.0000 1.0000 0.0000
vt 0.0000 1.0000 0.0000
vt 0.0000 0.0000 0.0000
vt 1.0000 0.6178 0.0000
vt 0.0000 0.6178 0.0000
vt 0.0000 0.3822 0.0000
vt 1.0000 0.3822 0.0000
vt 0.6178 0.3822 0.0000
vt 0.3822 0.3822 0.0000
vt 0.6178 0.6178 0.0000
vt 0.3822 0.6178 0.0000
# 12 texture coords

o Box003
g Box003
usemtl 03___Default
s 2
f 53/13/25 54/14/25 55/15/25 
f 55/15/25 56/16/25 53/13/25 
s 4
f 57/16/26 58/13/26 59/14/26 
f 59/14/26 60/15/26 57/16/26 
s 16
f 61/17/27 62/18/27 63/19/27 
f 63/19/27 64/20/27 61/17/27 
s 64
f 65/17/28 66/18/28 67/19/28 
f 67/19/28 68/20/28 65/17/28 
s off
f 53/16/29 56/13/29 69/13/29 
f 69/13/29 70/16/29 53/16/29 
f 62/17/29 71/17/29 72/20/29 
f 72/20/29 63/20/29 62/17/29 
f 58/14/29 57/15/29 73/15/29 
f 73/15/29 74/14/29 58/14/29 
f 68/19/29 75/19/29 76/18/29 
f 76/18/29 65/18/29 68/19/29 
f 55/16/30 54/13/30 77/13/30 
f 77/13/30 78/16/30 55/16/30 
f 66/17/30 79/17/30 80/20/30 
f 80/20/30 67/20/30 66/17/30 
f 60/14/30 59/15/30 81/15/30 
f 81/15/30 82/14/30 60/14/30 
f 64/19/30 83/19/30 84/18/30 
f 84/18/30 61/18/30 64/19/30 
s 2
f 81/14/25 74/15/25 73/14/25 
f 73/14/25 82/15/25 81/14/25 
f 77/13/26 70/16/26 69/13/26 
f 69/13/26 78/16/26 77/13/26 
s 16
f 59/14/27 58/15/27 62/18/27 
f 62/18/27 61/17/27 59/14/27 
f 56/16/27 55/13/27 64/20/27 
f 64/20/27 63/19/27 56/16/27 
s 64
f 57/14/28 60/15/28 66/18/28 
f 66/18/28 65/17/28 57/14/28 
f 54/16/28 53/13/28 68/20/28 
f 68/20/28 67/19/28 54/16/28 
s off
f 62/17/29 58/14/29 74/14/29 
f 74/14/29 71/17/29 62/17/29 
f 69/13/29 56/13/29 63/20/29 
f 63/20/29 72/20/29 69/13/29 
f 68/19/29 53/16/29 70/16/29 
f 70/16/29 75/19/29 68/19/29 
f 73/15/29 57/15/29 65/18/29 
f 65/18/29 76/18/29 73/15/29 
f 66/17/30 60/14/30 82/14/30 
f 82/14/30 79/17/30 66/17/30 
f 77/13/30 54/13/30 67/20/30 
f 67/20/30 80/20/30 77/13/30 
f 64/19/30 55/16/30 78/16/30 
f 78/16/30 83/19/30 64/19/30 
f 81/15/30 59/15/30 61/18/30 
f 61/18/30 84/18/30 81/15/30 
s 1
f 78/16/28 69/13/28 72/21/28 
f 72/21/28 83/22/28 78/16/28 
f 74/15/28 81/14/28 84/23/28 
f 84/23/28 71/24/28 74/15/28 
f 82/15/27 73/14/27 76/23/27 
f 76/23/27 79/24/27 82/15/27 
f 70/16/27 77/13/27 80/21/27 
f 80/21/27 75/22/27 70/16/27 
s 2
f 71/24/26 84/23/26 79/24/26 
f 79/24/26 76/23/26 71/24/26 
s 4
f 84/18/30 83/19/30 80/20/30 
f 80/20/30 79/17/30 84/18/30 
s 2
f 83/22/31 72/21/31 75/22/32 
f 75/22/32 80/21/32 83/22/31 
s 4
f 72/20/29 71/17/29 76/18/29 
f 76/18/29 75/19/29 72/20/29 
# 68 faces

#
# object Box004
#

v  -28.5281 3.7698 34.8681
v  -28.5281 3.7698 31.8870
v  33.3826 3.7698 31.8870
v  33.3826 3.7698 34.8681
v  -28.5281 131.1609 34.8681
v  33.3826 131.1609 34.8681
v  33.3826 131.1609 31.8870
v  -28.5281 131.1609 31.8870
v  33.3826 82.4773 31.8870
v  33.3826 82.4773 34.8681
v  33.3826 52.4534 34.8681
v  33.3826 52.4534 31.8870
v  -28.5281 82.4773 34.8681
v  -28.5281 82.4773 31.8870
v  -28.5281 52.4534 31.8870
v  -28.5281 52.4534 34.8681
v  30.3605 6.6674 34.8681
v  -25.5060 6.6674 34.8681
v  30.3605 81.7944 34.8681
v  30.3605 53.1363 34.8681
v  -25.5060 128.2633 34.8681
v  30.3605 128.2633 34.8681
v  -25.5060 53.1363 34.8681
v  -25.5060 81.7944 34.8681
v  -25.5060 6.6674 31.8870
v  30.3605 6.6674 31.8870
v  -25.5060 81.7944 31.8870
v  -25.5060 53.1363 31.8870
v  30.3605 128.2633 31.8870
v  -25.5060 128.2633 31.8870
v  30.3605 53.1363 31.8870
v  30.3605 81.7944 31.8870
# 32 vertices

vn 0.0000 -1.0000 -0.0000
vn 0.0000 1.0000 -0.0000
vn 1.0000 0.0000 -0.0000
vn -1.0000 0.0000 -0.0000
vn 0.0000 0.0000 1.0000
vn 0.0000 0.0000 -1.0000
vn -0.0000 -1.0000 -0.0000
vn 0.0000 -1.0000 0.0000
# 8 vertex normals

vt 1.0000 0.0000 0.0000
vt 1.0000 1.0000 0.0000
vt 0.0000 1.0000 0.0000
vt 0.0000 0.0000 0.0000
vt 1.0000 0.6178 0.0000
vt 0.0000 0.6178 0.0000
vt 0.0000 0.3822 0.0000
vt 1.0000 0.3822 0.0000
vt 0.6178 0.3822 0.0000
vt 0.3822 0.3822 0.0000
vt 0.6178 0.6178 0.0000
vt 0.3822 0.6178 0.0000
# 12 texture coords

o Box004
g Box004
usemtl 03___Default
s 2
f 85/25/33 86/26/33 87/27/33 
f 87/27/33 88/28/33 85/25/33 
s 4
f 89/28/34 90/25/34 91/26/34 
f 91/26/34 92/27/34 89/28/34 
s 16
f 93/29/35 94/30/35 95/31/35 
f 95/31/35 96/32/35 93/29/35 
s 64
f 97/29/36 98/30/36 99/31/36 
f 99/31/36 100/32/36 97/29/36 
s off
f 85/28/37 88/25/37 101/25/37 
f 101/25/37 102/28/37 85/28/37 
f 94/29/37 103/29/37 104/32/37 
f 104/32/37 95/32/37 94/29/37 
f 90/26/37 89/27/37 105/27/37 
f 105/27/37 106/26/37 90/26/37 
f 100/31/37 107/31/37 108/30/37 
f 108/30/37 97/30/37 100/31/37 
f 87/28/38 86/25/38 109/25/38 
f 109/25/38 110/28/38 87/28/38 
f 98/29/38 111/29/38 112/32/38 
f 112/32/38 99/32/38 98/29/38 
f 92/26/38 91/27/38 113/27/38 
f 113/27/38 114/26/38 92/26/38 
f 96/31/38 115/31/38 116/30/38 
f 116/30/38 93/30/38 96/31/38 
s 2
f 113/26/33 106/27/33 105/26/33 
f 105/26/33 114/27/33 113/26/33 
f 109/25/34 102/28/34 101/25/34 
f 101/25/34 110/28/34 109/25/34 
s 16
f 91/26/35 90/27/35 94/30/35 
f 94/30/35 93/29/35 91/26/35 
f 88/28/35 87/25/35 96/32/35 
f 96/32/35 95/31/35 88/28/35 
s 64
f 89/26/36 92/27/36 98/30/36 
f 98/30/36 97/29/36 89/26/36 
f 86/28/36 85/25/36 100/32/36 
f 100/32/36 99/31/36 86/28/36 
s off
f 94/29/37 90/26/37 106/26/37 
f 106/26/37 103/29/37 94/29/37 
f 101/25/37 88/25/37 95/32/37 
f 95/32/37 104/32/37 101/25/37 
f 100/31/37 85/28/37 102/28/37 
f 102/28/37 107/31/37 100/31/37 
f 105/27/37 89/27/37 97/30/37 
f 97/30/37 108/30/37 105/27/37 
f 98/29/38 92/26/38 114/26/38 
f 114/26/38 111/29/38 98/29/38 
f 109/25/38 86/25/38 99/32/38 
f 99/32/38 112/32/38 109/25/38 
f 96/31/38 87/28/38 110/28/38 
f 110/28/38 115/31/38 96/31/38 
f 113/27/38 91/27/38 93/30/38 
f 93/30/38 116/30/38 113/27/38 
s 1
f 110/28/36 101/25/36 104/33/36 
f 104/33/36 115/34/36 110/28/36 
f 106/27/36 113/26/36 116/35/36 
f 116/35/36 103/36/36 106/27/36 
f 114/27/35 105/26/35 108/35/35 
f 108/35/35 111/36/35 114/27/35 
f 102/28/35 109/25/35 112/33/35 
f 112/33/35 107/34/35 102/28/35 
s 2
f 103/36/34 116/35/34 111/36/34 
f 111/36/34 108/35/34 103/36/34 
s 4
f 116/30/38 115/31/38 112/32/38 
f 112/32/38 111/29/38 116/30/38 
s 2
f 115/34/39 104/33/39 107/34/40 
f 107/34/40 112/33/40 115/34/39 
s 4
f 104/32/37 103/29/37 108/30/37 
f 108/30/37 107/31/37 104/32/37 
# 68 faces

#
# object Box005
#

v  -28.4200 3.1994 31.1123
v  -31.4011 3.1994 31.1123
v  -31.4011 3.1994 -27.5019
v  -28.4200 3.1994 -27.5019
v  -28.4200 130.5905 31.1123
v  -28.4200 130.5905 -27.5019
v  -31.4011 130.5905 -27.5019
v  -31.4011 130.5905 31.1123
v  -31.4011 81.9069 -27.5019
v  -28.4200 81.9069 -27.5019
v  -28.4200 51.8830 -27.5019
v  -31.4011 51.8830 -27.5019
v  -28.4200 81.9069 31.1123
v  -31.4011 81.9069 31.1123
v  -31.4011 51.8830 31.1123
v  -28.4200 51.8830 31.1123
v  -28.4200 6.0970 -24.6408
v  -28.4200 6.0970 28.2511
v  -28.4200 81.2240 -24.6408
v  -28.4200 52.5659 -24.6408
v  -28.4200 127.6928 28.2511
v  -28.4200 127.6928 -24.6408
v  -28.4200 52.5659 28.2511
v  -28.4200 81.2240 28.2511
v  -31.4011 6.0970 28.2511
v  -31.4011 6.0970 -24.6408
v  -31.4011 81.2240 28.2511
v  -31.4011 52.5659 28.2511
v  -31.4011 127.6928 -24.6408
v  -31.4011 127.6928 28.2511
v  -31.4011 52.5659 -24.6408
v  -31.4011 81.2240 -24.6408
# 32 vertices

vn 0.0000 -1.0000 -0.0000
vn 0.0000 1.0000 -0.0000
vn -0.0000 0.0000 -1.0000
vn 0.0000 0.0000 1.0000
vn 1.0000 0.0000 -0.0000
vn -1.0000 0.0000 0.0000
vn -0.0000 -1.0000 0.0000
# 7 vertex normals

vt 1.0000 0.0000 0.0000
vt 1.0000 1.0000 0.0000
vt 0.0000 1.0000 0.0000
vt 0.0000 0.0000 0.0000
vt 1.0000 0.6178 0.0000
vt 0.0000 0.6178 0.0000
vt 0.0000 0.3822 0.0000
vt 1.0000 0.3822 0.0000
vt 0.6178 0.3822 0.0000
vt 0.3822 0.3822 0.0000
vt 0.6178 0.6178 0.0000
vt 0.3822 0.6178 0.0000
# 12 texture coords

o Box005
g Box005
usemtl 03___Default
s 2
f 117/37/41 118/38/41 119/39/41 
f 119/39/41 120/40/41 117/37/41 
s 4
f 121/40/42 122/37/42 123/38/42 
f 123/38/42 124/39/42 121/40/42 
s 16
f 125/41/43 126/42/43 127/43/43 
f 127/43/43 128/44/43 125/41/43 
s 64
f 129/41/44 130/42/44 131/43/44 
f 131/43/44 132/44/44 129/41/44 
s off
f 117/40/45 120/37/45 133/37/45 
f 133/37/45 134/40/45 117/40/45 
f 126/41/45 135/41/45 136/44/45 
f 136/44/45 127/44/45 126/41/45 
f 122/38/45 121/39/45 137/39/45 
f 137/39/45 138/38/45 122/38/45 
f 132/43/45 139/43/45 140/42/45 
f 140/42/45 129/42/45 132/43/45 
f 119/40/46 118/37/46 141/37/46 
f 141/37/46 142/40/46 119/40/46 
f 130/41/46 143/41/46 144/44/46 
f 144/44/46 131/44/46 130/41/46 
f 124/38/46 123/39/46 145/39/46 
f 145/39/46 146/38/46 124/38/46 
f 128/43/46 147/43/46 148/42/46 
f 148/42/46 125/42/46 128/43/46 
s 2
f 145/38/41 138/39/41 137/38/41 
f 137/38/41 146/39/41 145/38/41 
f 141/37/42 134/40/42 133/37/42 
f 133/37/42 142/40/42 141/37/42 
s 16
f 123/38/43 122/39/43 126/42/43 
f 126/42/43 125/41/43 123/38/43 
f 120/40/43 119/37/43 128/44/43 
f 128/44/43 127/43/43 120/40/43 
s 64
f 121/38/44 124/39/44 130/42/44 
f 130/42/44 129/41/44 121/38/44 
f 118/40/44 117/37/44 132/44/44 
f 132/44/44 131/43/44 118/40/44 
s off
f 126/41/45 122/38/45 138/38/45 
f 138/38/45 135/41/45 126/41/45 
f 133/37/45 120/37/45 127/44/45 
f 127/44/45 136/44/45 133/37/45 
f 132/43/45 117/40/45 134/40/45 
f 134/40/45 139/43/45 132/43/45 
f 137/39/45 121/39/45 129/42/45 
f 129/42/45 140/42/45 137/39/45 
f 130/41/46 124/38/46 146/38/46 
f 146/38/46 143/41/46 130/41/46 
f 141/37/46 118/37/46 131/44/46 
f 131/44/46 144/44/46 141/37/46 
f 128/43/46 119/40/46 142/40/46 
f 142/40/46 147/43/46 128/43/46 
f 145/39/46 123/39/46 125/42/46 
f 125/42/46 148/42/46 145/39/46 
s 1
f 142/40/44 133/37/44 136/45/44 
f 136/45/44 147/46/44 142/40/44 
f 138/39/44 145/38/44 148/47/44 
f 148/47/44 135/48/44 138/39/44 
f 146/39/43 137/38/43 140/47/43 
f 140/47/43 143/48/43 146/39/43 
f 134/40/43 141/37/43 144/45/43 
f 144/45/43 139/46/43 134/40/43 
s 2
f 135/48/42 148/47/42 143/48/42 
f 143/48/42 140/47/42 135/48/42 
s 4
f 148/42/46 147/43/46 144/44/46 
f 144/44/46 143/41/46 148/42/46 
s 2
f 147/46/47 136/45/47 139/46/41 
f 139/46/41 144/45/41 147/46/47 
s 4
f 136/44/45 135/41/45 140/42/45 
f 140/42/45 139/43/45 136/44/45 
# 68 faces

#
# object Box006
#

v  36.5828 3.1994 31.1123
v  33.6017 3.1994 31.1123
v  33.6017 3.1994 -27.5019
v  36.5828 3.1994 -27.5019
v  36.5828 130.5905 31.1123
v  36.5828 130.5905 -27.5019
v  33.6017 130.5905 -27.5019
v  33.6017 130.5905 31.1123
v  33.6017 81.9069 -27.5019
v  36.5828 81.9069 -27.5019
v  36.5828 51.8830 -27.5019
v  33.6017 51.8830 -27.5019
v  36.5828 81.9069 31.1123
v  33.6017 81.9069 31.1123
v  33.6017 51.8830 31.1123
v  36.5828 51.8830 31.1123
v  36.5828 6.0970 -24.6408
v  36.5828 6.0970 28.2511
v  36.5828 81.2240 -24.6408
v  36.5828 52.5659 -24.6408
v  36.5828 127.6928 28.2511
v  36.5828 127.6928 -24.6408
v  36.5828 52.5659 28.2511
v  36.5828 81.2240 28.2511
v  33.6017 6.0970 28.2511
v  33.6017 6.0970 -24.6408
v  33.6017 81.2240 28.2511
v  33.6017 52.5659 28.2511
v  33.6017 127.6928 -24.6408
v  33.6017 127.6928 28.2511
v  33.6017 52.5659 -24.6408
v  33.6017 81.2240 -24.6408
# 32 vertices

vn 0.0000 -1.0000 -0.0000
vn 0.0000 1.0000 -0.0000
vn -0.0000 0.0000 -1.0000
vn 0.0000 0.0000 1.0000
vn 1.0000 0.0000 -0.0000
vn -1.0000 0.0000 0.0000
vn -0.0000 -1.0000 0.0000
# 7 vertex normals

vt 1.0000 0.0000 0.0000
vt 1.0000 1.0000 0.0000
vt 0.0000 1.0000 0.0000
vt 0.0000 0.0000 0.0000
vt 1.0000 0.6178 0.0000
vt 0.0000 0.6178 0.0000
vt 0.0000 0.3822 0.0000
vt 1.0000 0.3822 0.0000
vt 0.6178 0.3822 0.0000
vt 0.3822 0.3822 0.0000
vt 0.6178 0.6178 0.0000
vt 0.3822 0.6178 0.0000
# 12 texture coords

o Box006
g Box006
usemtl 03___Default
s 2
f 149/49/48 150/50/48 151/51/48 
f 151/51/48 152/52/48 149/49/48 
s 4
f 153/52/49 154/49/49 155/50/49 
f 155/50/49 156/51/49 153/52/49 
s 16
f 157/53/50 158/54/50 159/55/50 
f 159/55/50 160/56/50 157/53/50 
s 64
f 161/53/51 162/54/51 163/55/51 
f 163/55/51 164/56/51 161/53/51 
s off
f 149/52/52 152/49/52 165/49/52 
f 165/49/52 166/52/52 149/52/52 
f 158/53/52 167/53/52 168/56/52 
f 168/56/52 159/56/52 158/53/52 
f 154/50/52 153/51/52 169/51/52 
f 169/51/52 170/50/52 154/50/52 
f 164/55/52 171/55/52 172/54/52 
f 172/54/52 161/54/52 164/55/52 
f 151/52/53 150/49/53 173/49/53 
f 173/49/53 174/52/53 151/52/53 
f 162/53/53 175/53/53 176/56/53 
f 176/56/53 163/56/53 162/53/53 
f 156/50/53 155/51/53 177/51/53 
f 177/51/53 178/50/53 156/50/53 
f 160/55/53 179/55/53 180/54/53 
f 180/54/53 157/54/53 160/55/53 
s 2
f 177/50/48 170/51/48 169/50/48 
f 169/50/48 178/51/48 177/50/48 
f 173/49/49 166/52/49 165/49/49 
f 165/49/49 174/52/49 173/49/49 
s 16
f 155/50/50 154/51/50 158/54/50 
f 158/54/50 157/53/50 155/50/50 
f 152/52/50 151/49/50 160/56/50 
f 160/56/50 159/55/50 152/52/50 
s 64
f 153/50/51 156/51/51 162/54/51 
f 162/54/51 161/53/51 153/50/51 
f 150/52/51 149/49/51 164/56/51 
f 164/56/51 163/55/51 150/52/51 
s off
f 158/53/52 154/50/52 170/50/52 
f 170/50/52 167/53/52 158/53/52 
f 165/49/52 152/49/52 159/56/52 
f 159/56/52 168/56/52 165/49/52 
f 164/55/52 149/52/52 166/52/52 
f 166/52/52 171/55/52 164/55/52 
f 169/51/52 153/51/52 161/54/52 
f 161/54/52 172/54/52 169/51/52 
f 162/53/53 156/50/53 178/50/53 
f 178/50/53 175/53/53 162/53/53 
f 173/49/53 150/49/53 163/56/53 
f 163/56/53 176/56/53 173/49/53 
f 160/55/53 151/52/53 174/52/53 
f 174/52/53 179/55/53 160/55/53 
f 177/51/53 155/51/53 157/54/53 
f 157/54/53 180/54/53 177/51/53 
s 1
f 174/52/51 165/49/51 168/57/51 
f 168/57/51 179/58/51 174/52/51 
f 170/51/51 177/50/51 180/59/51 
f 180/59/51 167/60/51 170/51/51 
f 178/51/50 169/50/50 172/59/50 
f 172/59/50 175/60/50 178/51/50 
f 166/52/50 173/49/50 176/57/50 
f 176/57/50 171/58/50 166/52/50 
s 2
f 167/60/49 180/59/49 175/60/49 
f 175/60/49 172/59/49 167/60/49 
s 4
f 180/54/53 179/55/53 176/56/53 
f 176/56/53 175/53/53 180/54/53 
s 2
f 179/58/54 168/57/54 171/58/48 
f 171/58/48 176/57/48 179/58/54 
s 4
f 168/56/52 167/53/52 172/54/52 
f 172/54/52 171/55/52 168/56/52 
# 68 faces

#
# object Box007
#

v  -30.3511 58.6876 13.8068
v  -30.5079 60.7077 -24.1847
v  -24.5407 60.7077 -30.1924
v  7.7712 58.6876 -28.7270
v  -30.3511 64.8347 13.8068
v  7.7712 64.8347 -28.7270
v  -24.5407 62.8146 -30.1924
v  -30.5079 62.8146 -24.1847
# 8 vertices

vn -0.0586 -0.9968 -0.0535
vn -0.0532 -0.9972 -0.0528
vn -0.0580 -0.9969 -0.0534
vn -0.0599 -0.9968 -0.0537
vn -0.0586 0.9968 -0.0535
vn -0.0599 0.9968 -0.0537
vn -0.0580 0.9969 -0.0534
vn -0.0532 0.9972 -0.0528
vn 0.7447 0.0000 0.6674
vn 0.0453 0.0000 -0.9990
vn -0.7095 0.0000 -0.7047
vn -1.0000 0.0000 0.0041
# 12 vertex normals

vt 1.0000 0.0000 0.0000
vt 1.0000 1.0000 0.0000
vt 0.0000 1.0000 0.0000
vt 0.0000 0.0000 0.0000
# 4 texture coords

o Box007
g Box007
usemtl 03___Default
s 2
f 181/61/55 182/62/56 183/63/57 
f 183/63/57 184/64/58 181/61/55 
s 4
f 185/64/59 186/61/60 187/62/61 
f 187/62/61 188/63/62 185/64/59 
s 8
f 181/64/63 184/61/63 186/62/63 
f 186/62/63 185/63/63 181/64/63 
s 16
f 184/64/64 183/61/64 187/62/64 
f 187/62/64 186/63/64 184/64/64 
s 32
f 183/64/65 182/61/65 188/62/65 
f 188/62/65 187/63/65 183/64/65 
s 64
f 182/64/66 181/61/66 185/62/66 
f 185/62/66 188/63/66 182/64/66 
# 12 faces

#
# object Box008
#

v  -28.8364 63.0513 -17.7645
v  -18.6660 63.0513 -27.9348
v  -12.5298 63.0513 -21.7986
v  -22.7002 63.0513 -11.6283
v  -28.8364 83.7479 -17.7645
v  -22.7002 83.7479 -11.6283
v  -12.5298 83.7479 -21.7986
v  -18.6660 83.7479 -27.9348
# 8 vertices

vn 0.0000 -1.0000 -0.0000
vn 0.0000 1.0000 -0.0000
vn -0.7071 0.0000 0.7071
vn 0.7071 0.0000 0.7071
vn 0.7071 0.0000 -0.7071
vn -0.7071 0.0000 -0.7071
# 6 vertex normals

vt 1.0000 0.0000 0.0000
vt 1.0000 1.0000 0.0000
vt 0.0000 1.0000 0.0000
vt 0.0000 0.0000 0.0000
# 4 texture coords

o Box008
g Box008
usemtl 07___Default
s 2
f 189/65/67 190/66/67 191/67/67 
f 191/67/67 192/68/67 189/65/67 
s 4
f 193/68/68 194/65/68 195/66/68 
f 195/66/68 196/67/68 193/68/68 
s 8
f 189/68/69 192/65/69 194/66/69 
f 194/66/69 193/67/69 189/68/69 
s 16
f 192/68/70 191/65/70 195/66/70 
f 195/66/70 194/67/70 192/68/70 
s 32
f 191/68/71 190/65/71 196/66/71 
f 196/66/71 195/67/71 191/68/71 
s 64
f 190/68/72 189/65/72 193/66/72 
f 193/66/72 196/67/72 190/68/72 
# 12 faces

